<?xml version="1.0" standalone="no"?><!DOCTYPE svg PUBLIC "-//W3C//DTD SVG 1.1//EN" "http://www.w3.org/Graphics/SVG/1.1/DTD/svg11.dtd" ><svg xmlns="http://www.w3.org/2000/svg"><metadata></metadata><defs><font id="fonteditor" horiz-adv-x="1000"><font-face font-family="NÓ3NÊiw04 W02" font-weight="400" font-stretch="normal" units-per-em="1000" panose-1="2 2 4 0 0 0 0 0 0 0" ascent="984" descent="-269" x-height="0" bbox="-70 -255 991 858" underline-thickness="0" underline-position="0" unicode-range="U+0021-ff5e" /><missing-glyph horiz-adv-x="500"  /><glyph glyph-name="exclam" unicode="!" d="M103 718 Q126 720 145 711 Q167 701 166 665 L141 244 Q141 228 132 224 Q122 220 112 219 Q97 217 97 238 Q81 577 74 672 Q71 715 103 718 ZM118 9 Q98 9 84 23 Q70 38 70 58 Q70 78 84 92 Q98 106 118 106 Q138 106 153 92 Q167 78 167 58 Q167 38 153 23 Q138 9 118 9 Z" /><glyph glyph-name="quotedbl" unicode="&quot;" d="M213 748 Q230 748 229 732 L215 530 Q214 507 205 507 Q193 507 192 530 Q182 631 177 732 Q176 748 192 748 L213 748 ZM110 744 Q126 744 125 728 L111 526 Q110 503 101 503 Q91 503 88 526 Q85 557 80 633 L73 728 Q72 744 88 744 L110 744 Z" /><glyph glyph-name="numbersign" unicode="#" d="M346 238 L378 456 L234 456 L202 238 L346 238 ZM509 503 Q522 503 527 491 L532 469 Q532 456 517 456 L424 456 L392 238 L491 238 Q506 238 509 225 Q514 213 514 203 Q515 191 499 191 L385 191 L362 38 Q361 27 345 25 Q335 23 324 24 Q316 24 317 40 L339 191 L195 191 L172 37 Q170 28 154 24 Q139 22 133 23 Q124 24 127 40 L149 191 L91 191 Q78 191 74 201 Q68 210 68 225 Q66 238 81 238 L156 238 L187 456 L97 456 Q84 456 80 466 Q76 473 74 490 Q74 503 87 503 L194 503 L215 655 Q217 666 234 670 Q249 672 257 671 Q266 670 263 652 L241 503 L384 503 L406 655 Q408 666 424 670 Q441 672 447 671 Q457 671 454 652 L431 503 L509 503 Z" /><glyph glyph-name="percent" unicode="%" d="M26 505 Q26 582 59 632 Q89 678 133 678 Q182 678 211 629 Q238 582 238 509 Q238 342 133 342 Q85 342 55 389 Q26 435 26 505 ZM74 509 Q74 444 92 402 Q109 364 132 364 Q189 364 189 518 Q189 577 174 617 Q159 659 134 659 Q106 659 90 618 Q74 578 74 509 ZM87 11 Q108 51 245 344 Q385 643 399 671 Q405 684 417 685 Q433 687 441 686 Q454 686 445 670 Q427 636 288 337 Q149 41 132 8 Q127 -1 115 -4 Q104 -6 93 -5 Q80 -3 87 11 ZM319 165 Q319 242 352 291 Q383 337 427 337 Q477 337 506 288 Q534 241 534 168 Q534 1 428 1 Q379 1 348 49 Q319 94 319 165 ZM368 169 Q368 104 386 62 Q403 23 426 23 Q484 23 484 178 Q484 237 469 277 Q453 319 428 319 Q400 319 384 278 Q368 237 368 169 Z" /><glyph glyph-name="ampersand" unicode="&amp;" d="M227 48 Q267 68 299 106 Q228 199 177 315 Q155 294 134 269 Q59 180 89 100 Q104 60 147 45 Q189 30 227 48 ZM158 498 Q169 454 194 386 Q263 444 282 464 Q312 495 316 540 Q320 585 298 612 Q280 635 246 638 Q210 642 184 621 Q135 584 158 498 ZM474 71 Q476 65 472 56 Q449 11 417 7 Q386 4 354 39 L325 72 Q287 28 240 7 Q185 -18 130 2 Q73 24 47 84 Q2 193 104 302 Q121 320 159 356 Q132 423 114 493 Q85 604 160 659 Q200 688 249 684 Q298 679 328 645 Q363 604 360 546 Q357 485 314 438 Q295 418 211 345 Q258 238 325 144 Q370 219 401 352 Q404 365 412 368 L436 372 Q447 372 443 352 Q412 197 352 108 Q372 84 382 73 Q401 52 415 53 Q430 55 448 81 Q453 88 459 85 Q471 76 474 71 Z" /><glyph glyph-name="quotesingle" unicode="&#39;" d="M100 780 Q117 780 116 764 L102 562 Q101 539 92 539 Q80 539 79 562 Q69 663 64 764 Q63 780 79 780 L100 780 Z" /><glyph glyph-name="parenleft" unicode="(" d="M286 824 Q310 845 326 831 Q341 816 321 796 Q153 633 158 373 Q161 119 323 -46 Q340 -64 327 -79 Q313 -93 291 -73 Q105 103 105 373 Q105 665 286 824 Z" /><glyph glyph-name="parenright" unicode=")" d="M48 -49 Q212 98 212 368 Q212 637 50 793 Q28 813 44 827 Q60 841 85 818 Q264 660 264 368 Q264 90 79 -78 Q57 -98 43 -82 Q29 -66 48 -49 Z" /><glyph glyph-name="asterisk" unicode="*" d="M465 466 Q482 458 470 438 Q460 418 441 430 Q418 447 353 489 L259 552 L266 440 Q270 365 273 330 Q275 313 252 311 Q228 310 230 332 Q233 359 237 437 L244 550 L60 432 Q45 422 34 442 Q21 461 42 471 Q67 482 136 515 L238 563 L37 653 Q20 660 30 681 Q40 701 59 691 L242 578 L224 791 Q222 810 245 810 Q269 812 267 790 Q268 797 257 575 Q284 592 352 632 L446 688 Q461 698 473 678 Q485 656 464 649 Q423 632 267 564 L465 466 Z" /><glyph glyph-name="plus" unicode="+" d="M456 420 Q467 420 469 410 Q473 398 473 388 Q475 377 460 377 Q356 377 277 378 Q278 289 278 184 Q278 174 268 170 Q260 166 245 166 Q234 165 234 177 L234 378 L51 377 Q41 377 37 387 Q34 393 32 409 Q32 420 44 420 L234 420 L234 620 Q234 634 246 632 Q259 632 269 628 Q279 624 279 615 Q279 507 278 420 L456 420 Z" /><glyph glyph-name="comma" unicode="," d="M197 104 Q198 100 198 92 Q194 -65 64 -102 Q43 -108 41 -100 Q38 -91 59 -81 Q135 -44 145 43 L140 43 Q117 43 100 61 Q84 79 84 104 Q84 129 100 147 Q117 165 140 165 Q164 165 181 147 Q197 130 197 104 Z" /><glyph glyph-name="hyphen" unicode="-" d="M309 365 Q319 365 322 351 L325 327 Q326 314 315 314 L47 314 Q38 314 35 325 Q31 339 30 351 Q30 365 41 365 L309 365 Z" /><glyph glyph-name="period" unicode="." d="M123 29 Q99 29 82 47 Q65 65 65 91 Q65 117 82 136 Q99 154 123 154 Q147 154 164 136 Q181 117 181 91 Q181 65 164 47 Q147 29 123 29 Z" /><glyph glyph-name="slash" unicode="/" d="M193 365 Q335 694 361 756 Q367 769 378 772 Q389 775 405 773 Q420 773 410 754 L75 -19 Q70 -30 59 -33 Q47 -35 34 -34 Q21 -32 29 -17 L193 365 Z" /><glyph glyph-name="zero" unicode="0" d="M26 333 Q26 490 91 582 Q152 669 248 669 Q343 669 404 582 Q469 490 469 333 Q469 184 404 90 Q341 -1 247 -1 Q153 -1 91 90 Q26 184 26 333 ZM71 335 Q71 198 123 117 Q171 40 247 40 Q323 40 372 117 Q423 198 423 335 Q423 471 372 553 Q323 631 247 631 Q172 631 123 553 Q71 471 71 335 Z" /><glyph glyph-name="one" unicode="1" d="M235 676 Q253 676 261 672 Q273 668 273 647 Q273 123 270 25 Q270 5 256 1 Q243 -2 229 1 Q218 3 219 24 Q222 134 222 575 Q222 594 212 580 Q170 523 106 474 Q98 468 93 473 Q87 479 82 494 Q78 503 87 509 Q145 552 199 624 Q240 677 235 676 Z" /><glyph glyph-name="two" unicode="2" d="M55 496 Q89 592 166 637 Q239 679 321 660 Q433 634 447 527 Q462 418 363 316 L233 185 Q154 107 114 63 Q96 44 124 44 L457 47 Q474 47 479 38 Q485 22 485 18 Q487 1 468 1 Q285 3 90 1 Q53 0 45 22 Q36 43 61 71 Q107 121 195 210 Q298 313 330 347 Q408 429 399 513 Q390 594 309 614 Q246 630 189 595 Q128 558 98 477 Q92 459 78 459 Q64 460 56 470 Q49 478 55 496 Z" /><glyph glyph-name="three" unicode="3" d="M56 570 Q125 656 224 669 Q319 682 377 623 Q439 561 413 478 Q386 392 286 371 Q391 353 436 273 Q481 194 440 110 Q387 0 252 1 Q115 3 36 121 Q23 141 37 149 Q50 157 63 141 Q139 48 247 45 Q351 41 393 123 Q434 201 381 271 Q323 349 188 339 Q165 338 161 348 Q156 360 161 368 Q166 379 187 380 Q314 394 358 466 Q400 533 343 593 Q302 636 226 623 Q147 610 97 541 Q85 526 69 526 Q59 527 51 537 Q42 552 56 570 Z" /><glyph glyph-name="four" unicode="4" d="M91 223 Q227 225 345 225 Q348 422 348 605 Q159 360 79 247 Q64 223 91 223 ZM385 669 Q395 665 395 640 L392 225 L480 225 Q497 225 500 214 Q503 203 504 196 Q508 180 490 180 L391 180 L388 26 Q388 5 375 1 Q360 -1 353 0 Q341 1 342 21 L345 180 L74 180 Q-18 178 37 256 Q161 429 347 661 Q359 676 379 674 Q381 674 383 670 L385 669 Z" /><glyph glyph-name="five" unicode="5" d="M422 657 Q435 657 438 648 L444 626 Q446 614 433 614 L145 614 Q119 614 118 594 L101 401 Q98 373 124 385 Q190 417 261 416 Q355 413 408 356 Q462 297 459 197 Q456 105 395 47 Q336 -9 246 -9 Q176 -9 119 35 Q65 76 38 145 Q31 162 41 166 Q50 171 58 154 Q121 33 239 33 Q312 33 359 77 Q408 122 411 197 Q413 278 373 324 Q334 369 259 373 Q186 377 129 343 Q45 297 53 389 L74 628 Q77 654 109 654 L422 657 Z" /><glyph glyph-name="six" unicode="6" d="M114 356 Q169 427 270 425 Q353 423 406 366 Q459 307 459 214 Q459 113 404 53 Q347 -9 252 -9 Q160 -9 102 58 Q44 125 43 233 Q42 415 126 526 Q204 629 348 661 Q375 667 379 657 Q383 647 357 638 Q145 561 109 357 Q108 354 110 353 Q112 352 114 356 ZM98 212 Q97 137 143 84 Q189 31 254 31 Q324 31 368 81 Q412 130 412 209 Q412 284 368 336 Q324 388 260 388 Q192 388 146 341 Q99 291 98 212 Z" /><glyph glyph-name="seven" unicode="7" d="M43 664 Q224 662 455 664 Q484 664 491 646 Q499 626 475 597 Q403 508 365 417 Q295 252 260 14 Q258 -5 240 -3 Q224 1 215 7 Q206 15 210 34 Q252 267 324 434 Q364 528 421 604 Q435 621 414 621 Q196 619 61 619 Q46 619 41 629 Q36 639 33 652 Q30 664 43 664 Z" /><glyph glyph-name="eight" unicode="8" d="M443 507 Q445 385 332 353 Q472 319 472 180 Q472 96 416 47 Q358 -4 252 -4 Q151 -4 90 49 Q31 100 31 180 Q31 313 159 350 Q111 364 82 408 Q52 451 54 506 Q55 573 105 618 Q158 667 246 667 Q337 667 392 618 Q441 573 443 507 ZM245 628 Q182 628 141 593 Q101 558 100 505 Q98 373 272 370 Q399 400 396 506 Q395 557 354 592 Q311 628 245 628 ZM80 182 Q80 119 130 79 Q179 39 254 39 Q333 39 380 81 Q425 120 425 181 Q425 252 374 292 Q318 335 216 329 Q80 300 80 182 Z" /><glyph glyph-name="nine" unicode="9" d="M38 443 Q38 541 95 603 Q152 663 242 663 Q333 663 387 598 Q440 533 440 423 Q440 268 362 153 Q284 40 148 -6 Q122 -14 117 -4 Q112 7 137 19 Q329 114 365 280 Q366 283 364 284 Q362 285 359 282 Q314 230 221 232 Q144 234 92 291 Q38 350 38 443 ZM87 443 Q87 367 128 320 Q168 272 232 272 Q303 272 346 323 Q387 371 387 448 Q387 527 346 576 Q306 624 242 624 Q175 624 131 573 Q87 522 87 443 Z" /><glyph glyph-name="colon" unicode=":" d="M123 94 Q103 94 89 109 Q75 124 75 146 Q74 168 88 183 Q102 198 122 198 Q142 198 157 183 Q171 168 171 146 Q171 124 157 109 Q143 94 123 94 ZM122 375 Q102 375 88 390 Q74 405 73 427 Q73 449 87 464 Q101 480 121 480 Q141 480 156 464 Q170 449 170 427 Q170 405 156 390 Q142 375 122 375 Z" /><glyph glyph-name="semicolon" unicode=";" d="M107 374 Q86 374 72 390 Q57 405 57 428 Q57 451 72 466 Q86 482 107 482 Q127 482 142 466 Q156 450 156 428 Q156 406 142 390 Q127 374 107 374 ZM140 241 Q161 224 161 185 Q158 65 50 39 Q32 34 28 42 Q25 50 44 57 Q109 81 119 145 Q116 144 110 144 Q90 144 75 160 Q60 176 60 198 Q60 220 75 235 Q90 251 110 251 Q127 251 140 241 Z" /><glyph glyph-name="less" unicode="&lt;" d="M222 541 Q348 649 425 716 Q432 723 442 715 Q453 709 458 699 Q464 690 454 682 Q342 584 94 376 Q90 372 95 368 L274 223 Q409 115 470 65 Q481 56 475 45 Q471 39 460 28 Q449 20 438 29 Q349 104 235 198 Q91 316 37 361 Q24 373 37 383 L222 541 Z" /><glyph glyph-name="equal" unicode="=" d="M443 307 Q458 307 461 296 Q465 288 467 273 Q469 259 452 259 L59 259 Q46 259 41 269 Q36 282 35 293 Q33 307 48 307 L443 307 ZM443 516 Q458 516 461 505 Q465 496 467 481 Q469 467 452 467 L59 467 Q46 467 41 478 Q36 491 35 502 Q33 516 48 516 L443 516 Z" /><glyph glyph-name="greater" unicode="&gt;" d="M467 384 Q480 374 467 362 L278 206 Q170 117 82 43 Q72 33 61 42 Q51 50 46 59 Q40 70 51 79 L239 231 Q341 313 409 369 Q414 373 410 377 Q180 569 42 690 Q34 698 38 707 Q44 716 54 723 Q65 730 72 724 Q151 654 278 545 Q448 401 467 384 Z" /><glyph glyph-name="question" unicode="?" d="M243 620 Q108 618 97 468 Q96 451 81 453 Q68 453 60 460 Q51 464 53 477 Q65 663 244 666 Q326 667 373 626 Q419 586 423 515 Q426 449 340 359 Q253 269 256 204 Q256 191 245 186 Q236 181 223 181 Q209 179 208 200 Q201 270 284 365 Q370 463 369 509 Q367 623 243 620 ZM232 -5 Q212 -5 198 9 Q184 23 184 43 Q184 63 198 77 Q212 91 232 91 Q252 91 266 77 Q280 63 280 43 Q280 24 266 9 Q252 -5 232 -5 Z" /><glyph glyph-name="at" unicode="@" d="M411 228 Q495 231 530 345 Q539 408 543 427 Q536 528 455 526 Q390 524 349 468 Q306 412 310 328 Q315 223 411 228 ZM730 158 Q760 188 768 182 Q777 176 748 139 Q654 16 490 4 Q323 -8 211 87 Q95 184 94 348 Q93 503 197 612 Q300 721 450 724 Q592 727 689 649 Q784 572 793 451 Q802 333 750 255 Q701 182 611 160 Q512 136 518 245 Q479 183 404 180 Q344 178 305 215 Q264 254 261 323 Q257 422 312 494 Q368 566 453 570 Q534 573 559 512 L569 540 Q578 564 595 560 Q611 556 605 528 Q589 448 566 264 Q561 222 572 209 Q583 195 617 204 Q760 242 751 442 Q746 548 664 616 Q579 686 450 683 Q325 680 236 587 Q145 490 146 351 Q147 207 246 121 Q344 36 489 47 Q627 58 730 158 Z" /><glyph glyph-name="A" unicode="a" d="M152 267 Q254 266 409 268 Q341 456 295 568 Q289 582 285 581 Q281 581 275 567 Q233 473 152 267 ZM137 229 L96 121 Q68 46 56 16 Q50 0 36 0 Q24 -1 12 4 Q-1 10 4 24 Q165 424 250 613 Q264 643 286 643 Q306 643 319 614 Q416 391 553 29 Q561 6 546 2 Q529 -2 516 1 Q502 2 497 16 Q482 63 423 229 L137 229 Z" /><glyph glyph-name="B" unicode="b" d="M121 47 Q212 31 286 43 Q439 69 439 190 Q439 241 395 282 Q348 325 280 326 L126 326 Q125 176 121 47 ZM275 601 Q208 609 129 597 L129 592 Q129 544 127 368 Q201 368 277 370 Q409 373 409 482 Q409 527 374 560 Q337 593 275 601 ZM356 350 Q409 336 448 293 Q490 245 490 185 Q490 113 437 63 Q382 12 289 3 Q151 -10 28 38 Q6 47 10 60 Q14 74 36 67 L75 56 Q82 413 81 587 Q63 583 53 580 Q39 576 33 584 Q25 591 23 603 Q20 615 33 617 Q183 651 290 637 Q364 627 411 584 Q456 542 456 487 Q456 376 357 356 Q343 353 356 350 Z" /><glyph glyph-name="C" unicode="c" d="M520 461 Q510 464 501 484 Q448 599 310 599 Q212 599 152 522 Q93 447 93 328 Q93 194 146 120 Q202 44 308 44 Q480 44 533 215 Q539 234 549 232 Q560 230 556 210 Q540 109 476 54 Q411 -1 308 -1 Q41 -1 41 329 Q41 463 109 549 Q182 642 311 642 Q479 642 545 503 Q554 483 547 469 Q538 454 520 461 Z" /><glyph glyph-name="D" unicode="d" d="M267 46 Q369 49 422 128 Q469 199 469 315 Q467 594 260 598 Q211 599 146 590 Q146 257 139 50 Q199 43 267 46 ZM524 316 Q525 175 461 91 Q394 2 271 1 Q129 0 21 50 Q-1 60 5 70 Q11 79 31 73 Q59 63 90 57 Q97 409 96 580 Q76 576 67 573 Q51 568 43 574 Q34 581 31 593 Q28 608 46 614 Q146 643 267 641 Q394 639 460 552 Q523 469 524 316 Z" /><glyph glyph-name="E" unicode="e" d="M76 599 Q71 607 66 623 Q63 634 78 634 L458 634 Q476 634 481 626 Q488 612 491 600 Q495 587 476 587 L129 590 L123 364 Q305 362 420 362 Q435 362 441 353 Q447 342 449 331 Q452 318 435 318 L122 323 L113 47 L463 50 Q483 50 487 41 Q494 32 498 15 Q501 1 481 1 L92 1 Q63 1 64 29 Q76 414 78 597 L76 599 Z" /><glyph glyph-name="F" unicode="f" d="M131 349 Q346 347 412 349 Q428 349 433 339 Q439 329 441 314 Q444 300 428 300 Q257 303 130 304 L122 23 Q122 9 107 4 Q94 -1 80 -1 Q66 -2 66 15 Q77 371 79 597 Q72 609 67 621 Q63 635 79 635 Q285 635 457 637 Q472 637 478 627 Q486 615 489 601 Q492 586 473 586 Q249 588 137 588 L131 349 Z" /><glyph glyph-name="G" unicode="g" d="M557 349 Q586 348 586 318 Q589 163 523 81 Q457 -1 329 -1 Q196 -1 116 91 Q40 179 40 314 Q40 468 120 557 Q197 642 321 643 Q499 643 561 488 Q568 470 562 458 Q554 443 534 448 Q522 451 515 470 Q469 599 323 599 Q218 598 156 524 Q92 447 92 315 Q92 193 162 118 Q228 46 328 46 Q423 46 479 105 Q538 169 539 291 Q539 305 526 305 Q474 306 290 306 Q279 306 271 327 Q263 349 281 349 L557 349 Z" /><glyph glyph-name="H" unicode="h" d="M447 624 Q447 643 463 641 Q480 639 490 635 Q501 630 501 616 Q501 402 499 20 Q499 9 487 6 Q477 2 461 -1 Q446 -2 446 16 L446 318 Q296 321 118 323 L117 156 Q117 61 116 25 Q116 13 104 8 Q91 4 80 3 Q64 0 64 19 Q67 462 66 610 Q65 643 81 640 Q96 637 106 634 Q119 629 119 613 L118 364 Q394 361 447 361 L447 624 Z" /><glyph glyph-name="I" unicode="i" d="M67 586 Q55 586 52 596 Q49 604 45 620 Q42 631 54 631 Q198 631 304 633 Q321 633 325 624 Q334 611 334 597 Q335 585 309 585 L217 586 Q214 196 211 49 Q258 49 314 51 Q329 53 333 42 Q336 36 341 15 Q344 1 327 1 Q177 3 58 1 Q46 1 42 12 Q38 22 36 34 Q35 47 46 47 L159 48 Q165 235 165 586 L67 586 Z" /><glyph glyph-name="J" unicode="j" d="M60 591 Q47 591 42 600 Q36 616 35 626 Q33 637 45 637 Q193 635 303 638 Q316 638 321 630 Q329 616 332 601 Q334 590 318 590 L212 590 Q215 319 214 270 Q213 149 165 84 Q117 19 6 -6 Q-15 -10 -18 -2 Q-20 6 -2 13 Q87 49 123 106 Q159 164 160 273 Q162 422 159 591 L60 591 Z" /><glyph glyph-name="K" unicode="k" d="M119 298 Q373 535 463 623 Q477 637 491 638 Q515 638 531 635 Q551 633 535 617 Q402 496 281 389 L538 26 Q555 4 532 2 Q522 0 500 0 Q484 0 471 20 Q364 184 251 363 Q189 308 119 248 L118 21 Q116 7 104 3 Q92 0 78 0 Q65 0 65 13 Q67 134 67 630 Q67 645 79 643 Q93 642 108 636 Q119 632 119 622 L119 298 Z" /><glyph glyph-name="L" unicode="l" d="M465 40 Q472 29 473 17 Q477 2 459 2 L94 1 Q65 1 65 30 Q69 172 75 630 Q75 645 89 643 Q103 641 117 638 Q128 635 127 621 L116 43 L444 49 Q460 49 465 40 Z" /><glyph glyph-name="M" unicode="m" d="M5 19 Q44 250 134 614 Q140 639 155 638 Q180 637 191 606 Q256 416 338 155 Q340 146 343 155 Q428 437 488 609 Q498 638 524 638 Q542 640 548 613 Q652 169 679 21 Q683 0 669 -1 Q656 -1 644 2 Q631 3 627 22 Q593 247 521 542 Q520 548 517 548 Q514 547 512 542 Q447 359 366 86 Q358 62 340 62 Q322 62 315 86 Q252 285 167 535 Q162 550 160 535 Q80 172 54 17 Q53 2 40 -1 Q32 -2 12 0 Q1 0 5 19 Z" /><glyph glyph-name="N" unicode="n" d="M66 606 Q66 627 91 627 Q124 629 139 608 Q195 523 310 333 Q411 166 465 89 Q478 71 478 91 Q479 373 476 616 Q476 630 489 635 Q502 639 516 641 Q531 643 531 629 L532 30 Q532 2 505 1 Q466 1 448 27 Q392 114 286 289 Q185 456 129 541 Q117 559 117 539 Q117 409 122 19 Q122 6 109 1 Q96 -4 79 -4 Q66 -4 66 8 L66 606 Z" /><glyph glyph-name="O" unicode="o" d="M38 319 Q38 456 111 545 Q187 639 312 639 Q436 639 512 545 Q584 456 584 319 Q584 183 512 94 Q436 0 312 0 Q187 0 111 94 Q38 183 38 319 ZM90 319 Q90 201 148 125 Q209 45 311 45 Q413 45 473 125 Q530 201 530 319 Q530 437 473 513 Q413 593 311 593 Q209 593 148 513 Q90 437 90 319 Z" /><glyph glyph-name="P" unicode="p" d="M289 207 Q367 207 416 261 Q464 316 464 402 Q464 479 414 538 Q362 600 289 600 Q185 600 115 535 Q115 381 114 297 Q173 207 289 207 ZM115 586 Q183 643 289 643 Q383 643 449 569 Q512 498 512 402 Q512 292 448 228 Q386 166 289 166 Q171 166 114 238 L111 24 Q111 9 99 4 Q92 1 75 -1 Q63 -1 63 19 Q67 543 66 619 Q66 643 79 642 Q94 640 104 637 Q115 633 115 617 L115 586 Z" /><glyph glyph-name="Q" unicode="q" d="M311 46 Q360 46 406 68 Q387 98 369 145 Q362 164 378 170 Q400 179 406 162 Q418 124 440 89 Q547 167 547 319 Q547 433 480 512 Q412 592 311 592 Q211 592 150 512 Q90 435 90 319 Q90 203 150 126 Q211 46 311 46 ZM608 -17 Q640 -21 639 -32 Q638 -42 610 -41 Q500 -39 436 29 Q381 0 314 0 Q192 0 114 94 Q39 184 39 319 Q39 454 114 545 Q192 638 314 638 Q437 638 521 545 Q604 452 604 319 Q604 142 471 50 Q527 -8 608 -17 Z" /><glyph glyph-name="R" unicode="r" d="M115 339 Q197 302 289 304 Q367 305 409 348 Q447 388 447 456 Q447 518 400 558 Q352 598 278 598 Q184 598 116 547 L115 339 ZM116 597 Q186 643 287 643 Q379 643 441 591 Q504 538 504 457 Q504 379 462 328 Q418 277 341 265 Q414 147 495 22 Q506 5 487 2 Q471 0 461 0 Q440 0 432 15 Q419 39 365 134 Q317 217 293 262 Q189 262 115 299 Q115 179 113 23 Q113 10 103 6 Q93 2 77 0 Q64 -2 64 12 Q68 382 65 625 Q65 642 79 640 Q94 638 105 633 Q116 628 116 617 L116 597 Z" /><glyph glyph-name="S" unicode="s" d="M442 556 Q436 544 426 541 Q416 537 402 547 Q344 598 250 598 Q172 598 128 567 Q90 540 90 502 Q90 459 112 432 Q132 408 188 380 Q209 370 259 351 Q309 333 330 322 Q452 260 452 156 Q452 -3 253 -3 Q124 -3 44 80 Q35 89 39 98 Q43 110 58 115 Q66 116 77 107 Q144 44 253 44 Q402 44 402 156 Q402 231 309 277 L174 334 Q41 392 41 502 Q41 559 92 598 Q150 643 250 643 Q367 643 435 578 Q447 567 442 556 Z" /><glyph glyph-name="T" unicode="t" d="M32 597 Q17 597 12 605 Q6 616 3 629 Q0 641 14 641 L207 640 Q365 639 441 640 Q459 640 465 632 Q472 622 476 606 Q478 593 459 593 L261 594 Q263 339 259 19 Q259 9 247 5 Q234 -1 221 -2 Q209 -2 209 12 Q213 344 210 595 L32 597 Z" /><glyph glyph-name="U" unicode="u" d="M468 103 Q409 1 290 1 Q69 1 66 225 Q64 449 67 625 Q67 641 82 639 Q97 639 110 633 Q121 629 121 611 Q115 404 117 226 Q118 44 293 44 Q417 44 468 175 Q466 454 469 619 Q469 630 481 634 Q490 638 511 640 Q523 642 523 627 Q520 393 522 22 Q522 8 510 9 Q493 9 481 15 Q469 20 469 30 L468 103 Z" /><glyph glyph-name="V" unicode="v" d="M26 635 Q68 632 76 606 Q153 355 274 62 Q279 50 283 61 Q413 397 473 615 Q481 641 525 642 Q545 643 538 620 Q451 344 327 46 Q307 -3 282 -3 Q251 -3 230 44 Q122 287 12 611 Q2 637 26 635 Z" /><glyph glyph-name="W" unicode="w" d="M40 642 Q56 639 59 621 Q92 410 162 102 Q166 87 171 102 Q256 369 310 554 Q318 582 335 582 Q355 582 363 557 Q422 335 505 88 Q507 83 510 82 Q513 82 514 88 Q591 417 625 619 Q629 638 643 640 L668 642 Q684 642 679 619 Q632 392 549 41 Q540 3 518 3 Q485 3 470 48 Q389 296 339 490 Q336 498 334 490 Q268 257 198 38 Q188 6 158 3 Q139 3 133 30 Q39 411 3 622 Q0 642 13 642 L40 642 Z" /><glyph glyph-name="X" unicode="x" d="M524 33 Q540 13 521 8 Q515 6 497 3 Q478 1 468 14 L267 282 L64 14 Q56 3 37 3 Q21 5 11 7 Q-7 10 7 28 Q141 201 234 325 Q98 503 21 616 Q9 634 25 638 Q43 642 54 642 Q67 642 74 633 Q153 512 265 366 L461 631 Q470 644 485 642 Q491 642 512 639 Q529 635 517 619 Q415 480 297 323 L524 33 Z" /><glyph glyph-name="Y" unicode="y" d="M18 641 Q35 643 48 640 Q60 639 67 627 Q132 512 273 296 Q277 291 280 296 Q406 502 473 627 Q481 641 494 642 Q515 644 525 643 Q541 642 533 628 Q447 482 303 258 Q299 253 299 236 L302 23 Q302 7 294 4 Q281 -2 266 0 Q252 0 252 19 L253 233 Q253 247 245 259 Q95 483 9 625 Q0 641 18 641 Z" /><glyph glyph-name="Z" unicode="z" d="M55 636 Q132 635 244 636 L454 637 Q483 637 482 605 Q482 593 460 558 Q409 484 90 67 Q78 50 94 50 Q167 50 271 51 Q412 53 466 53 Q480 54 486 43 Q493 31 496 19 Q500 2 486 2 L48 2 Q19 2 18 31 Q17 47 49 90 Q408 569 411 574 Q421 587 406 587 L75 585 Q57 585 51 596 Q45 605 42 617 Q36 636 55 636 Z" /><glyph glyph-name="bracketleft" unicode="[" d="M334 -25 Q344 -25 346 -36 L349 -57 Q349 -68 339 -68 L124 -68 Q103 -68 103 -47 L102 783 Q102 805 123 805 L338 805 Q346 805 348 794 Q350 788 350 773 Q351 762 339 762 L158 761 Q149 761 149 750 L150 -15 Q150 -26 159 -26 L334 -25 Z" /><glyph glyph-name="backslash" unicode="\" d="M373 -27 Q378 -43 367 -44 Q354 -45 343 -43 Q330 -40 326 -30 Q283 86 177 366 Q78 629 27 768 Q20 785 33 787 Q42 788 59 786 Q71 783 76 771 L223 379 Q317 128 373 -27 Z" /><glyph glyph-name="bracketright" unicode="]" d="M231 -31 Q240 -31 240 -19 L242 745 Q242 756 232 756 L51 757 Q40 757 40 768 Q40 776 42 790 Q43 800 52 800 L267 800 Q289 800 289 778 L288 -52 Q288 -73 266 -73 L51 -73 Q41 -73 42 -61 Q42 -54 44 -40 Q47 -30 56 -30 L231 -31 Z" /><glyph glyph-name="asciicircum" unicode="^" d="M251 737 Q355 641 397 600 Q406 593 399 576 Q391 559 378 569 Q360 584 303 635 Q262 672 237 691 Q227 700 215 692 Q171 660 67 580 Q54 571 50 589 Q46 605 57 615 L204 738 Q229 756 251 737 Z" /><glyph glyph-name="underscore" unicode="_" d="M231 -43 Q417 -44 493 -43 Q510 -42 516 -50 Q524 -58 528 -73 Q530 -84 511 -84 L28 -81 Q14 -81 8 -74 Q2 -63 -1 -53 Q-4 -42 10 -42 L231 -43 Z" /><glyph glyph-name="grave" unicode="`" d="M79 832 Q88 833 95 825 Q119 787 210 656 Q217 644 201 641 Q192 640 186 646 Q141 704 50 815 Q38 829 56 831 L79 832 Z" /><glyph glyph-name="a" unicode="a" d="M462 441 Q424 142 489 22 Q502 -1 494 -7 Q486 -14 467 2 Q442 25 420 78 Q366 1 256 -1 Q154 -2 94 64 Q35 130 35 242 Q35 345 100 411 Q163 475 256 475 Q352 475 409 411 Q413 455 426 458 Q441 460 454 458 Q465 456 462 441 ZM83 242 Q82 150 133 96 Q182 44 262 46 Q349 49 396 106 Q412 125 409 159 Q402 252 407 328 Q408 352 392 372 Q346 431 263 431 Q184 430 135 380 Q84 328 83 242 Z" /><glyph glyph-name="b" unicode="b" d="M128 111 Q191 45 284 45 Q356 45 405 100 Q453 155 454 237 Q455 318 407 374 Q359 429 287 432 Q191 434 128 353 Q113 335 112 294 L112 165 Q112 128 128 111 ZM64 659 Q64 677 76 677 L101 674 Q114 671 114 657 Q115 575 113 395 Q189 479 295 476 Q383 474 440 410 Q499 343 499 237 Q499 132 438 64 Q379 -2 290 -2 Q184 -2 112 72 L112 17 Q112 4 100 1 Q84 -3 77 -3 Q64 -4 64 14 L64 659 Z" /><glyph glyph-name="c" unicode="c" d="M438 332 Q429 321 416 322 Q401 323 397 338 Q386 378 345 405 Q304 433 254 433 Q184 433 133 377 Q81 320 81 243 Q81 155 133 98 Q184 43 260 43 Q321 43 369 83 Q416 122 430 182 Q433 195 440 194 Q447 192 446 178 Q440 101 389 52 Q336 1 260 1 Q163 1 101 68 Q37 136 37 242 Q37 344 99 411 Q161 478 254 477 Q392 475 440 358 Q445 340 438 332 Z" /><glyph glyph-name="d" unicode="d" d="M255 431 Q180 430 130 371 Q80 313 81 228 Q82 148 130 96 Q178 44 252 44 Q345 44 407 109 Q423 126 424 162 Q424 262 423 294 Q422 336 407 354 Q346 433 255 431 ZM424 71 Q351 -2 245 -2 Q156 -2 97 61 Q36 126 36 228 Q36 337 98 406 Q158 473 248 475 Q356 476 422 395 L422 657 Q422 671 436 673 Q448 676 460 676 Q473 676 473 658 Q472 462 472 15 Q472 -2 458 -2 Q446 -1 435 2 Q424 5 424 17 L424 71 Z" /><glyph glyph-name="e" unicode="e" d="M428 230 Q340 226 94 226 Q84 226 84 215 Q87 140 135 91 Q185 39 262 40 Q382 40 429 148 Q434 160 442 158 Q449 156 446 141 Q432 77 380 37 Q329 -2 262 -2 Q157 -3 96 64 Q36 131 35 246 Q35 346 96 412 Q157 477 251 478 Q340 478 393 421 Q446 363 450 259 Q452 230 428 230 ZM250 438 Q179 438 132 390 Q87 344 83 278 Q82 265 91 265 Q150 264 391 268 Q399 268 400 271 Q401 273 400 284 Q386 438 250 438 Z" /><glyph glyph-name="f" unicode="f" d="M196 484 Q327 484 358 485 Q372 485 375 477 Q378 468 382 450 Q384 438 368 438 L196 438 L196 32 Q196 14 185 8 Q177 3 160 1 Q147 1 147 20 L148 231 Q148 375 149 438 L35 438 Q19 439 16 447 Q11 457 8 472 Q5 483 16 483 L149 483 L149 510 Q149 603 187 639 Q227 677 330 678 Q346 678 350 667 Q356 654 354 642 Q353 632 331 632 Q252 634 223 608 Q196 582 196 512 L196 484 Z" /><glyph glyph-name="g" unicode="g" d="M83 230 Q83 149 131 96 Q178 43 250 43 Q344 43 382 93 Q399 116 398 150 Q396 224 396 335 Q396 372 382 386 Q335 437 249 432 Q175 428 129 370 Q83 314 83 230 ZM400 60 Q356 0 244 0 Q156 0 97 64 Q36 129 36 230 Q36 335 93 403 Q151 471 244 475 Q342 478 399 425 Q399 462 411 466 Q419 470 434 472 Q448 472 448 458 L448 -29 Q448 -255 264 -255 Q106 -255 45 -88 Q37 -66 48 -60 Q59 -54 68 -74 Q134 -209 256 -209 Q400 -209 400 -30 L400 60 Z" /><glyph glyph-name="h" unicode="h" d="M107 387 Q163 474 270 474 Q346 474 389 435 Q433 395 434 319 L435 167 Q435 74 436 21 Q436 1 426 1 Q416 1 402 4 Q388 9 388 23 Q389 137 387 313 Q387 368 355 400 Q324 431 268 431 Q182 431 131 356 Q107 322 106 261 L106 18 Q106 6 97 3 L76 -1 Q62 -4 62 14 L62 665 Q62 678 72 678 Q88 676 95 674 Q107 670 107 655 L107 387 Z" /><glyph glyph-name="i" unicode="i" d="M95 606 Q63 606 63 638 Q63 670 95 670 Q127 670 127 638 Q127 606 95 606 ZM79 479 Q97 477 107 473 Q117 469 117 456 L118 25 Q118 9 105 5 Q93 0 80 0 Q68 0 68 15 Q69 145 69 463 Q69 479 79 479 Z" /><glyph glyph-name="j" unicode="j" d="M80 480 Q96 480 110 476 Q119 472 119 461 Q119 181 117 55 Q115 -63 80 -123 Q46 -183 -38 -220 Q-59 -230 -64 -222 Q-70 -214 -49 -200 Q16 -155 41 -100 Q67 -44 68 57 Q72 286 70 466 Q69 481 80 480 ZM95 609 Q63 609 63 641 Q63 673 95 673 Q127 673 127 641 Q127 609 95 609 Z" /><glyph glyph-name="k" unicode="k" d="M115 19 Q115 3 106 -1 Q99 -4 79 -6 Q67 -7 67 17 L64 655 Q64 674 77 674 Q90 674 103 669 Q113 666 113 651 Q113 381 114 233 Q142 256 269 354 Q366 429 413 470 Q420 477 429 477 Q440 479 469 479 Q479 478 481 473 Q483 467 475 461 Q397 400 280 311 Q318 260 390 167 Q460 77 502 21 Q518 1 496 -1 Q483 -3 470 -1 Q454 0 443 15 Q406 70 348 151 Q280 244 249 289 L114 189 L115 19 Z" /><glyph glyph-name="l" unicode="l" d="M80 677 Q93 676 106 670 Q117 666 117 651 Q118 457 118 22 Q118 12 107 6 Q91 0 81 0 Q69 -1 69 17 Q67 491 67 663 Q67 680 80 677 Z" /><glyph glyph-name="m" unicode="m" d="M500 476 Q637 476 638 345 Q640 133 638 11 Q638 -2 624 -2 Q606 -2 598 1 Q589 6 589 20 L590 339 Q590 431 495 431 Q442 431 399 379 Q372 347 372 293 Q371 209 371 25 Q371 12 358 12 Q341 12 334 15 Q325 19 325 34 Q327 230 327 313 Q326 427 237 427 Q177 427 135 377 Q114 353 114 298 L115 21 Q115 4 103 2 Q91 -2 76 -2 Q63 -2 64 16 L65 456 Q65 473 80 473 Q98 470 103 468 Q115 464 114 408 Q164 472 242 472 Q341 472 361 388 Q403 476 500 476 Z" /><glyph glyph-name="n" unicode="n" d="M109 400 Q176 476 276 476 Q346 476 387 439 Q428 402 429 338 Q433 100 433 16 Q433 -3 421 -3 Q409 -3 397 0 Q386 3 386 19 Q388 217 384 328 Q382 377 350 406 Q318 434 267 434 Q183 434 126 366 Q108 347 108 299 Q107 252 107 16 Q107 5 97 1 Q92 -2 75 -4 Q63 -4 63 12 Q63 268 64 459 Q64 475 75 473 Q86 473 98 469 Q109 465 109 452 L109 400 Z" /><glyph glyph-name="o" unicode="o" d="M37 236 Q37 336 102 406 Q167 476 259 476 Q351 476 416 406 Q481 336 481 236 Q481 137 416 67 Q351 -4 259 -4 Q167 -4 102 67 Q37 137 37 236 ZM84 237 Q84 154 134 96 Q185 39 259 39 Q332 39 383 96 Q433 154 433 237 Q433 320 383 377 Q332 435 259 435 Q185 435 134 377 Q84 320 84 237 Z" /><glyph glyph-name="p" unicode="p" d="M287 43 Q362 47 404 100 Q447 151 446 237 Q445 320 400 375 Q354 430 282 430 Q190 430 128 362 Q113 345 112 308 L112 170 Q113 129 128 111 Q189 36 287 43 ZM112 401 Q185 477 288 477 Q378 477 438 411 Q499 343 499 237 Q499 128 441 63 Q386 2 295 -2 Q184 -7 114 68 L114 -232 Q114 -246 101 -249 L76 -252 Q64 -252 64 -234 L64 459 Q64 477 77 476 Q89 476 101 473 Q112 468 112 457 L112 401 Z" /><glyph glyph-name="q" unicode="q" d="M408 371 Q351 434 259 434 Q185 434 134 382 Q82 329 82 250 Q82 163 128 104 Q175 44 249 44 Q351 44 408 116 Q423 134 424 174 L424 318 Q424 355 408 371 ZM472 -235 Q472 -253 460 -253 Q447 -253 436 -250 Q422 -247 422 -233 Q422 -10 423 74 Q352 -1 241 -1 Q151 -1 94 69 Q37 138 37 249 Q37 351 101 417 Q163 480 253 480 Q358 480 424 410 L424 461 Q424 473 436 476 Q447 480 459 480 Q472 481 472 464 L472 -235 Z" /><glyph glyph-name="r" unicode="r" d="M280 477 Q307 489 314 471 Q318 453 318 442 Q318 427 300 422 Q224 404 159 343 Q114 301 113 242 L112 17 Q112 3 99 0 Q87 -3 76 -3 Q62 -3 62 12 Q64 270 64 466 Q64 481 76 481 Q88 481 100 477 Q111 473 111 460 Q112 445 112 346 Q175 428 280 477 Z" /><glyph glyph-name="s" unicode="s" d="M387 390 Q382 380 372 376 Q361 371 353 380 Q300 436 216 436 Q85 436 83 358 Q83 315 113 295 Q146 273 236 261 Q324 249 361 218 Q397 188 397 127 Q395 -2 222 -1 Q111 -1 42 90 Q30 107 37 116 Q44 124 56 111 Q121 41 220 41 Q346 40 348 127 Q348 169 321 190 Q292 213 222 222 Q114 236 75 266 Q38 294 38 358 Q38 475 217 475 Q321 475 382 410 Q391 397 387 390 Z" /><glyph glyph-name="t" unicode="t" d="M184 125 Q184 79 200 60 Q217 40 257 40 Q322 40 354 93 Q362 107 369 101 Q375 95 368 77 Q342 -1 252 -1 Q188 -1 161 29 Q136 57 136 124 Q136 329 137 435 L23 434 Q12 434 9 442 Q4 455 3 466 Q0 476 11 476 Q95 476 137 477 L137 654 Q137 666 151 666 Q162 666 176 662 Q184 660 184 644 L184 477 Q306 477 348 478 Q362 479 366 470 Q370 459 372 445 Q374 434 361 434 Q313 435 184 435 L184 125 Z" /><glyph glyph-name="u" unicode="u" d="M378 67 Q310 -1 225 -1 Q145 -1 109 27 Q68 58 67 131 L64 455 Q64 472 77 473 Q88 473 100 470 Q113 468 112 451 Q112 316 114 138 Q114 43 233 43 Q305 43 352 96 Q379 127 379 181 L379 453 Q379 466 391 470 Q400 474 416 476 Q430 477 430 459 L429 18 Q429 -1 416 1 Q402 3 389 6 Q378 9 378 21 L378 67 Z" /><glyph glyph-name="v" unicode="v" d="M26 475 Q37 475 53 473 Q64 472 68 457 Q137 269 225 72 Q230 61 232 61 Q234 61 238 72 Q363 397 383 455 Q388 471 398 472 Q412 475 423 475 Q441 475 433 455 Q388 331 263 29 Q251 -1 232 -1 Q212 -1 199 29 Q91 264 15 458 Q9 475 26 475 Z" /><glyph glyph-name="w" unicode="w" d="M286 428 Q295 461 317 461 Q339 461 348 428 Q374 321 439 76 Q442 66 447 66 Q451 66 454 76 Q541 382 559 453 Q563 469 577 473 Q592 476 607 476 Q621 478 615 462 Q536 194 490 50 Q474 1 447 1 Q418 1 405 50 Q368 187 322 380 Q318 397 312 380 Q269 221 221 57 Q204 1 175 1 Q150 1 132 59 Q64 288 16 464 Q14 476 27 476 Q35 477 52 474 Q65 471 69 454 Q93 353 170 79 Q174 68 179 68 Q184 67 187 78 L286 428 Z" /><glyph glyph-name="x" unicode="x" d="M423 24 Q437 6 418 3 Q403 0 390 0 Q375 -1 365 12 L221 199 L75 15 Q64 0 51 0 Q34 0 24 2 Q5 5 20 25 Q136 168 192 236 Q64 401 24 456 Q13 471 28 473 Q48 475 56 475 Q67 475 76 463 Q116 407 222 274 Q295 362 371 464 Q378 474 390 474 Q400 475 415 473 Q432 471 420 456 Q368 386 252 238 L423 24 Z" /><glyph glyph-name="y" unicode="y" d="M212 6 Q87 287 17 457 Q10 473 23 474 Q49 474 53 473 Q70 470 75 456 Q126 313 237 57 Q329 268 401 451 Q409 472 423 475 Q432 477 451 477 Q468 476 460 455 Q398 307 248 -27 Q194 -147 144 -192 Q102 -231 31 -241 Q7 -244 7 -233 Q6 -223 29 -215 Q133 -181 208 -9 L213 3 L212 6 Z" /><glyph glyph-name="z" unicode="z" d="M208 470 Q320 469 369 470 Q396 470 396 455 Q396 430 371 399 Q323 340 226 226 Q133 117 83 56 Q72 43 87 43 Q126 43 218 45 Q331 47 368 47 Q383 48 388 36 L395 13 Q397 1 382 1 Q314 2 210 1 L53 1 Q26 1 23 21 Q21 48 37 70 Q82 127 181 243 Q279 357 326 418 Q334 427 322 427 L186 427 Q92 427 65 426 Q52 426 48 436 L41 456 Q38 470 50 470 L208 470 Z" /><glyph glyph-name="braceleft" unicode="{" d="M138 96 Q138 17 149 -1 Q159 -19 184 -26 Q196 -29 193 -41 Q192 -52 185 -60 Q179 -69 168 -66 Q128 -60 112 -29 Q94 5 94 86 L94 241 Q94 327 45 344 Q31 350 31 368 Q30 380 31 390 Q32 404 45 409 Q89 428 89 506 L94 649 Q92 731 109 765 Q126 800 170 801 Q187 801 191 791 Q196 778 195 767 Q195 754 178 754 Q141 754 138 688 L133 502 Q133 409 87 381 Q82 378 87 373 Q138 331 138 245 L138 96 Z" /><glyph glyph-name="bar" unicode="|" d="M159 -116 Q159 -127 149 -131 Q142 -134 123 -136 Q111 -136 111 -122 L111 806 Q111 824 125 823 Q140 821 148 818 Q159 814 159 803 L159 -116 Z" /><glyph glyph-name="braceright" unicode="}" d="M139 88 Q139 7 122 -27 Q106 -58 66 -64 Q54 -65 48 -58 Q41 -48 40 -39 Q39 -27 49 -23 Q76 -15 85 1 Q95 20 95 99 L95 248 Q95 335 147 376 Q153 381 147 384 Q101 411 101 505 L95 691 Q94 757 55 757 Q38 757 38 770 Q37 782 42 793 Q46 804 63 804 Q107 804 124 769 Q141 735 139 652 L145 509 Q145 429 189 412 Q200 408 202 393 Q203 385 203 370 Q201 351 189 347 Q139 330 139 243 L139 88 Z" /><glyph glyph-name="asciitilde" unicode="~" d="M324 395 Q387 349 428 349 Q466 349 522 461 Q526 470 537 468 Q547 466 562 458 Q569 455 564 446 Q489 304 431 304 Q379 304 301 360 Q218 420 192 420 Q148 420 81 312 Q76 305 67 307 Q52 309 41 318 Q34 322 39 330 Q124 466 190 466 Q229 466 324 395 Z" /><glyph glyph-name="uniB7" unicode="·" d="M277 421 Q297 422 312 408 Q326 393 326 373 Q326 353 312 338 Q297 324 277 324 Q257 324 243 338 Q229 353 229 373 Q229 393 243 407 Q257 421 277 421 Z" /><glyph glyph-name="quoteleft" unicode="&#x2018;" d="M371 848 Q397 858 402 851 Q406 843 382 831 Q298 789 284 701 Q287 702 292 702 Q315 702 330 686 Q346 671 346 648 Q346 626 330 610 Q315 594 292 594 Q253 594 241 630 Q233 652 236 683 Q249 803 371 848 Z" /><glyph glyph-name="quoteright" unicode="&#x2019;" d="M213 791 Q217 769 214 743 Q204 642 97 586 Q75 576 70 583 Q66 591 84 603 Q160 655 170 733 Q167 732 160 732 Q138 732 122 748 Q106 764 106 786 Q106 809 122 824 Q138 840 160 840 Q208 840 213 791 Z" /><glyph glyph-name="quotedblleft" unicode="&#x201c;" d="M361 824 Q277 783 263 693 Q265 694 271 694 Q293 694 309 678 Q325 663 325 641 Q325 619 309 603 Q294 587 271 587 Q235 587 222 619 Q211 639 215 676 Q228 795 350 841 Q376 851 381 843 Q385 835 361 824 ZM511 841 Q537 851 542 843 Q547 835 523 824 Q439 783 425 693 Q427 694 433 694 Q455 694 471 678 Q487 663 487 641 Q487 619 471 603 Q456 587 433 587 Q397 587 384 619 Q373 639 377 676 Q389 795 511 841 Z" /><glyph glyph-name="quotedblright" unicode="&#x201d;" d="M145 842 Q167 842 182 828 Q197 813 199 792 Q202 774 199 746 Q190 641 82 589 Q61 578 56 586 Q51 594 69 606 Q145 657 155 736 Q152 735 145 735 Q123 735 108 751 Q92 767 92 789 Q92 811 108 826 Q123 842 145 842 ZM362 795 Q366 772 363 746 Q352 641 246 589 Q224 578 219 586 Q215 594 233 606 Q309 658 319 736 Q316 735 309 735 Q287 735 271 751 Q255 767 255 789 Q255 811 271 826 Q287 842 309 842 Q357 842 362 795 Z" /><glyph glyph-name="ellipsis" unicode="&#x2026;" d="M160 280 Q136 280 120 297 Q103 314 103 337 Q103 361 120 378 Q136 394 160 394 Q183 394 200 378 Q217 361 217 337 Q217 314 200 297 Q183 280 160 280 ZM820 280 Q797 280 780 297 Q763 314 763 337 Q763 361 780 378 Q797 394 820 394 Q844 394 861 378 Q877 361 877 337 Q877 314 861 297 Q844 280 820 280 ZM497 280 Q473 280 457 297 Q440 313 440 337 Q440 360 457 377 Q473 394 497 394 Q520 394 537 377 Q554 360 554 337 Q554 313 537 297 Q520 280 497 280 Z" /><glyph glyph-name="uni3001" unicode="&#x3001;" d="M253 13 Q205 78 98 189 Q85 202 89 206 Q92 211 108 205 Q206 167 291 64 Q321 28 300 1 Q280 -25 253 13 Z" /><glyph glyph-name="uni3002" unicode="&#x3002;" d="M74 129 Q74 178 108 212 Q142 247 191 247 Q240 247 274 212 Q308 178 308 129 Q308 81 274 47 Q240 12 191 12 Q142 12 108 47 Q74 81 74 129 ZM109 131 Q109 95 132 71 Q155 47 191 47 Q226 47 250 71 Q273 95 273 131 Q273 166 250 190 Q226 213 191 213 Q155 213 132 190 Q109 166 109 131 Z" /><glyph glyph-name="uni300A" unicode="&#x300a;" d="M500 -23 Q492 -31 481 -36 Q470 -42 463 -28 Q333 249 287 353 Q275 378 288 410 Q344 539 459 793 Q466 807 478 799 Q489 794 496 785 Q503 776 499 768 Q410 582 326 396 Q319 380 326 363 Q399 205 501 -4 Q506 -16 500 -23 ZM364 -23 Q356 -31 345 -36 Q334 -42 327 -28 Q224 188 150 353 Q138 380 152 410 Q301 746 323 793 Q330 807 342 799 Q353 794 360 785 Q367 775 363 768 L190 396 Q183 381 190 363 Q249 231 365 -4 Q370 -14 364 -23 Z" /><glyph glyph-name="uni300B" unicode="&#x300b;" d="M72 -17 Q65 -10 70 1 Q198 262 245 369 Q253 386 246 402 L73 774 Q69 782 76 790 Q82 799 94 805 Q107 813 112 798 Q133 754 284 415 Q297 385 285 359 Q210 190 109 -23 Q102 -36 90 -30 Q80 -25 72 -17 ZM226 -17 Q218 -9 225 1 Q339 235 399 369 Q407 385 400 402 Q373 465 227 774 Q223 782 230 790 Q236 799 248 805 Q261 813 266 798 Q315 694 438 415 Q451 385 439 359 Q366 192 263 -23 Q256 -36 244 -30 Q234 -25 226 -17 Z" /><glyph glyph-name="uni3010" unicode="&#x3010;" d="M205 764 Q205 787 212 794 Q219 802 240 802 L474 802 Q511 802 481 769 Q324 597 324 383 Q324 172 476 -14 Q489 -30 487 -35 Q485 -40 465 -40 L238 -40 Q205 -40 205 -3 L205 764 Z" /><glyph glyph-name="uni3011" unicode="&#x3011;" d="M365 -4 Q365 -42 332 -42 L105 -42 Q85 -42 83 -36 Q81 -31 94 -16 Q246 170 246 382 Q246 597 89 768 Q58 801 96 801 L330 801 Q351 801 358 793 Q365 785 365 762 L365 -4 Z" /><glyph glyph-name="uni4E00" unicode="&#x4e00;" d="M675 428 Q842 440 894 449 Q920 453 936 431 Q957 397 927 397 Q811 394 101 345 Q81 344 71 360 Q58 384 73 385 L675 428 Z" /><glyph glyph-name="uni4E09" unicode="&#x4e09;" d="M585 680 Q682 689 719 697 Q737 701 749 679 Q764 650 740 650 Q685 648 556 638 Q370 624 262 617 Q247 617 239 632 Q228 655 241 655 Q425 666 585 680 ZM580 416 Q654 422 685 426 Q704 427 712 411 Q725 385 702 384 L306 355 Q287 354 279 368 Q265 391 286 392 L580 416 ZM666 143 Q831 155 881 164 Q909 168 923 146 Q945 112 915 112 Q750 110 98 59 Q79 58 69 74 Q55 98 71 99 L666 143 Z" /><glyph glyph-name="uni4E0A" unicode="&#x4e0a;" d="M498 434 Q496 224 498 99 L670 110 Q850 123 891 130 Q916 134 930 111 Q950 77 922 77 Q849 77 96 35 Q77 34 67 50 Q53 74 69 75 Q156 79 274 86 L454 96 Q452 224 453 424 Q453 622 452 686 Q450 756 446 789 Q445 803 447 806 Q449 809 460 806 Q480 801 496 790 Q505 783 504 761 Q501 727 501 677 Q501 625 499 473 Q647 483 688 487 Q756 494 773 500 Q793 507 806 485 Q826 452 801 452 Q825 452 500 434 L498 434 Z" /><glyph glyph-name="uni4E0B" unicode="&#x4e0b;" d="M460 654 Q93 635 122 636 Q104 635 94 651 Q81 675 96 676 Q446 692 661 708 Q832 721 871 728 Q895 731 908 708 Q927 675 899 675 Q802 674 500 657 L504 654 Q515 646 514 626 Q513 616 513 600 L512 573 Q510 515 510 478 Q514 479 526 478 Q635 461 750 375 Q785 348 773 322 Q762 295 727 324 Q650 392 520 462 L510 469 Q508 396 506 261 L502 24 Q502 -19 488 -47 Q471 -81 460 -48 Q452 -19 453 21 Q465 393 464 583 Q464 625 460 654 Z" /><glyph glyph-name="uni4E0D" unicode="&#x4e0d;" d="M489 487 Q501 475 507 452 Q511 437 513 405 Q516 226 511 40 Q510 -10 492 -37 Q478 -57 469 -32 Q463 -16 464 28 Q471 216 468 406 Q468 438 462 457 Q315 259 91 123 Q78 115 73 121 Q68 127 81 137 Q305 313 437 503 Q428 518 445 515 Q474 557 499 602 Q511 622 530 663 Q356 651 195 642 Q178 641 169 657 Q156 680 172 680 Q468 697 619 710 Q750 721 789 729 Q810 732 822 710 Q838 681 814 679 Q743 678 576 666 L579 663 Q587 654 580 639 Q534 560 486 490 L489 487 ZM876 239 Q916 207 904 179 Q894 156 857 186 Q726 297 574 398 Q555 411 557 416 Q560 422 581 414 Q713 365 876 239 Z" /><glyph glyph-name="uni4E0E" unicode="&#x4e0e;" d="M653 235 Q669 205 644 205 Q608 205 126 174 Q110 174 102 190 Q91 213 104 213 Q394 231 478 238 Q588 247 621 254 Q642 257 653 235 ZM375 624 Q420 628 517 635 Q609 641 656 645 Q727 651 764 655 Q782 658 790 640 Q803 614 780 613 Q581 597 378 586 L370 586 Q363 534 343 401 Q514 414 745 427 Q763 428 778 437 L783 439 Q788 442 795 438 Q808 431 821 420 Q830 411 824 400 Q818 389 815 371 Q808 328 789 196 Q771 74 760 8 Q753 -31 729 -44 Q701 -59 693 -38 Q692 -33 602 -2 Q591 2 592 6 Q593 11 605 10 Q708 0 709 12 Q738 168 764 385 Q512 371 313 356 L309 356 Q291 354 295 376 Q328 588 338 692 Q345 755 346 795 Q346 812 362 807 Q380 802 389 795 Q400 787 397 773 Q390 734 383 682 L375 624 Z" /><glyph glyph-name="uni4E13" unicode="&#x4e13;" d="M489 641 Q563 645 599 648 L722 657 Q741 658 749 642 Q762 616 739 615 Q762 617 480 600 L447 463 Q559 470 646 478 Q813 493 855 500 Q878 505 892 482 Q911 449 884 449 Q796 447 437 422 Q425 370 408 306 L657 321 Q675 323 686 328 Q687 329 690 329 Q696 333 705 326 Q716 319 727 304 Q735 294 725 284 Q580 129 510 70 Q536 53 600 1 Q637 -29 625 -55 Q615 -79 581 -48 Q469 53 326 147 Q308 159 311 164 Q313 169 332 162 Q406 139 486 86 Q597 208 654 277 Q464 268 371 260 Q363 260 360 264 Q355 268 358 285 L392 419 Q266 410 113 401 Q93 400 84 416 Q70 440 86 440 L402 460 L434 597 L274 588 Q254 587 245 601 Q237 614 239 619 Q240 623 253 625 Q317 630 443 638 L453 688 Q470 776 476 815 Q478 826 481 828 Q484 830 494 826 Q508 820 520 810 Q530 801 525 786 L489 641 Z" /><glyph glyph-name="uni4E14" unicode="&#x4e14;" d="M358 90 L639 99 L642 287 L361 274 Q361 203 359 95 L358 90 ZM359 611 Q360 593 360 556 L361 496 L608 509 Q636 511 646 511 L651 686 Q438 674 357 667 L359 611 ZM646 470 Q348 457 361 457 L361 313 L643 329 L646 470 ZM314 99 Q316 480 310 637 Q309 674 303 699 Q301 712 303 714 Q304 716 314 714 Q324 712 331 708 L634 729 Q650 729 662 737 L667 739 Q672 741 680 738 Q697 731 708 723 Q718 714 712 696 Q705 674 702 636 Q703 650 684 101 Q861 109 902 115 Q928 117 943 95 Q963 61 934 61 Q787 64 93 39 Q72 39 64 55 Q51 79 67 80 L314 88 L314 99 Z" /><glyph glyph-name="uni4E1A" unicode="&#x4e1a;" d="M621 259 Q613 252 608 257 Q603 261 610 271 Q759 468 781 509 Q792 530 798 551 Q803 564 815 558 Q831 550 844 539 Q854 529 846 517 Q722 338 621 259 ZM302 270 Q272 327 164 470 Q154 483 158 487 Q161 491 175 483 Q265 427 339 309 Q361 273 341 253 Q321 233 302 270 ZM670 103 Q844 116 884 123 Q907 127 921 104 Q942 71 913 71 L120 29 Q101 28 91 44 Q78 68 94 69 L395 85 Q393 190 391 368 L388 595 Q387 643 382 688 Q380 702 382 704 Q384 707 394 704 Q410 700 429 689 Q438 682 437 662 Q435 619 436 586 L436 364 Q437 207 439 88 L555 95 Q554 214 556 407 L557 655 Q557 700 552 755 Q551 769 553 772 Q556 775 566 772 Q586 766 603 755 Q611 749 610 727 Q606 683 606 646 Q599 145 599 98 L670 103 Z" /><glyph glyph-name="uni4E1C" unicode="&#x4e1c;" d="M325 255 Q336 265 341 263 Q346 260 341 248 Q298 149 179 61 Q130 23 122 59 Q117 81 143 100 Q235 165 325 255 ZM589 382 Q716 388 755 394 Q775 397 786 373 Q801 344 776 344 Q735 345 527 339 Q527 109 524 -3 Q523 -41 501 -59 Q474 -79 464 -59 Q462 -53 349 -23 Q338 -21 339 -15 Q340 -10 351 -10 Q474 -14 476 -2 Q480 157 482 337 L269 330 Q247 330 224 321 Q202 313 190 352 Q187 360 190 364 Q192 369 196 370 Q225 379 248 417 Q285 479 351 599 Q172 590 162 589 Q144 588 136 604 Q124 626 138 627 Q266 633 372 639 L420 735 Q438 774 450 819 Q454 836 468 831 Q485 827 498 819 Q510 812 503 796 Q464 712 427 642 Q617 655 624 655 Q768 665 806 671 Q827 675 840 653 Q858 623 832 623 Q751 622 407 603 Q357 508 274 370 L482 378 L482 490 Q480 525 477 538 Q475 553 492 548 Q512 543 526 534 Q536 528 533 513 Q529 485 529 467 Q528 440 528 380 L589 382 ZM847 130 Q877 102 860 78 Q846 54 818 85 Q767 144 648 243 Q635 253 638 258 Q640 263 655 258 Q753 226 847 130 Z" /><glyph glyph-name="uni4E22" unicode="&#x4e22;" d="M505 355 Q660 365 668 366 Q823 376 888 385 Q912 389 926 366 Q947 333 918 333 Q822 334 472 313 Q483 300 485 296 Q493 283 481 271 Q386 153 300 67 Q465 94 673 117 Q655 142 588 229 Q576 245 580 249 Q584 253 599 242 Q706 165 792 31 Q817 -8 797 -30 Q780 -50 758 -11 Q734 31 691 92 Q604 73 460 48 Q330 25 272 12 Q247 6 223 -6 Q210 -12 204 -2 Q194 12 187 34 Q184 46 195 49 Q238 59 265 89 Q343 172 407 260 Q424 284 438 311 Q209 297 98 291 Q78 291 69 307 Q55 331 72 331 Q247 341 460 352 L461 488 L264 476 Q245 474 235 489 Q221 511 243 512 Q311 518 462 528 Q463 560 463 615 Q463 633 461 667 Q360 643 264 635 Q244 633 243 640 Q242 647 262 652 Q447 696 546 734 Q613 760 662 791 Q673 798 681 790 Q691 781 700 765 Q707 751 691 745 L636 723 Q597 707 565 697 Q544 690 502 678 L507 676 Q515 671 514 655 L511 607 L509 531 L702 546 Q721 547 729 531 Q742 505 719 504 L508 491 L505 355 Z" /><glyph glyph-name="uni4E24" unicode="&#x4e24;" d="M577 531 L578 546 Q584 609 582 683 L414 675 Q421 670 418 656 L406 523 L577 531 ZM763 540 Q783 541 798 548 L803 550 Q809 553 815 550 Q825 547 838 538 Q848 530 844 518 Q838 506 837 485 Q835 431 834 267 Q833 113 830 31 Q830 -4 808 -19 Q782 -38 773 -18 L656 12 Q645 15 646 20 Q647 25 658 25 Q782 21 783 32 Q791 224 791 499 L619 491 Q607 399 592 343 Q670 300 737 212 Q759 183 742 164 Q725 143 705 175 Q680 214 586 322 Q545 191 444 88 Q432 76 426 80 Q420 84 430 97 Q545 258 572 489 Q508 487 401 481 Q391 408 378 361 Q435 347 484 293 Q505 271 490 252 Q474 231 455 257 Q438 281 373 342 Q338 218 247 117 Q236 105 231 109 Q225 113 233 126 Q327 272 356 479 L196 470 Q196 454 197 444 Q201 267 198 60 Q198 18 186 -5 Q170 -34 160 -6 Q151 18 152 48 Q156 283 150 456 Q148 488 142 508 Q137 527 153 521 Q168 517 180 511 L361 520 L364 554 Q368 600 368 673 L197 666 Q180 666 172 682 Q159 706 175 706 Q447 715 620 726 Q740 733 789 740 Q809 744 822 721 Q839 690 813 690 Q720 690 630 685 Q635 680 633 665 L623 533 L763 540 Z" /><glyph glyph-name="uni4E25" unicode="&#x4e25;" d="M553 702 L434 695 Q436 695 447 689 Q455 685 455 670 Q454 658 454 628 L456 424 L555 430 L556 546 Q557 611 556 641 Q556 668 553 696 L553 702 ZM666 438 Q785 447 828 455 Q849 459 862 436 Q878 406 853 406 Q783 405 625 395 Q374 378 261 372 Q258 301 256 268 Q246 139 201 64 Q156 -11 53 -70 Q39 -78 35 -73 Q30 -68 42 -58 Q193 70 208 271 Q213 338 209 412 Q208 432 223 428 Q242 423 253 416 Q257 414 259 412 L412 421 L408 634 Q407 652 403 688 L402 694 Q292 688 237 686 Q217 686 208 700 Q200 713 202 718 Q203 722 217 723 Q414 733 640 749 L791 762 Q810 765 818 748 Q830 724 808 721 Q737 715 579 704 Q586 702 598 696 Q605 691 605 676 Q603 652 603 634 Q602 617 600 433 L666 438 ZM359 484 Q342 462 322 491 Q304 517 232 596 Q214 614 239 609 Q302 592 355 528 Q376 503 359 484 ZM767 662 Q788 648 794 641 Q804 631 795 620 Q694 513 635 481 Q627 476 623 482 Q618 487 625 494 Q722 606 738 632 L751 657 Q757 670 767 662 Z" /><glyph glyph-name="uni4E2A" unicode="&#x4e2a;" d="M500 537 Q511 531 510 511 L509 264 Q509 142 507 59 Q507 -12 490 -59 Q479 -92 471 -58 Q460 -8 462 55 Q462 339 461 449 Q460 495 458 530 Q457 544 459 546 Q461 548 474 545 Q491 542 500 537 ZM945 390 Q960 382 960 379 Q961 375 948 370 Q939 367 927 358 Q914 349 908 346 Q891 339 875 350 Q637 493 492 698 Q461 654 410 590 Q253 398 76 291 Q55 278 50 285 Q46 291 64 305 Q253 461 371 616 Q455 726 501 812 Q508 826 521 820 Q538 810 546 803 Q557 792 548 779 L508 721 Q656 546 822 449 L945 390 Z" /><glyph glyph-name="uni4E2D" unicode="&#x4e2d;" d="M738 374 Q746 475 756 582 Q602 575 517 569 L516 361 L738 374 ZM468 358 L467 567 L353 560 Q283 556 242 553 Q244 543 244 539 Q251 468 260 347 L468 358 ZM734 623 Q752 623 767 631 Q771 633 773 633 Q780 635 785 632 Q798 627 808 619 Q817 611 812 596 Q806 583 804 564 Q800 540 782 367 L786 359 Q792 343 789 339 Q787 334 771 334 L516 321 Q516 181 515 108 Q513 9 496 -55 Q485 -99 477 -55 Q465 10 467 102 L468 318 Q401 314 263 308 L264 287 Q265 272 250 262 Q230 250 226 258 Q223 267 220 285 L208 425 Q200 515 195 551 Q193 569 186 589 Q179 604 195 603 Q213 602 228 594 L230 593 Q408 604 466 607 L465 691 Q464 770 461 804 Q460 821 462 823 Q464 826 478 822 Q494 818 508 811 Q519 806 519 780 Q518 767 518 737 L517 610 L734 623 Z" /><glyph glyph-name="uni4E30" unicode="&#x4e30;" d="M515 305 L660 316 Q825 327 870 335 Q897 339 912 317 Q934 284 904 284 Q772 284 515 266 L512 102 Q510 2 493 -62 Q480 -106 474 -62 Q463 7 465 96 L467 263 L104 235 Q85 234 76 249 Q61 273 78 274 Q127 278 468 302 L469 426 L295 416 Q276 415 268 429 Q254 451 275 452 Q338 458 469 466 L469 583 L242 569 Q221 568 212 583 Q204 597 205 601 Q207 605 221 606 L469 624 L469 700 Q468 764 466 814 Q464 830 467 832 Q469 835 482 831 Q495 829 511 820 Q522 815 522 789 Q520 737 520 698 L519 627 L746 646 Q765 647 773 631 Q787 605 763 604 L518 586 L517 469 L692 483 Q710 486 718 469 Q730 443 708 442 Q644 437 516 429 L515 305 Z" /><glyph glyph-name="uni4E3A" unicode="&#x4e3a;" d="M355 603 Q327 643 256 713 Q238 732 263 727 Q329 712 388 643 Q409 618 394 597 Q376 572 355 603 ZM629 230 Q602 262 512 342 Q502 350 505 354 Q507 358 518 356 Q591 338 658 271 Q682 247 668 226 Q653 203 629 230 ZM827 563 Q836 554 830 542 Q822 525 820 507 Q812 453 791 279 Q771 119 758 32 Q751 -10 727 -23 Q699 -41 691 -19 Q690 -15 575 22 Q564 25 565 30 Q566 35 578 34 Q704 23 707 35 Q740 243 770 530 L518 511 Q477 331 388 211 Q297 88 131 -7 Q106 -20 101 -15 Q96 -10 119 6 Q390 199 464 507 Q313 494 201 487 Q186 486 174 507 Q165 524 166 529 Q168 533 182 533 Q224 535 474 550 L486 619 Q499 709 501 814 Q501 837 517 832 Q530 828 549 818 Q560 811 557 789 L548 706 Q542 650 537 616 L532 585 Q528 563 527 554 L755 571 Q776 574 783 578 Q792 586 801 581 Q819 570 827 563 Z" /><glyph glyph-name="uni4E3B" unicode="&#x4e3b;" d="M510 641 Q480 696 409 788 Q400 799 403 803 Q406 806 418 801 Q490 767 547 679 Q567 648 549 629 Q528 606 510 641 ZM668 79 Q827 88 885 96 Q911 100 925 76 Q943 43 916 43 Q817 45 101 9 Q82 8 72 25 Q58 49 75 49 Q224 56 471 69 Q470 150 470 293 L280 282 Q260 281 252 296 Q244 310 245 314 Q247 318 260 319 L366 326 Q434 330 470 333 L470 451 Q468 502 465 529 Q353 522 245 518 Q229 518 222 534 Q211 557 224 558 Q430 566 596 577 Q706 586 740 592 Q759 596 770 574 Q785 544 761 544 Q696 543 509 531 L514 528 Q522 523 521 505 L518 443 Q518 375 517 336 L588 341 Q698 349 705 350 Q724 351 732 335 Q744 309 722 308 Q653 303 517 295 Q516 228 516 71 L668 79 Z" /><glyph glyph-name="uni4E3D" unicode="&#x4e3d;" d="M365 304 Q350 283 331 308 Q309 337 238 402 Q230 409 232 413 Q234 416 244 414 Q304 402 358 344 Q377 322 365 304 ZM446 580 Q456 574 452 562 Q446 547 446 530 Q445 470 445 306 Q446 145 444 64 Q443 32 424 18 Q398 0 391 18 Q389 21 323 43 Q312 46 313 51 Q314 55 325 55 Q398 54 399 65 Q406 260 402 543 Q264 534 229 531 L229 500 Q231 301 227 72 Q227 31 215 5 Q199 -23 190 4 Q182 30 183 59 Q190 319 185 512 Q185 544 178 568 Q174 585 190 580 L213 571 L385 582 Q399 583 409 591 Q411 593 417 593 Q419 594 425 592 Q436 588 446 580 ZM730 315 Q716 293 695 319 Q668 354 592 419 Q583 426 585 430 Q587 433 597 431 Q662 418 722 355 Q743 332 730 315 ZM810 603 Q819 597 815 584 Q809 569 809 551 Q807 487 807 314 Q808 143 805 57 Q805 25 785 10 Q760 -10 752 10 Q750 13 678 37 Q667 40 668 45 Q669 49 680 49 Q760 47 760 58 Q767 240 765 566 Q666 562 574 554 Q575 543 575 518 Q577 314 573 76 Q572 29 560 7 Q545 -24 535 6 Q528 29 529 62 Q536 332 531 530 Q529 563 524 588 Q519 605 535 601 Q544 598 555 593 L654 600 Q713 603 747 606 Q758 606 771 614 Q776 617 780 616 Q782 617 788 615 Q802 610 810 603 ZM892 731 Q910 700 883 700 Q802 699 597 688 Q322 673 133 666 Q114 665 105 681 Q93 704 108 704 Q429 717 653 732 Q809 743 858 750 Q879 754 892 731 Z" /><glyph glyph-name="uni4E3E" unicode="&#x4e3e;" d="M479 660 Q466 696 412 789 Q398 813 422 800 Q481 768 518 691 Q532 662 514 646 Q491 628 479 660 ZM332 604 Q309 643 239 722 Q231 731 234 735 Q236 738 247 735 Q314 712 366 641 Q386 614 369 596 Q351 575 332 604 ZM606 220 Q719 229 754 235 Q775 239 787 218 Q803 188 779 188 Q682 187 520 175 Q520 95 519 53 Q517 -16 502 -54 Q490 -85 484 -54 Q475 -14 475 49 L475 172 L235 156 Q219 155 211 170 Q200 193 213 194 L475 211 L475 319 Q484 320 357 313 Q341 312 334 325 Q322 347 340 348 Q333 347 474 357 L474 398 Q474 435 472 471 Q471 484 473 486 Q475 488 487 486 Q500 483 511 478 Q521 474 521 453 L521 360 L554 363 Q608 367 635 371 Q651 372 659 357 Q670 334 650 331 Q607 327 521 321 L520 214 L606 220 ZM641 577 Q809 593 839 598 Q863 603 877 581 Q898 550 869 550 Q773 549 589 533 Q701 401 825 334 Q819 337 933 288 Q956 278 936 270 Q927 266 915 258 Q903 248 897 245 Q884 239 868 248 Q674 357 563 526 L560 531 L421 519 Q425 509 418 500 Q265 281 78 207 Q62 200 59 206 Q55 213 72 223 Q262 341 369 515 L126 495 Q108 494 99 509 Q85 532 101 533 Q396 556 554 569 Q664 753 669 764 Q676 777 682 803 Q686 817 697 812 Q716 802 726 794 Q737 786 729 774 Q647 636 584 572 L641 577 Z" /><glyph glyph-name="uni4E48" unicode="&#x4e48;" d="M526 726 Q357 479 152 353 Q140 346 136 352 Q131 357 142 367 Q353 553 452 710 Q465 729 482 765 Q487 779 499 771 Q518 758 526 749 Q535 739 526 726 ZM719 139 Q631 118 466 83 Q326 53 258 35 Q227 27 205 15 Q194 8 187 17 Q175 33 168 55 Q167 57 167 60 Q166 70 177 73 Q232 87 283 142 Q457 335 602 536 Q639 588 667 644 Q676 664 689 651 Q702 642 715 623 Q725 609 712 592 Q501 310 297 95 Q491 133 703 163 L613 294 Q601 312 606 316 Q610 320 626 307 Q738 218 820 73 Q845 31 822 8 Q802 -10 782 32 Q757 80 719 139 Z" /><glyph glyph-name="uni4E49" unicode="&#x4e49;" d="M444 586 Q426 627 353 729 Q345 740 348 744 Q352 747 363 741 Q434 706 484 621 Q501 589 482 572 Q459 551 444 586 ZM895 21 Q916 10 916 6 Q916 1 894 -1 Q884 -2 873 -8 L854 -17 Q837 -22 816 -11 Q608 93 470 226 Q346 80 121 7 Q92 -3 89 5 Q85 12 112 24 Q328 124 437 259 Q347 354 261 489 Q237 529 219 541 Q205 551 205 565 Q203 593 226 581 Q255 564 292 511 Q380 382 466 298 Q508 357 544 438 Q621 618 642 725 Q645 741 661 735 Q678 730 691 719 Q701 712 695 694 Q625 500 589 419 Q550 332 501 265 Q597 178 734 101 Q727 105 895 21 Z" /><glyph glyph-name="uni4E4B" unicode="&#x4e4b;" d="M481 647 Q459 687 378 779 Q369 789 372 793 Q375 797 387 793 Q462 767 519 687 Q540 657 522 637 Q500 615 481 647 ZM232 207 Q426 343 660 546 Q157 483 185 486 Q170 484 159 505 Q150 522 151 527 Q152 531 166 532 Q367 550 680 592 Q699 594 709 602 Q717 606 719 606 Q728 609 736 601 Q747 589 755 574 Q763 561 750 551 Q415 288 266 194 Q274 191 303 175 Q466 86 720 64 Q755 61 822 59 Q894 57 934 54 Q955 53 956 47 Q956 41 936 34 Q925 31 912 19 Q895 5 888 1 Q873 -8 849 -6 Q471 29 286 142 Q230 177 193 175 Q157 174 85 134 Q63 122 50 141 Q35 164 62 175 Q172 222 231 206 L232 207 Z" /><glyph glyph-name="uni4E4E" unicode="&#x4e4e;" d="M572 438 Q563 433 559 438 Q555 443 562 451 Q680 588 702 625 Q711 639 718 656 Q724 669 734 662 Q757 646 762 640 Q772 630 763 619 Q652 487 572 438 ZM357 443 Q333 482 250 573 Q241 583 244 587 Q247 591 258 586 Q331 559 390 481 Q412 454 395 435 Q377 414 357 443 ZM658 402 Q819 414 869 423 Q895 427 909 404 Q931 371 901 371 Q771 370 512 350 Q512 152 508 5 Q508 -35 486 -53 Q458 -76 449 -53 Q446 -45 348 -17 Q337 -14 338 -9 Q339 -3 350 -4 Q460 -6 460 6 Q464 165 466 347 Q293 333 105 320 Q86 319 76 335 Q62 359 78 360 Q343 378 466 388 Q468 522 466 639 Q466 663 463 685 Q370 658 266 645 Q246 643 246 650 Q245 657 264 662 Q457 718 544 756 Q605 783 660 820 Q671 828 680 819 Q689 810 699 794 Q706 779 690 774 L635 749 Q595 730 564 718 L499 696 L509 690 Q518 683 517 667 Q514 643 514 612 Q513 578 513 508 L512 391 L658 402 Z" /><glyph glyph-name="uni4E4F" unicode="&#x4e4f;" d="M216 615 Q196 612 195 619 Q194 626 213 632 Q405 692 499 736 Q565 768 618 807 Q629 814 638 806 Q647 799 657 782 Q665 769 650 762 Q635 756 593 734 Q553 713 521 700 Q364 638 216 615 ZM375 627 Q437 608 483 542 Q501 515 485 498 Q464 476 447 506 Q427 543 367 614 Q360 623 362 627 Q365 630 375 627 ZM926 49 Q948 48 948 43 Q949 37 929 30 Q918 26 905 15 Q888 1 882 -3 Q867 -13 845 -11 Q475 12 303 105 Q249 134 214 132 Q178 129 108 89 Q87 77 73 96 Q58 118 84 130 Q195 179 258 163 Q452 297 642 458 Q578 450 404 426 Q255 406 181 397 Q167 395 157 415 Q148 431 149 435 Q150 439 162 440 Q371 461 664 502 Q683 505 690 510 Q695 513 698 513 Q706 516 714 508 Q721 501 733 482 Q740 469 727 460 Q433 237 292 150 Q306 146 319 138 Q477 63 719 52 Q750 51 818 51 Q884 51 926 49 Z" /><glyph glyph-name="uni4E50" unicode="&#x4e50;" d="M323 280 Q333 291 339 289 Q344 286 339 273 Q304 175 187 79 Q140 39 130 75 Q123 98 149 118 Q233 182 323 280 ZM609 426 Q742 432 771 437 Q791 440 802 417 Q817 388 791 388 Q730 388 530 381 Q530 136 527 17 Q525 -24 504 -40 Q478 -61 467 -40 Q465 -34 351 -4 Q340 -1 341 5 Q342 10 354 10 Q477 7 479 19 Q483 189 485 379 L276 370 Q254 370 231 361 Q209 353 196 392 Q192 402 198 405 L200 406 Q222 415 229 441 Q259 536 280 629 Q286 665 287 685 Q287 701 301 698 Q321 695 335 688 Q343 684 343 674 Q505 721 603 773 Q638 792 652 803 Q663 811 672 806 Q693 792 699 783 Q710 769 694 763 Q499 674 338 652 Q305 521 271 410 L485 420 L485 561 Q483 598 480 612 Q476 628 495 623 Q512 619 529 608 Q540 601 537 586 Q532 561 532 536 Q531 502 531 422 L609 426 ZM851 139 Q881 109 866 84 Q850 60 822 92 Q758 168 637 265 Q624 276 626 281 Q629 285 645 280 Q743 249 851 139 Z" /><glyph glyph-name="uni4E5F" unicode="&#x4e5f;" d="M450 479 Q433 473 370 448 L291 417 Q287 272 291 171 Q294 77 413 67 Q622 51 807 71 Q852 75 867 83 Q881 91 883 109 Q885 124 889 175 Q893 219 897 245 Q900 262 907 262 Q913 262 913 243 Q914 110 933 90 Q955 68 932 51 Q901 29 816 22 Q622 5 410 20 Q324 26 285 62 Q247 98 243 170 Q241 211 244 399 L118 351 Q102 345 89 363 Q78 380 78 384 Q78 388 91 392 L245 447 L245 494 Q243 559 241 589 Q238 610 255 604 Q275 599 289 590 Q301 582 298 566 Q293 534 293 494 L292 465 Q323 476 372 495 L450 524 Q452 666 452 718 Q452 760 450 800 Q449 814 451 817 Q453 819 466 816 Q486 810 493 806 Q503 801 502 780 Q501 770 501 749 L497 542 L660 606 Q678 614 687 625 Q693 633 700 633 Q704 634 710 631 Q722 625 734 615 Q744 608 738 598 Q731 588 730 573 Q725 541 713 443 Q701 351 693 303 Q686 268 665 257 Q636 244 631 262 Q629 267 559 292 Q549 296 550 300 Q551 305 562 304 Q643 297 644 307 Q660 390 680 570 L496 498 Q494 378 492 316 Q490 244 473 196 Q462 162 454 197 Q445 244 447 312 L450 479 Z" /><glyph glyph-name="uni4E60" unicode="&#x4e60;" d="M621 412 Q636 422 641 415 Q646 409 633 398 Q510 298 211 131 Q195 122 185 130 Q170 143 160 158 Q150 173 166 177 Q180 180 206 190 Q394 279 621 412 ZM450 440 Q412 486 299 586 Q288 596 290 600 Q292 605 306 600 Q394 572 480 484 Q507 457 492 434 Q477 410 450 440 ZM761 748 Q772 739 766 725 Q759 708 758 683 Q753 602 743 378 Q733 158 725 45 Q722 3 699 -14 Q671 -34 661 -12 Q658 -6 540 29 Q529 32 530 37 Q531 43 543 42 Q673 34 674 47 Q696 366 707 715 Q615 710 459 700 L231 686 Q216 685 206 707 Q197 724 198 729 Q199 733 213 732 Q414 739 689 757 Q708 758 717 764 Q720 766 726 766 Q729 767 735 765 Q751 758 761 748 Z" /><glyph glyph-name="uni4E66" unicode="&#x4e66;" d="M659 755 Q649 763 651 767 Q653 771 665 769 Q741 752 812 683 Q837 658 823 637 Q808 614 784 641 Q751 680 659 755 ZM463 560 L463 390 Q525 395 619 404 Q622 438 629 492 L638 577 L463 560 ZM750 417 Q768 419 780 426 Q785 429 788 429 Q794 432 801 428 Q816 421 826 412 Q835 403 829 394 Q822 382 821 371 Q817 348 803 251 Q791 169 782 122 Q775 87 753 76 Q724 63 718 82 Q717 86 626 115 Q615 119 616 123 Q617 128 629 127 Q730 118 733 127 Q756 252 771 379 L463 349 L463 34 Q463 -17 450 -48 Q443 -67 435 -67 Q427 -67 422 -49 Q414 -15 415 31 Q417 132 419 345 Q264 329 152 319 Q136 318 125 338 Q117 355 118 359 Q119 363 133 363 Q267 372 419 386 L419 556 Q342 548 254 541 Q241 540 232 559 Q225 575 226 579 Q227 583 238 583 Q295 586 419 596 Q419 688 418 729 Q418 772 413 815 Q411 836 426 831 Q446 823 458 815 Q468 806 467 783 Q466 772 466 753 L465 719 Q464 682 464 600 L625 614 Q642 617 648 621 Q659 628 666 620 Q677 615 687 607 Q695 600 690 586 Q685 574 682 557 Q673 507 663 408 L750 417 Z" /><glyph glyph-name="uni4E70" unicode="&#x4e70;" d="M217 662 Q202 661 192 681 Q184 698 185 702 Q186 706 199 706 Q411 715 727 738 Q744 739 756 746 Q764 751 770 748 Q776 746 779 744 Q796 735 809 720 Q824 705 810 696 Q794 686 784 675 Q751 638 700 567 Q685 553 679 557 Q674 561 681 580 L738 698 L467 679 Q305 667 217 662 ZM283 597 Q274 604 276 608 Q277 612 288 610 Q357 599 416 541 Q438 519 425 498 Q410 476 388 501 Q362 531 283 597 ZM189 461 Q179 468 180 472 Q181 477 193 475 Q269 467 347 411 Q374 390 363 367 Q351 342 324 367 Q279 405 189 461 ZM810 22 Q846 -9 832 -35 Q820 -61 788 -27 Q690 71 549 163 Q532 174 535 179 Q538 183 556 178 Q680 140 810 22 ZM647 332 Q803 343 844 351 Q868 355 881 333 Q902 301 873 301 Q787 300 504 281 Q423 67 138 -44 Q113 -54 110 -47 Q106 -41 129 -29 Q373 95 451 278 L140 257 Q121 256 112 271 Q98 295 114 295 Q317 307 467 319 Q487 379 495 441 Q507 525 507 622 Q507 643 522 639 Q537 635 552 625 Q563 618 560 600 Q557 580 552 524 Q547 469 543 437 Q534 373 518 322 L647 332 Z" /><glyph glyph-name="uni4E71" unicode="&#x4e71;" d="M434 242 Q267 232 212 227 L219 68 L426 80 Q428 141 434 242 ZM389 467 Q493 475 519 481 Q539 484 549 463 Q563 434 540 434 Q471 433 345 425 L342 277 L417 282 Q432 283 442 291 Q448 296 453 294 Q455 294 461 292 Q476 285 483 281 Q491 273 487 260 Q483 250 481 231 L470 79 Q473 77 477 66 Q482 51 480 46 Q478 42 466 41 Q432 40 346 35 L220 29 L220 19 Q220 5 206 -2 Q186 -13 183 -5 Q179 4 178 19 L173 128 Q170 199 167 227 Q164 247 160 260 Q154 275 168 273 Q182 272 193 267 L299 274 L300 422 Q153 413 74 409 Q60 409 52 424 Q41 447 54 447 Q245 457 301 461 L302 575 Q302 608 299 639 Q232 617 174 608 Q158 606 157 612 Q156 619 170 624 Q311 679 357 704 Q401 728 437 758 Q446 766 455 758 Q466 748 475 734 Q485 720 469 715 Q458 710 429 694 Q401 678 379 669 Q345 655 327 649 Q335 646 344 641 Q352 636 351 619 L348 568 L346 464 L389 467 ZM943 79 Q964 56 946 41 Q927 24 875 19 Q794 11 710 18 Q608 28 605 157 Q602 253 604 421 Q606 607 605 658 Q605 727 601 775 Q599 796 615 792 Q638 783 647 776 Q658 768 656 750 Q652 713 650 658 Q645 324 650 159 Q653 71 716 65 Q791 59 863 67 Q901 72 903 96 L912 188 Q915 205 921 205 Q926 204 927 186 Q929 91 943 79 Z" /><glyph glyph-name="uni4E86" unicode="&#x4e86;" d="M795 718 Q802 707 792 698 Q613 529 522 462 Q537 434 545 391 Q573 208 547 23 Q540 -21 517 -39 Q487 -64 479 -36 Q476 -25 330 11 Q314 15 315 22 Q316 29 331 27 Q446 16 470 16 Q494 15 496 26 Q523 205 500 384 Q492 450 437 534 Q417 564 422 568 Q426 572 452 547 Q488 512 508 486 Q653 626 716 693 L219 656 Q204 655 193 676 Q185 693 186 698 Q187 702 201 701 Q390 710 727 735 Q743 736 753 742 Q763 752 774 742 Q786 732 795 718 Z" /><glyph glyph-name="uni4E89" unicode="&#x4e89;" d="M662 265 Q664 308 670 384 L495 374 Q494 336 494 255 L662 265 ZM495 414 Q649 423 672 425 L676 477 Q678 510 680 528 L496 518 Q497 515 497 506 Q496 492 496 460 L495 414 ZM709 578 Q720 574 735 565 Q745 557 738 541 Q731 527 728 506 L720 428 Q845 437 891 443 Q915 447 928 425 Q949 392 920 392 Q835 392 716 386 Q710 313 708 265 Q714 263 718 250 Q724 234 722 229 Q719 225 704 224 Q647 222 494 214 Q494 106 491 7 Q490 -34 468 -50 Q440 -73 430 -50 Q427 -43 333 -16 Q322 -13 323 -7 Q324 -2 335 -2 Q440 -4 442 8 Q444 73 446 211 Q258 202 247 202 Q226 201 221 216 Q215 232 217 236 Q220 240 234 241 L446 252 Q447 292 447 371 Q203 358 110 354 Q90 353 82 369 Q69 392 84 393 Q295 402 447 411 L447 484 Q447 504 446 514 Q332 507 264 501 Q250 500 240 519 Q232 536 233 539 Q234 542 247 543 L474 558 Q486 576 519 620 Q546 657 560 678 L378 666 Q307 589 225 541 Q215 535 211 540 Q206 545 215 554 Q354 688 404 777 Q415 795 422 815 Q428 829 438 821 Q454 813 465 802 Q473 793 466 781 Q427 727 414 710 Q466 714 562 720 Q576 721 587 728 Q595 733 601 728 L606 725 Q619 716 629 703 Q637 693 629 682 Q545 585 520 561 L661 570 Q679 571 692 579 Q702 584 709 578 Z" /><glyph glyph-name="uni4E8B" unicode="&#x4e8b;" d="M704 287 Q676 286 611 282 L505 276 L504 198 L701 210 L704 287 ZM505 312 L706 323 L711 398 L505 387 L505 312 ZM462 522 L462 599 L301 589 L306 514 L462 522 ZM681 535 L686 611 L505 601 L505 524 L681 535 ZM689 437 Q704 437 719 443 Q726 445 729 444 Q735 444 738 443 Q753 437 762 431 Q773 423 766 408 Q761 396 758 378 Q756 361 754 327 Q824 331 868 337 Q891 341 904 321 Q922 292 897 292 Q834 292 751 289 L746 205 Q750 198 750 196 Q756 181 754 177 Q751 172 736 172 Q625 167 504 160 L501 4 Q501 -34 480 -54 Q452 -77 444 -53 Q441 -46 361 -19 Q351 -15 352 -10 Q352 -5 364 -6 Q453 -7 455 4 L458 158 Q323 150 243 147 Q223 147 218 160 Q213 176 215 180 Q217 183 230 184 L459 196 L460 274 L142 256 Q124 255 117 269 Q105 291 119 291 L461 310 L461 384 Q341 377 270 371 Q257 370 247 387 Q239 402 240 405 Q241 408 254 409 Q420 421 462 423 L462 486 Q362 480 307 478 Q307 466 293 460 Q273 451 270 458 Q266 464 265 477 L261 536 Q258 575 256 591 Q252 611 249 616 Q243 630 257 629 Q268 629 282 625 Q414 634 462 636 L462 689 L141 672 Q120 672 112 686 Q104 698 106 702 Q107 706 121 707 Q253 714 461 727 L461 765 Q461 795 456 828 Q452 845 472 839 Q487 834 505 822 Q516 815 513 798 Q509 775 507 736 L507 730 L652 740 Q773 748 839 753 Q858 755 866 740 Q878 715 856 714 Q611 697 506 691 L506 638 L669 647 Q684 648 696 655 Q703 659 707 656 Q710 656 712 655 Q725 650 734 644 Q743 637 738 624 Q734 616 732 601 L725 530 L729 522 Q734 508 732 504 Q730 500 717 499 L505 488 L505 426 L689 437 Z" /><glyph glyph-name="uni4E8C" unicode="&#x4e8c;" d="M698 627 Q716 630 724 613 Q736 589 715 586 Q538 567 305 553 Q287 552 278 566 Q264 589 285 590 Q478 605 587 615 L698 627 ZM665 190 Q825 198 863 204 Q891 208 903 185 Q924 151 895 153 Q712 158 141 122 Q123 121 114 137 Q100 161 116 161 L665 190 Z" /><glyph glyph-name="uni4E8E" unicode="&#x4e8e;" d="M514 678 Q523 672 523 655 Q521 623 521 602 Q520 555 520 443 Q663 454 657 454 Q811 467 865 477 Q887 481 901 458 Q922 425 893 425 Q810 423 519 402 Q519 145 515 23 Q514 -19 493 -36 Q465 -58 455 -36 Q452 -29 321 1 Q310 4 311 10 Q312 15 324 15 Q467 12 467 24 Q471 198 473 399 Q350 390 127 377 Q108 376 99 392 Q85 416 101 416 Q162 419 473 440 L473 628 Q473 647 471 677 Q409 673 289 667 Q271 666 261 680 Q253 694 254 699 Q256 703 269 704 Q568 726 587 728 L704 740 Q722 743 731 725 Q744 701 721 698 Q615 688 511 680 L514 678 Z" /><glyph glyph-name="uni4E8F" unicode="&#x4e8f;" d="M320 683 Q301 682 293 696 Q285 710 286 714 Q287 719 300 720 Q346 724 443 731 Q535 737 583 741 Q681 749 686 750 Q704 753 713 735 Q724 711 703 708 Q533 695 320 683 ZM930 551 Q949 518 922 518 Q844 517 396 492 Q404 483 399 473 L350 336 Q392 339 635 351 Q651 351 664 360 Q666 362 668 362 Q675 366 682 362 Q694 356 707 345 Q715 337 710 327 Q705 319 700 301 Q698 292 676 158 Q660 63 648 5 Q640 -32 617 -44 Q589 -58 581 -38 Q580 -34 468 1 Q458 4 459 9 Q460 13 472 12 Q597 -1 598 10 Q623 125 651 310 Q431 300 305 290 Q285 290 294 306 Q294 310 295 312 Q322 387 341 449 L351 489 L109 477 Q90 476 81 492 Q68 515 83 516 Q411 531 674 549 Q835 561 894 569 Q916 573 930 551 Z" /><glyph glyph-name="uni4E91" unicode="&#x4e91;" d="M304 631 Q285 630 277 644 Q269 658 271 663 Q272 667 285 668 Q533 682 591 687 L701 696 Q719 699 727 681 Q739 657 717 654 Q535 640 304 631 ZM691 120 Q606 99 460 69 Q330 42 271 26 Q250 21 222 7 Q209 0 203 10 Q192 24 184 47 Q183 49 183 52 Q180 61 190 65 Q232 79 262 119 Q348 228 422 345 Q437 371 456 413 L296 404 Q175 397 109 394 Q90 393 80 409 Q67 433 83 434 Q506 456 675 468 Q845 479 893 487 Q918 491 932 468 Q952 434 923 434 Q825 434 490 415 Q500 405 504 399 Q513 387 502 372 Q395 210 287 81 Q462 116 677 145 L592 273 Q581 289 585 293 Q590 297 604 285 Q708 201 785 62 Q808 20 786 0 Q767 -18 748 23 Q725 70 693 121 L691 120 Z" /><glyph glyph-name="uni4E92" unicode="&#x4e92;" d="M634 303 Q668 462 672 477 Q534 471 406 462 L401 462 Q373 354 354 290 L634 303 ZM678 106 Q848 114 889 120 Q916 124 929 100 Q947 67 920 67 Q795 70 125 39 Q106 39 97 55 Q84 79 100 80 L371 92 Q537 99 593 102 L625 258 Q474 253 353 248 Q332 246 317 240 Q295 230 284 271 Q283 278 285 282 Q285 286 292 289 Q313 297 320 320 Q357 443 396 629 Q402 651 403 672 L245 665 Q229 665 221 680 Q208 703 223 703 Q447 711 641 724 Q750 732 802 740 Q820 744 832 722 Q849 693 824 693 L446 674 Q454 669 450 655 L412 504 Q464 508 539 512 L662 519 Q679 520 689 528 Q695 534 702 531 Q706 531 710 528 Q722 521 734 511 Q743 501 734 485 Q723 467 716 443 Q692 354 639 104 L678 106 Z" /><glyph glyph-name="uni4E94" unicode="&#x4e94;" d="M452 373 Q431 279 397 100 L624 111 L659 387 L452 373 ZM678 114 Q844 123 901 131 Q927 134 939 111 Q960 77 931 79 Q861 80 97 48 Q78 47 69 63 Q56 87 72 87 Q230 93 352 99 Q375 230 404 369 Q327 363 256 360 Q242 359 233 380 Q225 396 226 400 Q227 404 239 404 L413 412 L444 559 Q452 598 457 641 Q430 640 364 636 L256 630 Q240 630 233 645 Q220 668 235 668 Q479 680 614 692 Q728 702 760 708 Q778 712 790 690 Q805 660 781 660 Q741 659 498 644 L504 639 Q512 633 506 613 Q499 582 489 543 L461 415 L646 427 Q659 428 671 433 Q675 435 678 435 Q684 437 689 434 Q705 426 711 420 Q720 413 714 397 Q709 386 704 361 Q691 288 668 113 L678 114 Z" /><glyph glyph-name="uni4E9B" unicode="&#x4e9b;" d="M385 567 L456 572 L495 577 Q511 578 518 562 Q528 537 508 536 L384 529 L384 351 L514 393 Q529 398 532 391 Q535 384 523 377 Q424 325 134 223 Q118 218 108 226 Q99 235 86 257 Q78 273 94 273 Q120 276 131 278 L201 297 Q199 342 198 418 L195 516 Q194 536 190 569 Q188 585 200 583 Q217 579 234 571 Q241 568 241 551 Q239 527 240 510 Q240 430 243 308 L341 338 Q340 410 340 516 L340 658 Q338 702 335 724 Q334 741 347 738 Q364 734 381 726 Q389 721 388 703 Q386 675 386 651 L385 567 ZM319 172 Q306 195 326 196 L552 210 Q582 211 635 215 Q652 216 660 200 Q670 175 649 174 Q370 161 344 159 Q328 158 319 172 ZM809 67 Q832 71 845 47 Q863 15 836 15 Q744 16 174 -12 Q156 -13 148 4 Q135 28 151 28 L631 52 Q779 62 809 67 ZM906 341 Q927 320 909 306 Q890 290 839 284 Q751 276 654 284 Q604 288 582 313 Q560 338 558 392 Q556 452 558 555 L559 702 Q559 747 556 784 Q553 803 569 799 Q586 794 601 786 Q612 778 610 763 Q607 746 605 701 Q602 551 602 523 Q697 582 761 646 Q780 667 790 681 Q797 692 806 687 Q823 677 830 667 Q840 656 828 646 Q700 539 602 501 Q602 463 604 393 Q605 334 660 330 Q742 323 829 331 Q865 335 867 356 Q877 445 876 440 Q879 457 885 456 Q890 456 890 438 Q892 354 906 341 Z" /><glyph glyph-name="uni4EA4" unicode="&#x4ea4;" d="M501 687 Q482 721 414 807 Q406 817 409 820 Q411 824 422 820 Q489 797 538 724 Q559 696 540 677 Q519 655 501 687 ZM179 580 Q162 579 153 595 Q141 618 155 619 Q469 635 629 646 Q767 656 806 662 Q828 666 841 644 Q859 613 832 613 Q766 613 179 580 ZM568 562 Q662 546 760 470 Q791 446 778 421 Q766 396 736 423 Q669 481 563 547 Q550 555 551 560 Q553 565 568 562 ZM390 555 Q404 545 415 533 Q424 521 414 512 Q284 380 193 335 Q184 330 180 336 Q176 342 184 349 Q301 454 354 522 L373 551 Q380 563 390 555 ZM523 193 Q642 82 782 33 Q816 21 860 9 L932 -11 Q953 -18 954 -22 Q954 -26 934 -33 Q925 -36 914 -43 Q900 -51 895 -53 Q878 -61 855 -52 Q639 21 494 161 Q355 15 130 -46 Q105 -53 103 -45 Q100 -38 123 -29 Q339 56 462 193 Q415 245 381 291 Q351 330 325 350 Q317 356 315 370 Q312 397 328 388 Q363 367 405 319 Q456 259 490 226 L497 235 Q562 318 614 429 Q621 443 635 435 Q651 426 660 417 Q671 407 661 393 Q544 219 535 208 L523 193 Z" /><glyph glyph-name="uni4EA6" unicode="&#x4ea6;" d="M507 673 Q490 703 413 798 Q395 821 422 812 Q491 787 545 711 Q566 683 547 662 Q526 641 507 673 ZM682 458 Q779 408 864 297 Q890 262 870 240 Q852 217 828 254 Q791 310 672 443 Q660 456 664 461 Q667 465 682 458 ZM379 570 Q269 562 140 555 Q122 554 112 570 Q98 594 114 595 Q452 615 653 630 Q797 642 853 650 Q877 654 890 632 Q909 599 881 599 Q817 599 603 586 L607 583 Q616 577 615 561 Q612 540 612 514 Q611 455 610 285 Q609 117 607 30 Q606 -9 584 -27 Q556 -50 546 -27 Q544 -21 441 8 Q430 11 431 17 Q432 22 443 22 Q557 19 557 31 Q565 250 563 538 Q563 561 560 583 L424 573 Q434 568 433 550 Q431 529 429 477 L424 384 Q412 226 348 134 Q286 45 145 -20 Q127 -28 123 -23 Q119 -17 135 -7 Q256 69 309 154 Q366 243 376 386 Q383 471 379 570 ZM180 228 Q140 183 126 217 Q118 237 138 260 Q208 333 279 440 Q288 452 293 451 Q298 449 296 436 Q275 336 180 228 Z" /><glyph glyph-name="uni4EA7" unicode="&#x4ea7;" d="M538 691 Q522 727 465 809 Q458 819 461 822 Q464 826 474 821 Q536 795 577 724 Q593 697 575 679 Q552 659 538 691 ZM686 432 Q812 444 839 449 Q859 453 872 432 Q887 402 863 402 Q850 402 306 366 Q304 351 303 322 L299 272 Q287 147 238 72 Q189 -2 83 -60 Q69 -68 64 -63 Q60 -58 73 -48 Q234 78 253 275 Q258 329 256 407 Q256 426 270 422 Q288 417 299 411 L305 406 L469 416 Q456 418 449 436 Q435 467 367 570 Q360 580 363 584 Q365 587 376 582 Q441 550 487 470 Q504 440 485 423 Q479 417 474 417 L582 424 Q659 583 660 586 Q666 607 667 620 Q668 627 672 631 Q599 626 484 620 L300 610 Q281 610 272 624 Q264 637 266 641 Q267 645 280 647 Q608 667 655 671 Q741 677 787 681 Q806 682 814 666 Q826 641 804 640 L678 631 L682 630 Q703 622 713 614 Q725 606 717 594 Q654 475 607 426 L686 432 Z" /><glyph glyph-name="uni4EAB" unicode="&#x4eab;" d="M201 667 Q181 667 172 681 Q164 694 166 698 Q168 702 182 703 Q395 713 506 719 Q504 721 500 727 Q484 753 430 817 Q415 835 437 830 Q494 818 535 763 Q553 740 538 721 L639 727 Q697 730 800 738 Q819 739 827 724 Q838 699 817 698 Q518 678 201 667 ZM351 576 Q355 535 356 495 Q507 501 576 505 Q618 507 639 509 Q643 570 644 597 Q403 586 351 582 L351 576 ZM672 640 Q686 633 691 628 Q699 622 695 609 Q690 596 689 585 L683 505 L687 495 Q693 481 691 476 Q689 472 676 471 L357 457 Q355 448 343 442 Q323 433 320 440 Q316 446 315 459 Q313 476 310 525 Q307 568 305 584 Q303 597 298 610 Q291 624 306 623 Q319 623 328 620 L629 635 Q646 636 655 641 Q663 646 669 641 L672 640 ZM915 247 Q933 216 907 216 Q796 214 544 196 Q559 89 543 -5 Q538 -40 515 -57 Q486 -78 479 -54 Q477 -49 372 -21 Q357 -17 358 -11 Q359 -5 373 -6 Q455 -12 474 -11 Q491 -10 493 -2 Q507 87 498 193 Q289 179 132 170 Q113 170 105 185 Q91 208 107 208 Q277 217 492 231 Q483 260 465 294 Q451 320 455 324 Q459 327 481 308 Q502 288 514 274 Q628 359 646 374 Q576 370 459 361 L288 349 Q274 349 266 368 Q259 384 260 388 Q261 392 272 391 Q455 398 665 415 Q680 415 688 419 Q694 422 693 421 Q704 424 711 417 Q718 409 728 391 Q733 379 722 372 Q559 268 528 252 Q534 240 536 234 L669 244 Q830 256 880 265 Q901 269 915 247 Z" /><glyph glyph-name="uni4EAE" unicode="&#x4eae;" d="M213 669 Q197 669 190 683 Q179 705 192 706 Q441 716 504 720 L498 729 Q486 751 429 821 Q414 839 437 834 Q496 819 534 763 Q552 739 535 722 L617 727 Q745 735 778 741 Q798 744 809 723 Q824 695 801 695 Q821 695 213 669 ZM367 573 Q366 581 373 488 L616 500 L623 590 Q490 586 366 578 L367 573 ZM374 451 Q373 440 360 434 Q341 423 338 431 Q334 439 333 451 L328 519 Q325 563 322 581 Q321 594 315 607 Q311 616 313 618 Q314 620 323 620 Q339 619 353 614 Q456 620 607 627 Q623 628 632 634 Q635 636 642 636 Q645 636 651 634 Q665 627 670 623 Q679 615 674 603 Q670 593 668 580 Q664 550 659 499 Q663 493 665 487 Q673 464 655 463 L519 457 Q409 452 374 451 ZM814 419 Q822 424 831 416 Q849 403 858 390 Q871 375 857 367 Q841 358 835 351 Q812 328 774 272 Q742 248 756 285 Q767 318 793 370 Q491 357 224 339 Q215 339 212 340 Q208 299 181 230 Q162 185 138 212 Q125 225 136 248 Q167 312 192 399 Q196 411 200 411 Q205 411 207 401 Q209 392 211 378 Q476 395 778 410 Q797 411 811 418 L814 419 ZM397 267 L552 277 Q565 277 576 284 Q582 288 586 287 L591 286 Q602 282 614 275 Q623 269 619 257 Q615 246 613 223 Q606 152 609 54 Q610 33 621 25 Q632 16 665 15 Q772 11 854 17 Q882 19 886 35 Q890 64 896 84 Q899 96 904 96 Q910 96 911 81 Q915 33 925 23 Q944 5 930 -7 Q911 -24 864 -27 Q766 -33 655 -28 Q604 -25 584 -7 Q564 11 563 53 Q563 131 568 236 Q432 230 400 227 L395 159 Q384 66 333 14 Q281 -39 171 -67 Q157 -71 154 -65 Q152 -59 166 -52 Q257 -11 298 35 Q340 84 349 164 Q354 204 352 268 Q352 284 366 280 Q381 277 394 269 L397 267 Z" /><glyph glyph-name="uni4EBA" unicode="&#x4eba;" d="M432 471 Q309 191 73 45 Q49 30 45 36 Q40 42 61 59 Q285 246 388 488 Q462 665 480 747 Q484 763 498 758 Q518 751 528 742 Q538 734 533 718 Q479 580 455 524 L463 513 Q602 289 805 157 Q830 140 873 118 Q929 90 943 82 Q958 74 959 70 Q959 66 946 62 Q936 59 924 52 L903 40 Q886 35 869 46 Q592 217 443 495 L432 471 Z" /><glyph glyph-name="uni4EC0" unicode="&#x4ec0;" d="M296 471 Q298 454 300 426 Q302 246 297 58 Q296 9 281 -16 Q266 -38 256 -13 Q248 11 250 46 Q258 254 253 432 Q253 469 245 490 Q171 401 75 320 Q64 312 59 316 Q53 321 63 332 Q267 569 335 703 Q349 733 360 767 Q364 781 376 776 Q394 767 404 757 Q414 749 406 735 Q336 606 265 515 L279 503 Q292 492 296 471 ZM665 473 Q715 476 751 479 Q869 487 898 493 Q919 497 931 474 Q948 444 922 444 Q840 444 664 433 Q662 207 660 101 Q658 9 640 -57 Q629 -100 621 -56 Q612 -1 612 96 Q614 197 616 430 L385 416 Q369 416 361 432 Q350 455 364 456 Q570 467 616 470 L616 673 Q615 749 612 783 Q611 799 614 801 Q616 804 630 800 Q648 795 659 789 Q670 783 669 759 Q667 707 667 672 L665 473 Z" /><glyph glyph-name="uni4EC5" unicode="&#x4ec5;" d="M272 456 Q276 439 276 412 Q279 251 274 62 Q273 13 257 -12 Q242 -33 233 -8 Q226 12 227 50 Q234 236 231 416 Q230 460 218 485 Q155 411 68 330 Q58 321 52 326 Q46 331 55 342 Q266 605 325 720 Q341 751 351 786 Q356 800 367 795 Q387 785 396 776 Q406 768 398 754 Q322 614 235 506 Q249 497 255 490 Q268 475 272 456 ZM944 61 Q962 51 961 48 Q961 44 942 40 Q933 39 923 34 Q909 28 904 27 Q886 23 867 34 Q709 122 607 237 Q512 122 347 34 Q324 22 320 28 Q316 35 336 49 Q491 157 577 272 Q518 347 470 441 Q443 494 430 507 Q425 512 425 528 Q426 552 439 543 Q465 522 498 463 Q546 380 604 310 Q688 438 736 620 L584 605 Q492 595 443 592 Q430 591 421 612 Q413 629 414 633 Q415 637 426 638 Q556 645 722 663 Q735 664 745 671 Q750 674 755 674 Q759 675 766 672 Q782 664 794 655 Q806 646 798 631 Q784 604 771 561 Q718 387 636 274 Q717 190 820 128 Q844 114 885 93 Q925 72 944 61 Z" /><glyph glyph-name="uni4ECA" unicode="&#x4eca;" d="M682 324 Q690 316 698 304 Q703 295 694 287 Q683 278 675 264 Q659 234 590 118 Q534 24 501 -46 Q491 -66 471 -46 Q459 -33 473 -6 Q489 27 633 279 Q580 275 443 263 Q326 253 267 249 Q254 248 244 268 Q236 285 237 290 Q238 294 250 294 Q444 303 636 321 Q652 322 660 328 Q663 330 669 330 Q675 331 682 324 ZM549 377 Q532 356 512 384 Q491 414 406 501 Q386 521 413 514 Q485 491 544 422 Q565 397 549 377 ZM492 734 Q650 547 824 439 Q816 444 946 376 Q961 368 961 365 Q962 361 949 357 Q940 353 928 345 Q916 336 909 333 Q892 326 876 337 Q631 496 477 711 Q443 658 394 594 Q245 399 69 290 Q48 277 44 283 Q40 289 58 304 Q237 453 356 617 Q438 732 477 813 Q484 827 496 821 Q511 813 521 805 Q531 796 523 782 L492 734 Z" /><glyph glyph-name="uni4ECB" unicode="&#x4ecb;" d="M399 461 Q411 455 408 439 L404 386 Q402 347 399 321 Q387 194 337 119 Q287 44 177 -14 Q162 -22 158 -16 Q154 -11 167 -1 Q333 123 353 324 Q357 367 357 458 Q356 477 371 473 Q388 468 399 461 ZM619 492 Q630 488 628 468 Q626 432 626 407 Q624 349 623 233 L620 44 Q618 -23 602 -69 Q589 -100 583 -68 Q574 -27 574 40 Q577 228 577 409 Q578 455 575 486 Q574 500 576 502 Q578 504 591 501 Q604 499 619 492 ZM933 430 Q958 420 936 412 Q927 408 915 400 Q902 390 895 387 Q880 380 864 390 Q632 509 496 706 Q465 661 422 607 Q282 430 112 327 Q92 315 87 321 Q83 327 100 341 Q274 484 383 630 Q462 735 499 812 Q506 826 518 820 Q536 811 543 805 Q554 794 545 782 L511 729 Q644 569 807 483 Q830 471 869 456 L933 430 Z" /><glyph glyph-name="uni4ECD" unicode="&#x4ecd;" d="M283 473 Q287 454 287 427 Q292 257 285 60 Q284 8 268 -18 Q253 -41 244 -14 Q237 7 238 46 Q246 242 242 430 Q241 475 231 502 Q161 421 60 337 Q49 329 44 334 Q38 339 48 349 Q257 588 327 723 Q341 748 353 786 Q358 800 370 795 Q386 787 399 776 Q409 767 401 753 Q325 616 249 524 Q260 516 268 507 Q279 493 283 473 ZM801 714 Q808 721 817 716 Q832 709 842 700 Q852 691 847 680 Q789 548 736 450 Q756 452 862 459 Q877 461 886 467 Q891 470 895 470 Q900 472 905 468 Q919 461 930 450 Q939 442 934 431 Q927 421 924 402 Q918 366 900 232 Q884 115 872 49 Q865 10 841 -3 Q812 -17 805 3 Q804 5 692 41 Q681 44 683 49 Q684 54 696 53 Q819 41 821 52 Q843 169 874 418 L705 406 Q687 404 693 419 Q691 423 694 428 L743 550 Q771 621 787 665 Q699 657 579 645 L588 641 Q600 634 597 616 L583 506 Q559 346 508 248 Q454 144 343 58 Q328 46 323 51 Q318 56 331 69 Q497 237 537 510 Q545 566 545 638 L545 642 L436 632 Q423 632 414 652 Q407 668 408 672 Q409 676 420 676 Q566 685 775 706 Q791 707 799 713 L801 714 Z" /><glyph glyph-name="uni4ECE" unicode="&#x4ece;" d="M435 264 Q398 313 314 391 Q239 173 73 40 Q53 23 47 28 Q42 33 60 53 Q231 243 297 495 Q341 661 347 738 Q348 754 363 751 Q384 745 395 738 Q406 731 402 714 L343 485 Q331 442 321 412 Q393 385 464 305 Q488 278 474 257 Q457 232 435 264 ZM952 29 Q964 19 964 16 Q964 12 951 10 Q943 8 930 2 Q916 -4 909 -6 Q894 -12 880 2 Q702 169 608 384 Q533 130 343 -21 Q320 -39 315 -34 Q309 -29 330 -7 Q525 202 588 493 Q628 674 632 764 Q633 782 649 777 Q666 774 681 764 Q692 757 688 739 L664 624 Q648 545 634 484 L627 454 Q623 435 620 425 Q704 246 849 110 Q867 92 900 68 Q939 40 952 29 Z" /><glyph glyph-name="uni4ED3" unicode="&#x4ed3;" d="M596 469 Q603 475 612 471 Q623 467 637 457 Q645 450 641 440 Q635 432 634 419 L615 226 Q611 194 590 183 Q560 168 554 187 Q553 191 475 215 Q464 218 465 223 Q466 228 478 227 Q565 221 566 230 Q576 298 585 417 Q448 412 361 407 L361 387 Q361 373 360 365 Q357 137 359 91 Q360 27 437 20 Q573 9 702 22 Q751 27 754 50 L759 106 Q762 141 765 161 Q768 177 774 177 Q780 177 780 159 Q781 48 798 34 Q819 15 799 0 Q775 -18 712 -24 Q583 -36 433 -25 Q316 -17 313 90 Q311 145 312 235 Q314 340 314 367 Q314 409 311 446 Q310 464 324 460 Q334 457 350 449 L568 459 Q583 460 595 468 L596 469 ZM948 422 Q963 416 964 413 Q966 409 953 403 Q945 399 933 391 Q921 381 914 378 Q900 370 882 379 Q638 491 485 685 Q452 637 410 586 Q260 405 86 305 Q65 293 61 299 Q57 306 74 320 Q254 460 372 611 Q454 718 495 798 Q503 812 515 806 Q531 798 540 789 Q551 780 541 766 L501 707 Q651 546 817 470 Q841 459 881 445 L948 422 Z" /><glyph glyph-name="uni4ED4" unicode="&#x4ed4;" d="M265 478 Q269 450 269 432 Q272 262 267 59 Q266 8 250 -20 Q236 -44 226 -16 Q218 4 219 45 Q227 218 223 437 Q222 475 216 500 Q144 415 60 336 Q51 327 45 332 Q39 337 48 348 Q267 633 313 719 Q321 734 339 783 Q343 797 355 792 Q377 781 384 773 Q395 765 387 751 Q312 619 236 525 Q246 517 250 512 Q262 500 265 478 ZM788 750 Q796 755 806 748 Q818 738 829 726 Q838 714 829 704 Q718 575 629 498 Q652 462 661 415 L756 423 Q878 434 919 441 Q941 445 954 423 Q972 391 945 391 Q877 389 667 375 Q689 195 663 19 Q657 -25 634 -44 Q604 -69 596 -41 Q593 -30 470 3 Q454 8 455 15 Q456 22 472 20 Q569 10 590 11 Q611 11 612 22 Q637 190 620 371 L346 352 Q329 351 320 367 Q307 391 322 391 L615 412 Q607 467 559 549 Q540 580 545 584 Q549 588 574 562 Q596 541 612 521 Q734 669 755 697 L448 670 Q435 669 425 690 Q417 707 418 712 Q419 716 431 716 Q573 723 760 741 Q776 742 784 748 L788 750 Z" /><glyph glyph-name="uni4ED6" unicode="&#x4ed6;" d="M259 450 Q263 433 263 406 Q266 242 261 48 Q260 -3 244 -28 Q230 -50 221 -24 Q214 -4 215 35 Q222 209 218 409 Q218 439 213 466 Q150 395 63 327 Q53 319 47 324 Q41 329 51 339 Q249 555 319 696 Q332 720 344 757 Q348 772 360 765 Q375 759 388 747 Q398 738 390 724 Q317 590 236 493 Q241 490 244 485 Q256 471 259 450 ZM467 439 Q463 285 467 178 Q470 97 558 90 Q705 77 839 93 Q894 99 897 123 L910 229 Q913 245 919 245 Q924 245 924 227 Q925 123 942 107 Q964 87 943 71 Q920 53 849 46 Q704 33 554 45 Q425 55 421 176 Q419 221 422 420 L336 385 Q322 380 309 397 Q298 412 298 416 Q298 420 309 424 Q345 437 423 467 L423 511 Q421 574 419 603 Q416 622 432 618 Q445 614 464 604 Q476 596 473 581 Q470 562 468 510 L467 484 Q549 516 588 532 Q588 658 587 709 Q587 749 585 787 Q584 801 586 803 Q588 805 601 803 Q616 798 625 794 Q634 790 634 769 L633 550 L762 604 Q777 611 785 622 L791 628 Q798 632 805 628 Q818 623 829 614 Q838 607 833 598 Q829 589 827 575 Q823 546 816 464 Q808 385 803 343 Q799 309 778 299 Q751 283 744 302 Q743 306 663 331 Q653 334 654 338 Q655 343 666 342 Q754 336 755 346 Q768 442 778 568 L632 508 Q632 389 631 326 Q629 256 614 211 Q602 179 596 212 Q587 253 587 321 L588 489 L467 439 Z" /><glyph glyph-name="uni4ED8" unicode="&#x4ed8;" d="M304 506 Q315 495 318 477 Q321 458 321 436 Q323 240 316 63 Q315 18 299 -6 Q283 -29 275 -4 Q268 17 269 50 Q279 246 275 441 Q275 462 274 472 Q203 386 108 302 Q98 293 92 298 Q86 303 96 314 Q312 574 382 710 Q394 735 409 778 Q413 793 425 788 Q445 777 453 769 Q462 760 455 747 Q382 610 302 508 L304 506 ZM601 227 Q583 205 562 235 Q529 281 437 375 Q427 385 430 390 Q432 394 444 389 Q518 361 593 276 Q615 248 601 227 ZM761 535 Q870 543 908 550 Q930 554 942 531 Q958 500 933 500 Q881 500 751 493 Q751 171 747 17 Q747 -24 725 -42 Q697 -66 687 -42 Q684 -35 568 -5 Q557 -2 557 4 Q558 9 570 9 Q699 6 699 18 Q704 216 706 490 L390 468 Q374 468 366 484 Q353 508 368 508 L706 531 Q706 673 705 738 Q705 767 700 799 Q696 816 716 811 Q734 806 751 794 Q762 786 759 769 Q753 735 753 709 Q751 605 751 534 L761 535 Z" /><glyph glyph-name="uni4EE3" unicode="&#x4ee3;" d="M632 730 Q622 738 625 742 Q627 746 638 744 Q708 731 778 662 Q804 638 789 617 Q775 592 751 620 Q711 666 632 730 ZM295 446 Q299 429 299 401 Q304 249 298 64 Q295 11 279 -13 Q265 -34 255 -8 Q249 11 250 50 Q258 225 254 403 Q254 436 249 469 Q178 372 76 275 Q67 267 61 271 Q55 276 63 287 Q261 542 318 666 Q329 689 342 733 Q346 747 358 742 Q377 734 387 725 Q396 716 389 703 Q333 589 269 496 Q273 492 281 482 Q291 468 295 446 ZM889 103 Q897 116 901 113 Q905 110 901 95 Q878 15 883 -15 Q887 -49 856 -43 Q826 -36 793 -12 Q609 118 537 441 L362 403 Q348 399 338 415 Q324 436 337 439 L529 481 Q512 574 504 654 Q498 721 481 800 Q476 823 491 819 Q508 816 526 807 Q539 801 539 783 Q539 759 547 661 Q557 558 570 490 Q694 518 747 532 Q795 544 811 551 Q830 558 842 537 Q861 508 839 505 Q771 495 578 450 Q647 140 818 31 Q846 13 854 32 L889 103 Z" /><glyph glyph-name="uni4EE4" unicode="&#x4ee4;" d="M703 345 Q714 337 725 324 Q733 314 725 303 Q596 149 500 60 Q538 31 574 -2 Q606 -32 592 -57 Q578 -82 548 -49 Q478 23 346 122 Q331 133 334 138 Q337 142 353 137 Q413 118 476 76 Q606 232 655 297 L455 278 Q334 266 270 261 Q257 260 247 280 Q239 296 240 301 Q241 305 252 305 Q429 316 659 338 Q676 341 684 346 Q693 351 698 347 L703 345 ZM549 387 Q530 367 512 396 Q492 429 416 517 Q408 526 410 530 Q413 534 424 530 Q492 506 546 433 Q565 407 549 387 ZM948 403 Q963 396 964 393 Q966 389 953 384 Q943 380 932 372 Q919 362 914 359 Q901 352 882 361 Q645 489 486 686 Q456 644 413 591 Q259 404 70 299 Q49 286 44 293 Q40 299 58 313 Q252 458 374 615 Q458 723 503 810 Q511 823 523 817 Q535 812 547 802 Q558 792 550 779 L502 708 Q660 542 824 456 Q846 444 885 429 Q935 409 948 403 Z" /><glyph glyph-name="uni4EE5" unicode="&#x4ee5;" d="M402 662 Q392 672 394 676 Q397 680 410 676 Q491 648 561 565 Q584 538 568 516 Q550 493 529 525 Q493 577 402 662 ZM196 186 Q202 197 202 210 Q212 390 206 578 Q206 602 201 627 Q198 644 215 642 Q229 641 246 634 Q255 629 255 615 Q258 418 248 228 Q437 381 468 405 Q484 418 489 413 Q494 408 479 390 Q473 383 241 154 Q225 139 208 119 Q199 108 189 113 Q174 122 158 138 Q153 143 154 149 Q154 151 157 154 L196 186 ZM904 94 Q934 58 918 33 Q903 10 875 46 Q806 140 665 271 Q559 122 351 21 Q325 8 321 15 Q317 21 342 37 Q659 231 741 571 Q758 639 763 722 Q764 743 779 738 Q796 731 809 723 Q820 716 816 696 Q792 573 790 565 Q750 400 676 287 Q787 231 904 94 Z" /><glyph glyph-name="uni4EEC" unicode="&#x4eec;" d="M365 774 Q374 766 367 752 Q298 618 232 531 Q244 521 249 516 Q261 500 264 481 Q267 466 269 434 Q272 257 267 52 Q266 -1 250 -27 Q236 -50 227 -23 Q220 -2 221 38 Q229 252 224 438 Q224 479 214 506 Q143 417 66 347 Q56 338 51 343 Q45 347 54 359 Q241 600 298 719 Q306 737 321 783 Q325 798 337 793 Q354 784 365 774 ZM453 563 Q454 555 454 541 L455 517 Q459 370 461 67 Q461 20 449 -7 Q434 -36 424 -8 Q414 18 414 52 Q417 349 408 528 Q406 565 400 588 Q395 606 412 601 Q426 598 439 590 Q450 583 453 563 ZM451 741 Q510 724 556 661 Q574 636 558 618 Q539 597 523 626 Q505 657 443 729 Q427 748 451 741 ZM847 696 Q860 691 870 683 Q881 675 876 662 Q869 645 869 623 Q867 553 867 344 Q867 146 864 41 Q864 4 843 -13 Q816 -33 807 -12 Q805 -7 726 19 Q715 22 716 27 Q716 32 728 31 Q816 29 816 42 Q826 297 822 647 L717 637 Q650 629 620 627 Q608 627 600 647 Q593 663 594 667 Q595 671 605 671 Q681 676 811 689 Q825 690 832 695 Q839 702 847 696 Z" /><glyph glyph-name="uni4EF6" unicode="&#x4ef6;" d="M273 467 Q278 444 278 421 Q281 255 276 62 Q275 11 259 -14 Q245 -35 235 -10 Q228 10 229 49 Q236 238 233 425 Q231 464 225 483 Q155 398 71 321 Q61 313 55 317 Q49 322 58 333 Q258 584 317 703 Q329 729 341 768 Q345 784 357 777 Q374 770 385 759 Q395 752 388 737 Q318 605 246 510 Q250 507 257 500 Q268 489 273 467 ZM654 356 L752 364 Q869 373 912 381 Q933 385 946 362 Q964 331 938 331 Q842 330 654 316 Q654 188 653 122 Q651 28 635 -36 Q623 -82 616 -36 Q604 28 606 117 L607 313 Q529 308 350 295 Q333 294 324 310 Q311 334 327 334 Q544 348 607 353 Q607 468 606 523 L464 513 L451 513 Q415 452 366 403 Q358 395 353 399 Q348 403 353 413 Q446 582 463 636 Q468 654 472 681 Q475 696 487 691 Q510 682 517 676 Q527 669 521 656 Q493 589 473 553 Q559 559 606 563 L605 694 L601 804 Q600 820 602 822 Q604 824 617 821 Q635 817 648 810 Q659 804 658 780 L655 693 L655 566 L709 571 Q775 577 807 581 Q825 582 833 566 Q845 542 824 539 Q771 534 654 526 L654 356 Z" /><glyph glyph-name="uni4EFB" unicode="&#x4efb;" d="M245 495 Q257 483 261 463 Q263 446 265 418 Q267 232 262 40 Q261 -9 245 -34 Q231 -57 222 -31 Q215 -10 216 28 Q224 206 220 423 Q218 457 215 472 Q143 393 55 322 Q45 314 39 319 Q33 324 43 335 Q143 445 197 514 Q197 520 202 520 Q280 617 327 702 Q344 732 354 763 Q360 777 371 771 Q388 762 399 752 Q408 744 400 730 Q316 589 239 500 L245 495 ZM579 398 L579 546 Q577 599 574 627 Q492 602 409 591 Q390 589 389 596 Q388 603 405 608 Q569 660 651 698 Q708 724 754 758 Q764 767 773 758 Q782 750 794 734 Q802 719 786 714 L737 690 Q703 673 673 661 L609 638 Q617 634 621 631 Q629 626 628 606 Q628 589 626 537 Q626 451 625 401 L745 411 Q879 424 912 430 Q934 434 947 412 Q965 381 938 381 Q848 379 625 361 Q624 319 624 234 L623 94 L708 99 Q749 101 829 107 Q847 108 855 91 Q868 65 845 64 Q657 56 382 39 Q363 37 353 52 Q345 65 347 70 Q348 74 361 76 L580 91 Q579 187 579 358 L323 339 Q306 338 297 354 Q284 377 299 377 L579 398 Z" /><glyph glyph-name="uni4EFD" unicode="&#x4efd;" d="M242 506 Q253 495 256 477 Q259 458 259 436 Q261 215 255 55 Q254 11 239 -14 Q223 -38 215 -12 Q208 8 209 42 Q218 228 214 441 Q214 464 211 482 Q153 409 68 327 Q58 319 52 323 Q46 328 55 339 Q255 602 308 708 Q320 734 332 773 Q336 787 348 782 Q363 776 377 764 Q386 756 379 742 Q309 610 235 512 L242 506 ZM579 385 Q590 379 586 363 L569 288 Q509 60 314 -42 Q298 -51 294 -45 Q290 -39 305 -28 Q472 97 522 296 Q532 334 535 382 Q447 373 418 371 Q406 370 397 391 Q390 407 391 412 Q356 372 320 339 Q312 331 306 335 Q301 340 309 350 Q445 543 479 641 Q484 657 494 697 Q497 712 509 707 Q527 700 537 691 Q547 684 541 669 Q471 506 392 414 Q394 415 402 415 Q519 422 710 440 Q725 443 733 448 L736 450 Q737 451 738 451 Q744 454 751 450 Q763 444 776 433 Q785 424 780 413 Q772 399 771 384 Q765 341 750 209 Q735 87 725 21 Q718 -17 695 -29 Q666 -45 660 -24 Q659 -22 559 11 Q548 14 549 19 Q550 24 562 23 Q674 14 675 25 Q701 181 722 400 L650 393 Q601 389 577 386 L579 385 ZM944 407 Q958 395 957 392 Q956 389 939 388 Q931 387 920 383 Q907 378 901 377 Q886 375 873 388 Q699 565 625 727 Q609 759 599 770 Q590 779 593 794 Q596 819 612 806 Q633 787 656 746 Q740 590 849 490 L944 407 Z" /><glyph glyph-name="uni4F01" unicode="&#x4f01;" d="M615 79 Q755 87 800 94 Q824 98 838 75 Q858 42 829 44 Q694 45 134 12 Q117 11 108 27 Q94 51 110 51 L294 61 Q292 106 291 177 Q290 248 289 272 Q287 308 284 325 Q282 340 294 338 Q316 333 327 327 Q336 323 336 306 L335 265 Q335 145 337 64 L464 71 Q463 144 464 267 L464 423 Q464 448 460 494 Q458 513 471 509 Q492 504 507 495 Q515 490 514 472 L511 415 Q511 359 510 328 L615 336 Q661 341 670 345 Q690 352 701 331 Q717 301 695 300 Q670 299 510 288 Q508 160 508 73 L615 79 ZM943 413 Q958 407 959 404 Q961 400 948 394 Q939 390 929 382 Q917 372 911 369 Q897 361 879 370 Q637 494 467 689 Q425 626 394 586 Q257 411 79 322 Q58 312 54 318 Q50 325 68 337 Q247 464 354 610 Q424 707 464 791 Q471 804 483 798 Q500 791 509 782 Q520 773 511 758 Q480 708 482 712 Q653 541 817 463 Q840 451 879 437 Q932 418 943 413 Z" /><glyph glyph-name="uni4F17" unicode="&#x4f17;" d="M168 406 Q150 397 146 403 Q142 409 158 420 Q326 533 409 658 Q471 749 498 819 Q504 833 517 827 Q535 820 543 812 Q554 804 546 789 Q537 775 492 699 Q617 569 746 516 Q767 507 802 497 Q848 484 860 480 Q874 475 875 471 Q876 468 865 462 Q855 458 845 449 L828 436 Q815 428 799 436 Q601 521 478 677 L449 635 Q336 481 168 406 ZM439 156 Q413 190 326 269 Q246 99 70 -7 Q57 -15 53 -9 Q48 -3 61 7 Q263 176 324 385 Q330 408 339 456 Q340 471 354 466 Q370 459 382 450 Q390 443 386 427 Q361 344 333 283 Q406 263 469 195 Q491 171 477 151 Q461 129 439 156 ZM950 9 Q971 -3 950 -8 Q942 -11 929 -18 Q916 -26 909 -28 Q895 -33 881 -23 Q706 101 618 270 Q548 73 371 -57 Q357 -67 353 -61 Q348 -56 361 -43 Q559 152 606 390 Q613 422 617 476 Q618 492 632 487 Q649 481 660 473 Q669 467 666 450 Q649 365 629 302 Q719 158 849 66 Q867 54 899 37 Q936 18 950 9 Z" /><glyph glyph-name="uni4F18" unicode="&#x4f18;" d="M662 709 Q644 726 667 722 Q730 714 787 658 Q808 635 795 616 Q780 593 759 619 Q738 645 662 709 ZM274 455 Q278 438 278 411 Q281 252 276 63 Q275 14 259 -11 Q245 -32 235 -7 Q228 13 229 51 Q237 246 232 415 Q232 461 216 488 Q149 404 61 320 Q52 311 46 316 Q40 320 49 332 Q260 609 309 705 Q322 729 334 770 Q339 784 350 779 Q368 770 378 760 Q388 752 380 738 Q305 603 231 507 Q246 499 257 488 Q270 473 274 455 ZM569 530 L677 539 Q780 549 809 555 Q827 559 839 537 Q854 509 831 507 Q781 506 566 490 Q548 316 493 207 Q438 97 321 3 Q305 -10 299 -5 Q293 -1 307 13 Q485 196 517 487 L356 476 Q341 475 333 491 Q322 514 335 515 L521 526 L523 555 Q530 662 527 766 Q526 788 541 783 Q560 778 571 771 Q582 765 581 744 Q579 720 576 660 L569 530 ZM933 84 Q954 65 936 50 Q917 34 870 30 Q779 22 693 29 Q605 36 602 128 Q600 180 602 269 L603 396 Q603 435 600 468 Q599 485 613 482 Q636 475 645 470 Q656 464 653 449 Q649 419 649 394 Q645 232 648 129 Q649 78 698 74 Q780 68 860 76 Q892 78 895 99 Q900 168 904 195 Q906 210 912 210 Q917 209 918 193 Q920 97 933 84 Z" /><glyph glyph-name="uni4F1A" unicode="&#x4f1a;" d="M669 68 Q589 51 458 31 Q340 13 289 1 Q265 -4 245 -15 Q233 -21 227 -12 Q215 8 211 23 Q210 26 210 31 Q210 38 217 39 Q257 49 283 76 Q362 159 418 234 Q432 253 441 270 L202 255 Q186 255 178 271 Q165 294 180 295 Q500 313 601 321 Q714 328 759 335 Q781 339 793 317 Q809 286 784 286 Q700 286 490 273 L494 267 Q501 255 491 242 Q404 136 316 51 Q469 73 654 91 Q637 113 570 193 Q558 206 562 210 Q566 214 581 206 Q680 149 761 28 Q785 -9 765 -30 Q746 -52 725 -14 Q707 19 671 68 L669 68 ZM366 435 Q350 434 342 448 Q329 471 348 472 L542 487 Q592 491 616 494 Q633 495 641 479 Q652 454 631 453 Q551 446 366 435 ZM951 421 Q966 413 967 410 Q968 407 955 402 Q946 398 935 389 Q923 380 916 376 Q900 369 884 379 Q647 516 490 714 Q450 658 409 607 Q255 419 77 314 Q55 301 51 307 Q47 313 65 328 Q249 476 370 631 Q452 738 496 823 Q503 836 515 830 Q530 824 540 814 Q551 804 542 791 L505 737 Q666 565 829 476 L951 421 Z" /><glyph glyph-name="uni4F1E" unicode="&#x4f1e;" d="M799 311 Q820 315 833 293 Q851 263 825 263 Q737 262 510 247 Q510 190 508 68 Q508 -7 492 -58 Q480 -93 474 -58 Q464 -4 465 63 L466 244 L167 225 Q151 224 141 240 Q130 263 144 263 Q272 270 466 283 Q466 443 465 508 Q464 559 462 595 Q461 609 463 611 Q465 613 477 610 Q490 607 502 602 Q511 596 511 575 L511 506 Q510 440 510 286 L620 294 Q767 306 799 311 ZM405 331 Q388 309 369 338 Q350 367 272 451 Q265 460 267 464 Q269 468 280 464 Q344 444 401 375 Q421 349 405 331 ZM558 329 Q550 324 546 329 Q542 334 548 342 Q639 455 651 477 Q660 495 663 503 Q667 516 678 509 Q696 499 705 489 Q716 479 707 468 Q619 366 558 329 ZM941 479 Q956 473 957 470 Q958 466 946 461 Q938 457 928 448 Q917 439 910 435 Q897 427 880 436 Q649 542 497 716 Q451 660 411 622 Q252 468 79 386 Q58 376 55 382 Q51 389 69 401 Q253 521 376 650 Q445 723 506 812 Q515 824 526 818 Q541 809 550 800 Q560 789 549 777 Q525 749 514 735 Q665 590 818 522 Q819 521 941 479 Z" /><glyph glyph-name="uni4F20" unicode="&#x4f20;" d="M273 461 Q276 440 276 416 Q279 247 274 48 Q273 -5 257 -30 Q243 -53 234 -27 Q227 -9 228 33 Q236 227 232 420 Q230 455 228 472 Q167 390 83 311 Q74 302 68 306 Q62 311 71 322 Q260 577 312 700 Q325 729 334 769 Q338 784 350 779 Q367 772 380 761 Q389 753 383 739 Q319 600 251 504 Q257 498 259 495 Q270 480 273 461 ZM581 454 L743 467 Q864 477 897 483 Q917 487 930 465 Q945 435 921 434 Q851 433 572 414 L544 292 L750 304 Q766 305 776 310 Q781 315 787 313 Q791 313 795 309 Q806 302 817 291 Q826 282 818 271 Q718 131 648 57 Q677 36 719 -2 Q751 -30 738 -55 Q725 -79 696 -49 Q614 35 492 123 Q477 134 480 139 Q483 143 499 138 Q565 115 626 74 Q733 232 751 261 L507 246 Q490 246 496 269 L528 411 L449 406 Q384 402 361 400 Q345 399 336 415 Q325 438 338 439 Q452 445 537 451 L563 577 L448 571 Q430 570 422 584 Q414 598 415 602 Q416 606 429 607 L571 616 L581 673 Q595 744 602 799 Q603 810 606 813 Q609 815 619 811 Q633 805 645 796 Q654 788 650 772 Q636 714 625 659 L616 620 Q679 624 713 627 Q766 630 817 636 Q834 637 842 621 Q854 596 833 595 Q763 589 608 579 L581 454 Z" /><glyph glyph-name="uni4F2A" unicode="&#x4f2a;" d="M392 675 Q384 682 386 686 Q388 690 399 688 Q463 674 517 609 Q538 585 523 565 Q504 543 485 571 Q463 604 392 675 ZM268 478 Q270 462 272 433 Q274 254 269 65 Q268 15 253 -10 Q239 -33 228 -7 Q219 17 222 52 Q230 226 226 439 Q225 469 220 491 Q153 404 67 320 Q57 311 51 316 Q45 320 54 332 Q262 617 310 714 Q322 740 334 781 Q339 796 350 791 Q372 780 380 773 Q390 764 383 750 Q317 623 242 520 Q246 517 253 510 Q265 498 268 478 ZM741 215 Q723 193 703 221 Q681 252 601 334 Q593 342 595 346 Q597 350 608 347 Q675 328 735 260 Q756 235 741 215 ZM875 528 Q885 519 879 508 Q872 496 868 474 L840 258 Q821 111 807 26 Q802 -14 777 -29 Q747 -44 740 -24 Q739 -20 638 15 Q628 19 629 23 Q630 28 642 27 Q755 16 756 29 Q790 232 818 497 L614 479 Q557 171 312 0 Q293 -13 287 -9 Q282 -4 299 11 Q508 194 563 474 Q423 461 380 458 Q366 457 356 478 Q348 494 349 499 Q350 503 363 503 L570 517 Q578 569 581 601 Q592 695 590 800 Q590 822 605 818 Q621 814 637 805 Q647 798 646 777 Q643 750 639 694 L631 598 Q626 550 621 522 Q684 527 803 538 Q819 539 829 545 Q835 548 839 548 Q844 550 849 546 Q863 540 875 528 Z" /><glyph glyph-name="uni4F3C" unicode="&#x4f3c;" d="M607 567 Q584 600 493 695 Q484 704 486 708 Q489 712 500 708 Q575 684 640 608 Q662 580 646 560 Q629 537 607 567 ZM254 479 Q257 458 257 434 Q262 271 255 77 Q254 26 238 1 Q224 -22 214 4 Q207 25 208 63 Q216 254 212 438 Q210 476 207 495 Q147 423 63 349 Q54 340 48 345 Q42 350 51 361 Q237 588 296 713 Q306 735 319 775 Q323 791 335 784 Q350 778 364 766 Q373 757 366 744 Q298 613 229 523 Q235 519 239 513 Q250 499 254 479 ZM379 219 Q387 228 387 243 Q396 386 391 536 Q389 564 386 577 Q384 592 399 591 Q419 589 430 583 Q439 580 440 567 Q441 411 433 261 Q556 358 603 392 Q620 404 625 399 Q629 394 614 376 Q575 330 515 275 Q430 196 419 185 Q399 165 390 153 Q382 142 372 148 Q357 157 341 173 Q335 179 338 185 Q337 190 344 194 L354 199 L379 219 ZM936 97 Q964 63 947 38 Q930 17 905 52 Q852 127 725 259 Q641 121 472 19 Q451 6 446 12 Q442 18 461 33 Q717 227 779 565 Q791 629 795 716 Q795 737 810 732 Q825 728 841 718 Q853 711 850 691 L829 560 Q796 385 735 277 Q846 212 936 97 Z" /><glyph glyph-name="uni4F46" unicode="&#x4f46;" d="M786 507 L799 648 Q586 638 461 627 L467 549 L470 490 L786 507 ZM771 314 Q773 347 783 466 L632 459 Q532 453 472 451 L479 299 Q581 303 689 310 Q713 312 769 314 L771 314 ZM481 256 Q481 238 466 227 Q447 214 443 224 Q438 241 437 256 Q419 581 415 619 Q412 644 406 665 Q403 676 405 678 Q406 681 416 679 Q433 678 447 668 L779 689 Q794 689 807 698 Q813 701 817 700 Q821 701 827 698 Q836 694 850 684 Q860 677 853 664 Q849 657 847 640 Q829 477 818 294 Q815 256 788 245 Q771 238 770 249 Q769 255 769 272 L481 259 L481 256 ZM274 496 Q276 480 278 448 Q281 266 276 66 Q273 8 257 -18 Q243 -40 233 -13 Q227 8 228 50 Q236 248 232 450 Q230 495 227 517 Q156 433 60 349 Q51 340 45 345 Q39 350 48 361 Q256 613 318 728 Q330 752 344 790 Q348 804 360 799 Q379 790 390 780 Q400 771 392 757 Q320 631 251 546 L260 534 Q270 517 274 496 ZM944 125 Q960 94 934 94 Q830 97 343 69 Q326 69 318 85 Q306 109 321 110 Q689 128 749 132 Q872 140 908 145 Q931 149 944 125 Z" /><glyph glyph-name="uni4F4D" unicode="&#x4f4d;" d="M390 508 Q376 531 397 532 Q598 544 699 551 Q772 557 810 561 Q828 564 836 546 Q849 520 826 519 Q650 504 417 495 Q398 494 390 508 ZM444 410 Q516 340 559 223 Q573 186 552 170 Q530 154 519 192 Q498 258 433 399 Q426 414 430 417 Q433 421 444 410 ZM620 618 Q606 648 539 746 Q523 769 548 758 Q613 728 657 652 Q675 624 656 605 Q634 585 620 618 ZM264 439 Q268 423 268 397 Q271 222 265 40 Q264 -8 248 -31 Q234 -53 225 -27 Q219 -8 220 28 Q228 197 224 400 Q224 428 219 451 Q156 374 64 287 Q54 278 48 283 Q42 287 52 299 Q265 569 327 692 Q338 712 354 760 Q358 774 370 769 Q392 757 398 750 Q408 742 400 728 Q322 580 241 479 L249 471 Q260 459 264 439 ZM746 118 Q874 126 909 131 Q934 135 945 112 Q964 80 936 82 Q816 84 327 54 Q311 53 302 69 Q291 93 305 93 Q481 105 619 111 Q728 380 730 387 Q737 406 741 444 Q744 460 755 456 Q772 451 785 442 Q796 435 790 422 Q716 222 642 112 L746 118 Z" /><glyph glyph-name="uni4F4F" unicode="&#x4f4f;" d="M612 633 Q592 675 526 768 Q518 778 521 782 Q524 785 535 780 Q602 751 651 669 Q670 638 650 620 Q629 599 612 633 ZM278 457 Q280 448 282 413 Q284 197 279 39 Q278 -8 262 -35 Q248 -59 238 -32 Q229 -8 232 26 Q240 208 236 418 Q234 456 230 472 Q161 396 70 317 Q60 308 54 313 Q49 318 58 330 Q277 585 346 713 Q359 736 374 778 Q379 792 391 787 Q409 778 420 767 Q429 758 422 745 Q340 602 252 498 Q256 495 263 488 Q275 476 278 457 ZM696 345 Q760 349 790 353 Q808 354 816 338 Q828 312 806 311 Q754 306 645 300 L644 72 L753 79 Q867 86 912 93 Q933 97 945 74 Q962 41 936 43 Q882 43 356 17 Q340 16 331 33 Q318 57 333 57 L599 70 Q597 194 599 297 L459 291 Q441 291 433 305 Q420 328 440 329 L599 338 Q599 423 598 459 Q598 494 593 537 L593 539 Q528 534 411 529 Q396 528 388 544 Q378 567 391 568 Q598 577 709 586 Q801 594 834 601 Q851 604 863 582 Q877 553 854 553 Q815 552 636 541 L642 538 Q651 533 650 514 Q647 487 647 451 L646 341 L696 345 Z" /><glyph glyph-name="uni4F50" unicode="&#x4f50;" d="M262 437 Q266 418 266 391 Q269 222 264 24 Q263 -29 247 -54 Q233 -77 224 -50 Q217 -30 218 10 Q226 204 222 396 Q220 433 217 450 Q155 377 70 298 Q60 289 54 294 Q48 298 57 310 Q269 571 335 705 Q350 736 361 773 Q366 788 377 782 Q392 776 406 764 Q416 756 408 742 Q330 590 241 478 Q246 473 248 470 Q259 457 262 437 ZM534 569 Q592 739 603 800 Q605 815 619 812 Q635 808 648 798 Q659 790 654 776 Q644 743 582 569 Q607 570 715 579 Q815 588 848 594 Q866 598 877 577 Q892 548 869 548 Q854 548 567 529 Q471 278 315 135 Q296 117 291 121 Q286 126 302 146 Q441 322 518 526 Q496 524 459 522 L394 518 Q379 518 372 533 Q361 556 374 556 Q477 561 533 566 L534 569 ZM771 57 Q874 63 922 70 Q943 74 956 51 Q972 18 946 20 Q908 21 391 -3 Q374 -4 366 13 Q355 36 369 37 Q520 43 632 49 Q631 93 632 167 L632 263 L628 320 Q557 316 526 315 Q510 314 501 328 Q493 342 495 347 Q496 351 508 352 Q702 365 722 367 Q736 369 763 371 L803 375 Q820 378 828 360 Q839 335 818 334 Q744 327 665 322 Q666 322 669 320 L672 318 Q681 314 680 298 L679 256 Q677 150 677 52 L771 57 Z" /><glyph glyph-name="uni4F53" unicode="&#x4f53;" d="M248 523 Q257 509 260 487 Q262 472 264 441 Q267 266 262 60 Q261 8 245 -21 Q231 -45 221 -17 Q214 4 215 44 Q223 245 219 445 L218 472 Q218 488 217 496 Q146 411 59 333 Q50 324 44 329 Q38 334 47 345 Q248 597 302 700 Q308 712 327 761 Q331 775 342 770 Q358 762 371 751 Q381 743 373 729 Q304 608 243 529 L248 523 ZM441 170 Q425 168 416 182 Q403 204 422 206 L550 218 Q552 412 552 498 Q437 280 298 169 Q284 158 280 164 Q275 169 287 183 Q434 356 510 527 L352 513 Q336 512 328 527 Q317 550 330 551 L449 562 Q525 568 552 571 L552 715 Q550 770 544 801 Q539 822 557 817 Q578 809 594 796 Q604 786 603 765 Q602 756 600 704 L597 575 L676 583 Q771 592 809 600 Q828 604 840 583 Q857 553 832 553 Q778 551 614 537 Q704 385 845 275 Q864 260 896 241 Q935 218 947 210 Q959 202 960 198 Q960 195 948 191 Q938 189 926 182 Q911 174 906 172 Q891 168 877 179 Q692 325 597 516 Q595 426 595 222 L630 225 Q681 229 708 232 Q725 235 733 218 Q745 192 723 191 L595 182 Q596 158 596 110 L597 37 Q598 -11 585 -43 Q577 -62 571 -62 Q566 -62 559 -44 Q546 -5 547 36 L549 178 L441 170 Z" /><glyph glyph-name="uni4F55" unicode="&#x4f55;" d="M249 543 Q260 532 263 514 Q265 488 265 473 Q267 259 262 90 Q261 45 245 21 Q230 -4 222 23 Q215 44 216 77 Q225 265 221 478 Q221 502 220 512 Q156 438 62 354 Q52 345 46 350 Q41 355 50 366 Q266 628 325 732 Q340 760 351 794 Q357 808 367 802 Q380 797 395 784 Q404 775 396 762 Q323 638 247 545 L249 543 ZM589 459 Q506 456 432 450 L439 286 L579 294 Q585 401 589 459 ZM440 229 Q440 215 426 208 Q408 197 404 205 Q401 215 400 229 L395 346 Q392 421 389 450 Q388 468 382 484 Q379 494 381 496 Q382 498 391 497 Q408 496 420 488 L573 498 Q585 498 596 506 Q598 508 604 508 Q609 510 615 507 Q627 503 634 496 Q642 489 638 476 Q634 467 632 448 Q628 417 620 292 Q621 291 625 281 Q633 257 616 256 L440 247 L440 229 ZM769 646 Q780 639 777 624 Q776 618 773 573 L772 315 Q772 136 768 27 Q767 -12 746 -29 Q719 -50 710 -29 Q707 -23 600 7 Q589 9 590 15 Q590 20 602 20 Q721 17 721 28 Q729 273 727 598 Q727 622 724 644 Q481 628 373 622 Q357 621 349 637 Q336 660 351 660 Q597 673 755 686 Q873 697 910 704 Q930 707 941 685 Q956 656 932 656 Q903 655 767 647 L769 646 Z" /><glyph glyph-name="uni4F59" unicode="&#x4f59;" d="M331 212 Q341 221 346 219 Q350 216 346 205 Q313 123 206 45 Q162 12 156 49 Q152 68 175 85 Q240 126 331 212 ZM801 98 Q828 72 815 48 Q801 24 774 54 Q724 109 610 204 Q598 214 600 218 Q603 223 617 218 Q709 187 801 98 ZM506 489 Q515 483 514 468 Q512 442 512 425 L511 335 L617 341 Q747 349 787 356 Q808 359 819 337 Q835 307 811 307 Q751 307 511 296 Q511 130 507 5 Q507 -33 485 -50 Q457 -71 448 -50 Q446 -44 339 -16 Q328 -13 329 -8 Q330 -3 342 -3 Q459 -5 459 6 Q463 140 465 294 L338 289 Q250 285 189 283 Q172 283 164 298 Q153 321 167 321 Q341 327 465 333 L465 447 Q465 462 463 488 L349 483 Q332 482 325 496 Q312 518 331 519 L555 533 Q611 537 638 540 Q655 543 663 525 Q675 500 653 499 L504 490 L506 489 ZM507 748 Q666 587 821 509 Q843 497 880 483 L941 459 Q956 453 957 450 Q957 446 945 441 Q936 437 926 428 Q914 418 908 415 Q893 408 877 417 Q647 540 491 726 Q444 662 409 622 Q264 454 95 363 Q75 352 71 358 Q67 364 84 378 Q262 513 371 648 Q445 739 490 822 Q497 836 510 829 Q526 821 535 812 Q546 802 536 789 L507 748 Z" /><glyph glyph-name="uni4F5C" unicode="&#x4f5c;" d="M279 484 Q282 463 282 439 Q285 273 280 70 Q279 19 264 -5 Q249 -28 239 -3 Q231 22 233 57 Q240 254 237 444 Q236 484 227 505 Q154 414 60 333 Q50 324 44 329 Q39 334 48 345 Q247 588 308 707 Q323 739 333 770 Q337 786 349 779 Q368 770 379 760 Q389 750 380 737 Q311 614 246 529 Q255 523 262 516 Q275 505 279 484 ZM519 564 Q512 564 510 565 Q447 474 358 391 Q348 383 343 387 Q337 392 345 403 Q512 628 560 750 Q572 778 579 814 Q583 829 595 824 Q612 818 626 806 Q636 798 630 783 Q581 676 535 604 Q680 613 762 622 Q845 632 869 640 Q891 647 904 625 Q925 593 901 591 Q869 590 787 583 L618 570 Q624 566 624 546 Q624 500 623 478 L622 426 Q746 435 753 436 Q803 441 818 447 Q839 454 850 432 Q866 401 844 400 Q829 400 621 386 L619 227 Q784 240 777 239 Q826 242 846 248 Q868 255 879 233 Q896 201 873 201 Q822 201 618 189 Q617 129 615 66 Q613 -9 596 -58 Q583 -91 576 -57 Q566 -9 568 62 Q573 422 573 481 Q573 525 571 567 L519 564 Z" /><glyph glyph-name="uni4F60" unicode="&#x4f60;" d="M522 569 Q465 480 390 406 Q381 398 375 402 Q370 406 377 418 Q516 628 553 734 Q561 759 567 795 Q571 810 583 805 Q604 797 614 789 Q625 781 619 767 Q582 675 548 614 L810 630 Q824 631 835 638 Q843 649 857 641 Q870 634 887 619 Q901 605 888 596 Q873 585 863 574 Q821 522 774 457 Q759 443 753 447 Q747 450 755 469 Q773 513 814 588 Q605 576 525 569 L522 569 ZM286 486 Q290 467 290 440 Q293 270 288 73 Q287 21 271 -4 Q257 -27 247 0 Q240 20 241 60 Q249 254 245 443 Q244 481 237 502 Q172 426 77 345 Q67 337 62 341 Q56 346 65 357 Q266 592 330 714 Q344 740 355 776 Q361 790 371 784 Q391 774 400 765 Q409 757 401 743 Q331 618 260 530 Q266 524 269 520 Q282 505 286 486 ZM508 350 Q517 361 522 359 Q527 357 524 345 Q503 258 407 162 Q369 122 356 157 Q348 176 370 196 Q441 262 508 350 ZM651 483 Q660 478 659 463 Q655 437 655 422 Q653 369 653 239 L651 35 Q650 -3 628 -21 Q600 -43 590 -20 Q588 -14 476 14 Q465 17 466 23 Q466 28 478 28 Q601 24 601 36 Q608 219 606 444 Q606 466 603 487 Q599 501 618 497 Q633 493 651 483 ZM918 214 Q945 182 927 159 Q910 137 886 170 Q847 221 729 339 Q718 350 721 355 Q724 359 738 353 Q834 313 918 214 Z" /><glyph glyph-name="uni4F7F" unicode="&#x4f7f;" d="M262 447 Q266 430 266 402 Q269 229 264 37 Q264 -12 247 -39 Q233 -61 224 -35 Q217 -15 218 24 Q225 214 222 405 Q221 443 214 464 Q147 382 62 306 Q52 297 46 302 Q40 307 49 319 Q246 564 305 686 Q314 704 329 750 Q333 766 345 759 Q362 752 375 741 Q384 732 377 719 Q306 582 235 491 Q239 488 246 481 Q258 468 262 447 ZM445 483 Q447 467 454 364 Q537 368 579 371 Q584 416 584 461 L584 500 L444 489 L445 483 ZM775 511 Q719 509 632 503 L631 459 Q629 402 627 373 L768 382 L775 511 ZM758 551 Q775 552 785 558 Q789 560 791 560 Q794 561 802 559 Q816 553 823 547 Q831 540 827 527 Q822 513 821 499 Q817 456 812 378 L817 368 Q822 353 820 348 Q818 344 805 343 Q772 342 716 339 L622 334 Q607 224 563 152 Q669 79 790 46 Q821 38 866 30 L937 17 Q958 12 959 8 Q959 4 939 -4 Q931 -7 920 -15 L902 -27 Q886 -34 863 -29 Q675 18 539 116 Q470 29 318 -34 Q297 -43 292 -37 Q287 -32 306 -21 Q447 55 506 141 Q469 171 417 223 Q384 257 356 272 Q347 277 345 291 Q339 318 357 309 Q393 294 439 253 Q497 201 528 178 Q561 240 575 331 L457 325 Q457 312 443 304 Q423 293 420 301 Q415 311 414 323 L398 491 Q395 508 390 521 Q383 535 398 534 Q412 534 428 528 L585 539 Q585 600 584 627 L404 616 Q390 615 383 631 Q372 652 385 654 Q502 660 584 666 Q583 715 579 790 Q577 814 593 810 Q617 801 624 797 Q634 791 633 769 Q632 741 632 670 L689 674 Q769 679 808 687 Q826 691 837 669 Q851 641 828 641 Q787 640 632 631 L632 542 L758 551 Z" /><glyph glyph-name="uni4F8B" unicode="&#x4f8b;" d="M246 444 Q247 292 242 61 Q241 12 226 -13 Q212 -36 203 -10 Q194 11 197 48 Q206 250 202 450 Q200 482 198 498 Q145 430 67 358 Q58 350 52 354 Q47 359 55 370 Q230 597 282 718 Q291 740 302 781 Q306 795 317 790 Q332 784 346 774 Q356 765 349 752 Q290 623 221 528 L229 520 Q239 509 243 488 L246 444 ZM420 439 Q371 358 303 300 Q292 290 287 295 Q282 300 292 313 Q404 459 454 629 Q443 629 411 627 L364 625 Q352 625 346 641 Q337 664 349 664 L537 674 Q592 679 614 683 Q629 687 638 665 Q649 635 629 637 Q592 637 495 632 L497 630 Q504 622 499 610 Q470 533 443 480 L498 484 Q531 486 550 488 Q564 488 573 496 Q578 499 582 498 L591 496 Q603 492 617 482 Q627 474 621 459 Q609 437 600 405 Q524 152 307 43 Q289 34 286 40 Q282 46 298 57 Q421 147 481 244 Q469 241 457 256 Q442 275 368 345 Q360 352 362 356 Q363 360 373 358 Q431 348 485 293 Q496 280 496 270 Q539 348 563 448 L420 439 ZM717 251 Q717 224 705 209 Q693 190 682 208 Q671 227 672 249 Q679 417 676 515 Q676 534 671 554 Q666 568 681 565 Q699 561 711 554 Q722 548 721 536 L717 251 ZM852 779 Q861 773 860 755 Q857 730 855 698 Q854 626 853 386 Q853 162 850 40 Q849 0 827 -18 Q800 -41 791 -18 Q788 -11 685 18 Q674 21 675 26 Q676 32 687 31 Q802 29 802 41 Q812 373 809 725 Q807 767 804 784 Q800 801 819 795 Q836 790 852 779 Z" /><glyph glyph-name="uni4F9B" unicode="&#x4f9b;" d="M232 495 Q243 484 246 466 Q249 447 249 423 Q251 230 245 33 Q244 -11 228 -37 Q214 -61 204 -35 Q198 -13 199 20 Q207 232 204 429 Q204 451 201 470 Q145 402 62 322 Q53 314 47 318 Q41 323 49 334 Q255 603 305 701 Q317 722 330 764 Q334 780 346 773 Q361 767 375 755 Q385 747 377 733 Q304 601 226 501 L232 495 ZM522 221 Q545 204 549 199 Q558 187 548 177 Q415 25 315 -33 Q306 -38 301 -33 Q297 -28 305 -20 Q441 118 486 182 Q501 207 505 215 Q511 227 522 221 ZM669 223 Q776 157 866 30 Q892 -6 872 -28 Q855 -50 832 -12 Q798 44 659 209 Q646 224 650 228 Q654 233 669 223 ZM512 515 Q512 424 515 313 L667 322 Q670 437 673 524 L512 515 ZM749 327 Q882 335 916 341 Q939 345 952 322 Q970 290 943 290 Q833 292 323 261 Q305 260 297 276 Q285 300 300 301 L472 311 L467 512 L391 508 Q371 507 363 521 Q355 535 356 539 Q358 544 371 545 L466 551 Q466 598 464 666 Q463 701 458 739 Q457 751 458 753 Q460 755 469 753 Q489 748 500 742 Q509 737 509 717 Q510 703 510 658 Q511 627 511 554 L674 565 Q679 654 680 721 Q680 773 678 799 Q677 811 679 814 Q681 816 690 813 Q705 810 726 798 Q733 793 732 774 Q728 740 727 712 L720 568 Q785 572 820 575 Q838 578 846 560 Q859 534 836 533 L718 526 L711 325 L749 327 Z" /><glyph glyph-name="uni4F9D" unicode="&#x4f9d;" d="M607 671 Q584 707 506 789 Q497 799 500 803 Q503 807 514 803 Q582 785 643 710 Q664 684 647 663 Q628 639 607 671 ZM241 452 Q245 424 245 406 Q248 238 243 42 Q242 -10 226 -36 Q211 -59 202 -32 Q195 -11 196 28 Q204 221 200 409 Q198 450 192 473 Q130 400 53 328 Q44 319 38 324 Q32 329 41 340 Q248 609 297 705 Q310 733 321 769 Q326 783 338 778 Q354 770 367 759 Q377 751 369 737 Q297 604 213 498 Q220 494 226 486 Q237 472 241 452 ZM446 350 Q379 278 293 222 Q278 213 274 218 Q270 224 284 238 Q454 402 557 582 Q466 576 351 570 Q335 569 327 585 Q316 608 330 609 Q506 617 696 632 Q798 641 839 649 Q857 653 869 631 Q884 601 860 601 Q821 600 599 585 L602 581 Q604 579 605 577 Q611 567 604 555 L563 495 Q605 417 657 349 Q730 409 772 466 Q785 484 792 499 Q799 511 809 506 Q827 497 837 487 Q846 476 836 466 Q735 363 670 333 Q739 247 833 176 Q854 160 891 139 L950 104 Q963 96 963 92 Q964 89 951 85 Q942 83 929 76 Q915 68 908 66 Q892 60 878 72 Q658 230 545 471 Q513 426 473 380 L487 375 Q496 371 496 359 Q497 225 490 77 Q579 129 617 149 Q635 159 639 153 Q643 147 627 131 Q595 100 542 63 Q478 18 460 3 Q443 -11 432 -23 Q423 -32 414 -26 Q404 -18 387 3 Q381 11 386 16 Q386 20 393 23 Q404 27 412 32 L424 39 Q442 51 444 72 Q452 203 447 333 L446 350 Z" /><glyph glyph-name="uni4FA6" unicode="&#x4fa6;" d="M472 500 Q472 279 471 223 Q471 190 458 171 Q443 148 432 170 Q422 188 423 214 Q429 381 424 509 Q422 532 417 551 Q412 566 428 563 Q448 557 456 553 L458 552 Q538 558 573 560 L569 758 Q567 792 564 808 Q562 823 575 821 Q593 818 609 810 Q617 806 617 790 L616 704 L691 709 Q733 711 751 713 Q801 718 818 723 Q838 730 850 709 Q867 677 844 677 Q820 677 753 673 Q659 667 617 665 L618 563 L741 571 Q756 571 770 578 Q771 579 773 579 Q774 580 775 580 Q779 581 785 579 Q801 574 811 565 Q821 556 815 540 Q808 525 808 502 Q806 453 807 368 L808 218 Q808 191 791 175 Q770 156 763 177 Q760 186 760 222 Q762 276 762 370 Q762 475 763 529 Q553 517 471 511 L472 500 ZM273 473 Q275 456 277 429 Q279 252 274 59 Q273 13 257 -14 Q244 -36 233 -11 Q226 10 227 46 Q234 249 231 434 Q229 475 221 494 Q152 412 68 336 Q58 328 52 332 Q46 337 55 348 Q266 613 322 722 Q336 752 347 786 Q352 801 364 795 Q382 787 393 776 Q403 768 395 754 Q316 614 239 517 Q247 513 257 504 Q269 492 273 473 ZM653 415 Q651 398 648 360 L642 292 Q625 157 557 77 Q489 -2 347 -55 Q329 -62 325 -55 Q321 -49 339 -39 Q460 26 518 100 Q577 178 593 296 Q599 343 599 436 Q599 456 614 452 Q629 448 644 438 Q656 432 653 415 ZM861 16 Q892 -15 877 -41 Q861 -65 833 -32 Q769 40 643 151 Q629 163 632 168 Q635 172 650 166 Q753 126 861 16 Z" /><glyph glyph-name="uni4FA7" unicode="&#x4fa7;" d="M695 623 Q694 637 706 635 Q726 630 736 624 Q745 620 745 605 Q743 583 743 576 Q742 539 742 297 Q742 272 730 256 Q717 238 706 255 Q696 275 697 297 Q702 469 699 583 L695 623 ZM393 630 Q397 479 394 308 Q394 274 382 253 Q367 229 358 252 Q349 273 350 298 Q354 484 349 640 Q349 657 343 685 Q338 701 353 697 Q371 692 380 687 L383 685 Q421 688 478 691 L568 697 Q580 698 591 703 Q597 709 606 706 Q621 699 630 692 Q639 683 633 668 Q627 654 625 627 Q623 571 623 472 Q624 349 623 298 Q622 270 607 255 Q588 236 583 258 Q579 269 580 302 Q583 364 583 473 Q583 594 585 657 Q466 650 393 644 L393 630 ZM255 480 Q259 461 259 435 Q262 261 257 59 Q256 8 241 -17 Q227 -40 218 -14 Q211 7 212 46 Q220 220 216 439 Q215 482 206 504 Q147 424 62 339 Q53 330 47 334 Q41 339 49 350 Q232 599 283 714 Q295 744 304 780 Q308 795 319 790 Q334 784 347 773 Q356 765 350 752 Q292 627 224 529 L240 514 Q252 500 255 480 ZM518 546 Q516 526 515 480 L512 391 Q504 250 459 169 Q414 90 310 24 Q296 15 291 20 Q285 25 298 35 Q384 109 421 184 Q461 265 468 393 Q472 467 468 564 Q467 584 481 580 Q499 575 508 569 Q519 563 518 546 ZM499 217 Q574 191 640 113 Q662 87 647 68 Q631 48 610 75 Q579 119 492 204 Q482 213 485 217 Q488 221 499 217 ZM870 769 Q880 761 878 745 Q875 721 873 689 Q872 625 872 382 Q871 165 868 42 Q867 2 846 -15 Q819 -37 810 -15 Q808 -10 699 21 Q689 23 690 29 Q690 34 702 34 Q821 31 821 43 Q830 383 827 716 Q827 750 823 774 Q819 790 838 785 Q852 780 870 769 Z" /><glyph glyph-name="uni4FBF" unicode="&#x4fbf;" d="M248 531 Q260 517 261 501 Q264 480 264 458 Q264 223 258 61 Q257 14 242 -12 Q228 -36 219 -10 Q211 12 212 48 Q223 244 219 464 Q219 481 217 505 Q156 420 67 334 Q58 325 52 330 Q46 334 54 346 Q238 594 288 710 Q298 733 309 776 Q313 791 325 786 Q344 776 354 768 Q363 760 356 746 Q299 626 240 538 Q243 536 248 531 ZM583 437 L442 430 Q443 391 447 336 Q534 340 578 343 Q581 369 583 424 L583 437 ZM584 474 L584 562 Q529 559 433 551 Q434 545 434 533 Q438 495 439 466 L584 474 ZM781 573 Q725 571 631 565 Q631 509 630 477 L684 480 Q737 483 776 486 L781 573 ZM673 349 Q736 353 761 354 L769 354 Q772 434 773 448 L630 440 L629 423 Q627 370 624 346 L673 349 ZM794 622 Q799 627 807 622 Q819 618 830 610 Q841 603 835 591 Q830 584 830 571 Q818 403 817 333 Q816 301 790 291 Q772 284 771 294 L768 315 L619 307 Q604 210 566 144 Q668 75 786 43 Q819 35 865 26 Q919 17 940 12 Q962 8 962 3 Q962 -1 942 -9 Q935 -12 924 -19 Q911 -27 905 -30 Q889 -38 867 -32 Q681 14 542 108 Q476 23 327 -40 Q307 -48 302 -43 Q298 -38 316 -28 Q449 45 509 132 Q447 178 380 249 Q347 284 317 301 Q308 306 306 319 Q300 347 318 338 Q360 318 402 278 Q471 212 531 168 Q559 223 573 304 L447 298 Q446 288 434 281 Q415 269 412 278 Q407 288 406 304 Q404 325 397 431 Q392 513 388 545 Q387 566 381 581 Q375 596 389 595 Q404 593 411 590 L584 602 Q582 671 580 706 L580 709 Q469 699 426 696 Q412 695 405 710 Q395 733 407 733 Q625 751 667 755 Q736 762 769 769 Q786 773 797 752 Q810 724 789 724 Q730 723 625 712 Q634 707 633 687 Q632 674 632 649 L631 605 L762 614 Q781 615 791 621 L794 622 Z" /><glyph glyph-name="uni4FDD" unicode="&#x4fdd;" d="M250 521 Q261 506 262 491 Q265 470 265 448 Q263 168 258 42 Q257 -6 242 -32 Q228 -56 219 -30 Q211 -11 213 28 Q224 239 221 454 Q221 469 219 491 Q158 412 74 333 Q65 324 59 328 Q53 333 62 344 Q259 607 309 712 Q318 731 333 777 Q337 792 348 787 Q367 777 377 769 Q388 761 380 747 Q317 623 246 525 L250 521 ZM468 701 Q473 641 479 541 L661 550 Q654 549 717 553 L727 725 Q561 718 467 711 L468 701 ZM715 396 Q830 405 869 411 Q890 415 902 393 Q919 364 893 364 Q793 363 629 351 Q728 225 846 154 Q864 143 894 129 L945 106 Q958 99 958 96 Q959 92 947 88 Q938 85 926 77 Q914 69 908 66 Q895 59 880 69 Q707 178 608 335 Q607 285 607 179 L606 3 Q605 -35 592 -56 Q577 -83 566 -57 Q556 -33 558 1 Q562 169 564 314 Q437 134 298 62 Q283 55 280 61 Q276 67 290 77 Q438 197 524 344 L331 332 Q315 331 307 347 Q295 368 309 370 L564 386 L563 443 Q563 474 559 501 L559 504 L481 500 Q481 488 467 480 Q448 468 444 477 Q440 486 439 500 L431 612 Q425 685 422 712 Q419 733 414 745 Q410 755 412 757 Q413 759 422 758 Q436 758 453 751 L709 765 Q723 765 735 773 Q738 775 743 775 Q746 776 754 774 Q768 768 775 762 Q783 755 779 741 Q775 730 773 712 Q765 652 760 539 Q766 523 764 519 Q762 514 749 513 Q643 509 595 506 L603 501 Q613 494 612 477 Q611 469 611 456 L609 389 L715 396 Z" /><glyph glyph-name="uni4FE1" unicode="&#x4fe1;" d="M643 667 Q614 711 549 776 Q530 795 555 790 Q621 774 676 707 Q696 681 682 662 Q663 639 643 667 ZM268 472 Q272 453 272 426 Q275 254 270 38 Q269 -13 253 -39 Q239 -65 229 -36 Q221 -11 223 25 Q231 247 226 431 Q225 477 213 500 Q145 410 62 322 Q53 313 47 318 Q41 322 49 334 Q257 638 292 711 Q302 731 316 778 Q320 793 332 788 Q351 780 362 771 Q372 762 365 748 Q297 616 230 523 Q244 514 251 506 Q263 495 268 472 ZM494 174 Q496 156 503 46 Q633 52 696 56 L751 59 Q754 136 760 202 Q596 194 493 185 L494 174 ZM505 -5 Q506 -17 492 -26 Q472 -37 468 -29 Q464 -20 463 -6 Q460 19 455 94 Q450 160 447 184 Q444 203 439 215 Q435 225 437 227 Q438 229 448 229 Q463 227 471 224 L744 242 Q758 243 771 249 Q776 252 779 252 Q781 252 787 250 Q801 244 808 238 Q817 231 812 217 Q809 210 805 190 Q799 132 794 53 Q796 51 798 44 Q808 19 787 19 Q747 18 650 13 Q557 8 505 6 L505 -5 ZM806 377 Q824 378 832 362 Q844 336 821 335 L452 315 Q433 314 425 328 Q412 351 433 352 Q486 356 571 361 L706 370 Q771 374 806 377 ZM481 448 Q465 447 457 461 Q449 475 450 479 Q451 484 463 485 L573 492 Q642 495 679 498 Q732 502 761 505 Q778 506 786 490 Q797 465 776 464 L481 448 ZM938 627 Q953 598 929 598 Q871 597 360 564 Q344 564 336 579 Q323 602 338 602 L749 629 Q870 639 905 645 Q925 649 938 627 Z" /><glyph glyph-name="uni4FE9" unicode="&#x4fe9;" d="M251 481 Q254 460 254 437 Q256 258 251 55 Q250 10 233 -17 Q219 -41 209 -14 Q202 6 203 42 Q213 272 208 442 Q208 473 203 492 Q142 419 60 348 Q50 340 45 345 Q39 350 48 360 Q242 599 298 708 Q311 733 321 768 Q326 782 337 777 Q357 767 366 758 Q376 750 368 736 Q300 612 226 519 Q230 517 236 511 Q247 501 251 481 ZM686 523 Q690 592 687 651 Q687 657 688 660 L548 652 Q560 648 566 645 Q576 639 575 623 Q573 609 572 577 L568 517 L686 523 ZM814 529 Q831 530 845 537 Q850 541 858 539 Q860 539 862 538 Q871 535 884 526 Q894 518 889 507 Q884 496 883 475 Q881 422 880 263 Q879 114 876 34 Q875 -2 855 -14 Q829 -33 821 -14 Q820 -13 719 15 Q708 18 709 23 Q710 28 721 27 Q828 23 830 35 Q838 194 838 488 L726 483 Q718 383 700 316 Q762 288 811 222 Q829 196 814 179 Q798 160 780 188 Q764 213 694 296 Q664 201 593 115 Q583 103 577 107 Q571 110 578 123 Q664 272 683 481 Q638 480 564 476 Q554 395 541 343 Q581 329 614 286 Q630 264 617 248 Q599 229 585 254 Q568 281 534 320 Q506 223 432 138 Q422 128 416 131 Q410 134 417 146 Q501 285 520 473 Q443 469 402 466 Q402 450 403 440 Q406 309 404 50 Q404 8 391 -15 Q376 -45 366 -16 Q357 8 358 38 Q364 269 357 451 Q355 484 349 504 Q345 521 360 517 Q378 512 386 507 L524 515 L525 524 Q529 580 527 640 L527 651 L416 646 Q402 646 395 661 Q384 684 397 684 Q585 691 708 701 Q802 707 830 714 Q848 717 858 695 Q871 668 850 666 Q803 666 715 661 Q719 660 727 656 Q738 648 736 633 L733 584 Q731 547 729 525 L814 529 Z" /><glyph glyph-name="uni4FEE" unicode="&#x4fee;" d="M242 470 Q246 453 246 427 Q248 224 244 71 Q243 24 228 0 Q214 -23 205 2 Q197 26 199 59 Q207 261 202 432 Q202 468 192 491 Q139 422 59 352 Q49 344 44 349 Q38 354 47 364 Q223 584 275 704 Q285 727 295 766 Q299 782 311 775 Q324 770 339 757 Q348 750 342 735 Q275 600 210 513 Q218 509 226 501 Q239 489 242 470 ZM370 209 Q370 180 358 162 Q343 142 333 161 Q324 181 325 204 Q332 365 330 507 Q330 526 325 549 Q322 564 336 560 Q352 557 364 550 Q374 544 374 530 L370 209 ZM812 209 Q822 189 823 179 Q826 167 816 159 Q600 -17 379 -56 Q360 -59 358 -52 Q356 -45 376 -38 Q629 46 794 209 Q806 220 812 209 ZM438 111 Q423 108 421 114 Q419 120 434 127 Q622 207 737 318 Q747 328 753 318 Q763 298 765 289 Q768 278 758 271 Q593 145 438 111 ZM458 256 Q445 253 443 259 Q441 265 454 272 Q599 347 683 428 Q692 437 698 428 Q708 413 711 401 Q712 389 704 383 Q566 284 458 256 ZM527 627 Q569 587 614 552 Q668 609 716 684 L565 675 Q558 675 556 676 L524 630 L527 627 ZM743 731 Q746 736 757 731 Q768 725 782 713 Q793 702 783 689 Q768 673 750 647 Q701 578 649 527 Q733 471 820 443 Q844 435 884 426 L948 411 Q974 404 953 394 Q944 390 935 381 L919 368 Q907 361 889 366 Q728 418 622 502 Q533 425 416 376 Q398 369 396 375 Q393 381 409 391 Q517 456 590 528 Q548 566 512 609 L510 612 Q473 567 429 529 Q421 523 416 527 Q411 531 418 540 Q530 702 553 757 Q558 770 565 798 Q569 812 580 807 Q592 802 607 791 Q616 783 610 770 Q599 748 579 715 L718 724 Q731 724 743 731 Z" /><glyph glyph-name="uni5019" unicode="&#x5019;" d="M432 544 Q418 543 410 559 Q400 581 413 581 Q617 592 695 597 L712 702 Q572 692 513 690 Q502 689 494 709 Q487 725 489 729 Q490 733 499 733 Q571 734 705 743 Q718 744 725 748 Q730 754 742 750 Q756 745 764 738 Q775 729 766 717 Q760 707 757 694 Q748 656 737 600 Q823 606 854 612 Q872 616 883 594 Q897 566 874 566 Q823 566 703 559 Q532 548 432 544 ZM234 515 Q246 503 247 486 Q250 465 250 444 Q252 255 246 58 Q245 14 230 -11 Q215 -36 207 -9 Q200 12 201 45 Q209 256 206 450 Q206 474 204 485 Q142 401 62 326 Q53 317 47 321 Q41 326 50 337 Q237 588 290 709 Q302 735 312 776 Q316 791 328 786 Q347 776 356 769 Q365 760 359 747 Q295 613 229 519 L234 515 ZM356 194 Q343 174 333 194 Q325 213 325 234 Q331 383 328 517 Q328 534 323 556 Q319 570 333 566 Q349 562 358 558 Q370 552 371 538 Q372 528 372 508 Q372 350 369 243 Q369 211 356 194 ZM646 284 Q699 287 738 290 Q838 296 867 303 Q887 306 898 284 Q912 255 888 255 Q837 256 671 247 Q741 124 847 55 Q865 43 897 29 L947 5 Q968 -6 948 -12 Q939 -15 927 -22 L906 -32 Q893 -37 880 -28 Q711 77 643 245 L637 245 Q589 54 368 -31 Q351 -38 347 -31 Q344 -25 361 -16 Q544 88 588 242 L422 232 Q407 232 400 248 Q390 270 403 271 L598 281 L600 291 Q609 342 609 397 L520 392 Q484 339 439 305 Q431 299 426 303 Q421 307 427 316 Q508 433 527 493 Q532 510 535 530 Q538 544 549 538 Q565 532 577 523 Q587 516 580 503 Q554 448 543 431 Q651 438 712 444 Q738 446 788 452 Q805 453 813 437 Q824 413 803 412 Q727 404 655 400 Q664 392 661 379 L646 284 Z" /><glyph glyph-name="uni503C" unicode="&#x503c;" d="M257 471 Q261 443 261 423 Q264 241 259 28 Q258 -25 242 -52 Q228 -75 218 -48 Q211 -27 212 14 Q220 197 216 427 Q215 467 208 489 Q145 412 53 325 Q43 316 37 321 Q31 325 40 337 Q258 611 318 730 Q333 761 344 798 Q349 812 360 807 Q379 797 389 789 Q398 780 391 767 Q315 623 231 517 L236 512 Q240 508 241 506 Q253 493 257 471 ZM489 50 Q701 60 746 63 L746 149 Q710 148 622 143 Q537 138 489 136 L489 50 ZM751 501 Q556 491 482 486 Q484 462 484 448 L485 409 Q612 415 670 419 L749 423 L751 501 ZM489 175 Q601 180 667 184 Q690 186 739 188 L746 188 L747 267 L488 254 L489 175 ZM748 383 L486 370 L488 292 L711 305 Q737 307 747 307 L748 383 ZM778 548 Q792 544 806 535 Q818 527 811 509 Q802 486 801 461 Q797 398 790 66 Q879 70 917 77 Q940 81 953 57 Q971 24 943 26 Q877 27 316 1 Q300 0 291 17 Q278 41 294 41 L446 48 L446 58 Q440 399 436 469 Q435 498 430 519 Q427 531 429 533 Q430 536 440 534 Q452 531 463 525 Q513 530 558 531 Q576 597 584 632 Q506 627 411 623 Q397 623 390 639 Q379 660 392 662 Q424 663 593 672 Q600 706 606 748 Q609 774 609 800 Q609 816 623 813 Q646 806 654 802 Q665 796 662 781 L637 674 L712 679 Q804 685 836 691 Q856 694 866 672 Q879 644 856 644 Q795 644 625 634 Q607 576 582 533 L736 541 Q749 542 762 548 Q769 552 774 549 L778 548 Z" /><glyph glyph-name="uni5047" unicode="&#x5047;" d="M825 753 Q839 747 845 741 Q854 734 849 721 Q846 714 842 694 Q839 675 828 562 L832 552 Q840 528 822 527 L635 518 Q619 517 614 531 Q609 547 611 551 Q613 556 623 556 L786 566 Q791 639 798 706 Q695 698 658 696 Q649 696 641 715 Q635 731 636 735 Q637 739 646 738 Q691 739 792 746 Q802 746 807 750 Q812 755 819 755 L825 753 ZM340 754 Q349 746 343 733 Q289 621 224 526 L230 520 Q242 511 243 492 Q245 478 245 449 Q245 242 240 68 Q239 21 226 -3 Q213 -28 202 -2 Q193 19 194 55 Q205 280 200 458 Q200 480 199 490 Q140 411 69 336 Q61 328 55 332 Q49 336 56 347 Q243 624 276 697 Q286 718 297 760 Q301 775 312 770 Q327 763 340 754 ZM534 571 Q536 639 540 702 Q487 700 409 694 L409 564 L534 571 ZM542 270 Q560 271 567 254 Q578 230 559 229 Q535 227 488 225 L410 221 L409 76 Q408 22 397 -6 Q390 -23 382 -23 Q374 -24 369 -7 Q361 22 362 63 Q370 426 363 658 Q361 700 356 730 Q351 751 368 745 Q387 738 394 733 L523 742 Q535 742 546 749 Q551 752 554 752 Q559 754 565 751 Q575 748 585 740 Q593 734 589 721 Q584 706 584 695 Q581 673 575 570 Q577 569 580 558 Q588 535 571 535 L410 526 L410 414 L537 423 Q555 424 562 407 Q573 382 554 382 Q532 380 487 379 L410 375 L410 260 L542 270 ZM955 18 Q970 8 969 5 Q969 2 952 0 Q945 -1 934 -5 Q922 -10 916 -11 Q901 -14 884 -4 Q783 61 720 140 Q644 53 523 -3 Q505 -11 502 -5 Q499 0 515 11 Q632 89 694 174 Q662 222 637 274 Q620 312 608 326 Q603 333 604 346 Q605 368 618 359 Q639 340 665 292 Q695 240 718 209 Q768 289 796 392 Q680 382 636 380 Q626 379 618 398 Q612 413 613 417 Q614 421 623 420 Q702 423 786 430 Q798 431 805 437 Q811 442 816 440 L823 438 Q838 431 847 424 Q858 415 851 402 Q840 381 830 350 Q796 246 746 175 Q794 120 862 74 Q879 62 910 45 Q942 27 955 18 Z" /><glyph glyph-name="uni505A" unicode="&#x505a;" d="M212 500 Q224 490 225 471 Q227 457 227 428 Q227 283 222 51 Q221 3 207 -21 Q194 -46 183 -19 Q174 2 175 38 Q186 261 181 438 Q181 460 180 470 Q123 393 55 325 Q47 316 41 320 Q35 325 43 336 Q214 579 261 695 Q272 723 280 762 Q284 777 296 772 Q315 764 325 755 Q334 747 328 733 Q269 600 205 506 L212 500 ZM347 277 Q352 212 355 137 L462 143 Q471 143 487 145 Q493 244 497 299 L346 288 L347 277 ZM481 338 Q494 339 505 346 Q506 347 507 347 L509 348 Q515 351 523 348 Q536 342 543 337 Q552 330 547 317 Q543 306 541 288 Q536 243 529 145 Q532 143 537 131 Q547 107 528 106 L356 97 L356 88 Q356 74 343 67 Q324 56 321 64 Q317 73 316 87 Q314 108 309 192 Q305 260 302 287 Q301 305 295 319 Q291 329 293 331 Q294 333 303 333 Q316 332 328 327 L403 333 Q403 394 405 494 L286 486 Q273 486 267 502 Q259 524 270 524 Q346 530 406 533 Q408 635 408 667 Q408 713 405 736 Q404 754 417 750 Q436 746 452 736 Q459 731 458 713 L454 659 L451 537 L466 538 Q514 542 545 548 Q562 553 570 531 Q581 503 561 503 Q519 503 450 497 L445 336 L481 338 ZM616 454 Q653 332 707 246 Q752 357 770 513 L650 504 Q643 503 638 506 Q631 490 615 458 L616 454 ZM959 2 Q971 -7 970 -10 Q970 -14 957 -16 Q948 -17 936 -22 Q921 -28 914 -30 Q899 -34 885 -21 Q778 62 711 162 Q638 41 506 -32 Q487 -42 483 -36 Q479 -31 497 -17 Q623 78 686 201 Q630 299 596 426 Q572 387 554 362 Q546 352 540 356 Q534 360 540 372 Q639 589 661 696 Q665 714 670 763 Q671 779 683 775 Q704 769 712 763 Q722 757 718 742 Q687 621 654 541 L737 548 Q782 552 803 555 Q862 563 875 568 Q895 575 907 555 Q923 526 902 524 L805 517 L810 512 Q818 504 815 488 Q789 318 734 204 Q781 140 840 87 Q861 68 900 43 Q943 14 959 2 Z" /><glyph glyph-name="uni505C" unicode="&#x505c;" d="M415 665 Q400 664 393 679 Q383 700 396 701 L621 715 Q612 718 606 731 Q595 754 549 818 Q538 835 557 830 Q609 816 642 764 Q658 739 641 722 Q637 718 633 716 L708 722 Q790 728 829 735 Q847 739 858 718 Q872 691 850 691 Q864 691 415 665 ZM505 503 L727 515 Q731 568 734 596 Q565 586 501 581 L505 503 ZM506 466 Q506 456 493 449 Q475 440 471 447 Q468 454 467 466 Q456 599 458 584 Q457 595 452 609 Q447 622 459 621 Q469 621 483 617 Q593 625 720 633 Q733 634 744 640 Q749 644 754 642 Q756 642 760 640 Q769 637 778 630 Q786 623 781 611 Q780 610 775 588 L767 513 Q771 510 773 502 Q781 479 763 479 L506 466 ZM252 487 Q256 470 256 442 Q261 272 254 82 Q253 30 236 6 Q222 -16 213 10 Q205 30 208 68 Q215 242 211 444 Q211 482 204 509 Q143 432 57 351 Q48 342 42 346 Q36 351 45 362 Q254 642 294 720 Q305 744 318 782 Q322 797 334 792 Q353 782 363 774 Q373 764 365 752 Q298 628 224 534 Q231 528 237 521 Q248 507 252 487 ZM763 307 Q780 310 787 293 Q798 271 778 268 Q711 264 646 259 L643 3 Q642 -32 621 -47 Q593 -66 585 -47 Q583 -43 479 -17 Q468 -14 469 -9 Q469 -4 481 -4 Q595 -6 595 4 Q598 117 598 237 Q598 250 597 257 Q551 254 461 250 Q445 249 437 262 Q426 283 444 284 L676 300 Q737 304 763 307 ZM862 437 Q868 442 878 435 Q895 421 904 410 Q916 394 903 387 Q893 382 883 372 Q867 356 827 296 Q799 275 809 308 Q819 339 841 389 Q595 375 412 360 L405 360 Q401 325 376 268 Q365 244 356 242 Q347 239 334 254 Q322 268 333 287 Q360 336 388 421 Q392 432 396 432 Q400 432 402 423 Q404 415 406 399 Q580 412 829 428 Q845 429 859 436 L862 437 Z" /><glyph glyph-name="uni5076" unicode="&#x5076;" d="M250 457 Q254 440 254 412 Q259 239 252 44 Q251 -7 235 -32 Q221 -55 212 -28 Q205 -8 206 31 Q214 202 210 415 Q209 460 200 482 Q139 411 59 340 Q49 332 44 336 Q38 341 47 352 Q245 594 303 707 Q315 731 327 769 Q331 783 343 777 Q356 772 371 759 Q380 750 373 737 Q297 600 220 505 Q232 495 235 491 Q248 475 250 457 ZM592 467 L592 571 L469 565 Q471 493 471 461 L592 467 ZM768 619 Q769 670 773 723 L633 716 Q636 710 636 695 L636 611 L768 619 ZM592 634 Q592 660 588 714 L524 710 Q484 708 463 706 L464 681 Q464 672 466 643 L468 602 L592 608 L592 634 ZM762 477 Q765 570 766 581 L635 574 L634 469 L762 477 ZM827 363 Q844 363 857 371 Q864 374 869 373 Q873 373 875 372 L898 360 Q908 354 904 341 Q900 331 898 314 L895 159 Q894 49 892 -8 Q891 -41 870 -54 Q843 -72 835 -53 Q834 -51 742 -27 Q731 -24 732 -19 Q732 -13 744 -14 Q843 -17 844 -7 Q850 93 852 323 L632 311 Q632 225 633 179 L725 209 L702 255 Q697 266 700 269 Q703 272 712 265 Q767 222 800 139 Q812 110 794 97 Q773 81 764 113 Q756 140 733 191 Q688 162 615 137 Q528 107 501 93 Q488 86 480 94 Q468 108 461 123 Q454 137 467 138 Q479 138 494 141 Q532 150 593 167 Q592 216 592 309 L410 297 L410 282 Q413 84 412 5 Q411 -29 399 -46 Q384 -68 374 -47 Q365 -28 366 -4 Q370 164 364 291 Q364 313 358 332 Q353 347 368 344 L380 340 Q388 338 392 336 Q455 341 592 349 L592 429 L470 423 Q467 415 457 409 Q438 397 435 407 Q431 417 430 434 Q421 674 419 697 Q416 721 412 735 Q407 750 421 749 Q433 748 442 743 L753 762 Q767 762 780 768 Q784 770 786 770 Q791 772 797 769 Q809 765 820 757 Q831 750 824 739 Q820 730 820 718 Q811 577 809 458 Q808 426 783 415 Q768 408 765 419 Q763 429 763 438 L633 431 L632 351 L827 363 Z" /><glyph glyph-name="uni507F" unicode="&#x507f;" d="M688 591 Q680 586 676 592 Q672 597 678 604 Q757 696 775 725 Q784 740 787 748 Q793 759 803 753 Q818 743 828 733 Q838 723 829 712 Q744 621 688 591 ZM491 594 Q473 623 408 694 Q393 711 415 706 Q476 690 523 630 Q543 608 527 588 Q510 567 491 594 ZM338 376 Q325 389 335 411 Q363 472 386 565 Q389 577 394 577 Q399 577 401 567 L404 550 L586 564 Q585 604 586 672 L586 760 Q586 785 583 812 Q581 827 593 825 Q612 821 627 813 Q635 809 634 793 L632 753 Q630 655 630 567 L830 580 Q848 581 859 590 Q866 595 873 592 Q877 592 881 589 Q895 582 908 568 Q921 555 909 547 Q893 537 887 529 Q865 503 824 442 Q811 430 806 433 Q801 436 806 453 Q807 457 843 540 Q602 526 419 511 Q410 511 407 513 Q406 462 379 395 Q363 351 338 376 ZM742 435 Q758 437 766 421 Q777 396 757 395 Q681 389 497 378 Q480 377 473 390 Q461 412 479 413 Q517 417 575 421 L669 428 Q716 432 742 435 ZM255 473 Q257 458 259 424 Q263 221 256 27 Q255 -32 238 -60 Q224 -82 215 -54 Q209 -37 210 10 Q218 215 214 426 Q214 466 211 500 Q145 412 58 328 Q49 319 43 323 Q37 328 46 339 Q241 605 289 707 Q299 728 312 773 Q316 787 327 782 Q344 775 356 765 Q365 756 358 743 Q295 619 232 529 Q240 519 243 513 Q253 491 255 473 ZM936 289 Q952 259 927 259 Q869 258 598 240 L605 230 Q612 218 603 207 Q539 121 471 49 Q598 69 756 86 L694 171 Q685 184 689 187 Q692 191 704 183 Q786 132 849 30 Q868 -2 850 -22 Q831 -41 814 -6 Q799 23 771 63 Q701 45 596 28 Q490 10 452 1 Q425 -7 413 -15 Q401 -20 395 -12 Q386 1 379 21 Q378 29 381 32 Q382 35 386 36 Q414 44 434 67 Q494 137 539 200 Q555 227 559 237 L341 222 Q325 221 317 237 Q305 259 319 260 Q600 277 742 290 Q867 299 902 306 Q923 310 936 289 Z" /><glyph glyph-name="uni50A8" unicode="&#x50a8;" d="M356 654 Q349 662 351 666 Q353 669 363 666 Q426 647 472 584 Q490 559 475 541 Q456 521 439 549 Q422 578 356 654 ZM237 465 Q240 444 240 421 Q243 255 238 51 Q237 1 222 -24 Q208 -48 198 -21 Q190 -1 191 38 Q200 229 196 426 Q195 465 188 487 Q131 421 63 360 Q54 352 48 357 Q42 362 51 372 Q244 621 290 711 Q305 741 313 770 Q318 785 329 779 Q351 768 359 761 Q369 752 361 738 Q284 603 208 510 Q218 502 222 497 Q234 485 237 465 ZM501 195 Q518 206 522 201 Q526 196 513 180 Q490 153 453 118 Q407 76 395 63 L374 37 Q367 27 357 33 Q341 43 330 58 Q322 66 329 73 L332 76 Q375 109 375 134 Q375 256 380 419 Q334 412 289 407 Q279 406 271 425 Q264 440 265 445 Q266 448 274 449 Q318 452 363 459 Q373 460 381 467 Q384 470 388 470 Q391 471 396 471 Q411 468 423 461 Q434 454 430 443 Q424 431 423 416 Q415 300 413 133 Q463 170 501 195 ZM809 293 Q784 291 716 288 L631 283 Q631 266 632 258 Q633 246 633 221 L634 181 Q720 185 759 188 L807 191 L809 293 ZM805 53 L806 152 L634 142 L634 43 Q718 47 756 50 L805 53 ZM786 476 Q889 486 908 491 Q927 495 938 473 Q952 445 930 445 Q890 444 723 433 Q666 371 607 322 L609 322 Q674 327 793 333 Q807 334 817 340 Q822 345 832 342 Q845 336 855 330 Q864 323 859 312 Q855 303 855 291 Q851 89 852 19 Q852 -14 827 -25 Q812 -32 810 -23 L806 13 L634 4 L634 -10 Q634 -25 619 -34 Q599 -45 596 -36 Q593 -24 592 -9 Q589 239 587 273 Q585 292 583 303 Q522 255 456 217 Q435 204 431 211 Q426 217 444 231 Q578 337 662 428 L490 415 Q476 414 468 430 Q458 452 470 452 L627 464 L627 591 Q600 589 548 587 Q532 586 525 600 Q512 623 531 624 L628 630 L628 736 Q628 770 624 797 Q623 815 636 811 Q657 806 670 798 Q678 793 677 777 L674 729 L672 634 L688 635 Q720 637 750 641 Q766 642 774 626 Q784 601 764 600 Q735 597 672 593 Q671 573 671 532 L670 467 L699 469 L743 522 Q825 627 870 709 Q877 723 889 717 Q907 707 913 702 Q923 692 915 679 Q843 573 781 498 L760 474 L786 476 Z" /><glyph glyph-name="uni50CF" unicode="&#x50cf;" d="M245 476 Q248 455 248 432 Q251 273 246 71 Q245 23 230 -1 Q217 -23 206 2 Q199 22 200 59 Q207 256 204 437 Q203 472 196 492 Q137 421 58 350 Q49 341 43 346 Q37 351 46 362 Q245 616 292 707 Q301 725 315 767 Q321 781 331 775 Q348 768 359 757 Q369 749 361 735 Q291 610 217 517 Q225 511 229 507 Q241 495 245 476 ZM435 570 Q440 496 441 473 Q480 474 544 478 Q583 528 613 588 Q548 585 434 577 L435 570 ZM497 690 Q492 690 491 691 Q457 648 427 616 L604 627 L649 699 Q569 696 497 690 ZM648 590 L654 581 Q659 572 652 560 Q630 522 599 481 L764 491 Q765 508 769 543 L774 597 L648 590 ZM556 428 L566 421 Q640 367 654 309 Q730 362 773 404 Q781 411 792 424 Q799 435 807 426 L827 403 Q833 390 823 384 Q737 325 714 313 Q777 209 871 137 Q885 126 911 112 Q941 95 952 88 Q971 76 952 71 Q943 69 931 62 Q918 55 912 53 Q898 49 887 59 Q754 167 692 303 Q673 294 657 289 Q678 139 657 -4 Q652 -40 630 -59 Q602 -80 594 -56 Q592 -48 487 -18 Q472 -14 473 -8 Q473 -1 488 -3 Q573 -11 590 -10 Q608 -10 609 0 Q624 99 619 204 Q477 68 318 31 Q302 27 299 33 Q297 40 313 47 Q502 129 615 268 L613 286 Q610 306 602 330 Q461 206 330 171 Q316 167 314 173 Q311 179 325 186 Q484 265 577 372 Q573 379 551 407 L544 416 Q459 328 332 286 Q316 281 313 287 Q310 293 326 302 Q441 363 511 438 L441 435 Q440 429 428 423 Q409 412 406 420 Q402 428 401 440 L396 512 Q393 559 390 578 L390 581 Q356 551 322 530 Q313 524 308 529 Q304 534 312 543 Q453 691 498 782 Q507 797 515 824 Q520 837 531 831 Q549 821 557 813 Q566 803 559 791 Q540 760 520 731 L586 735 Q626 737 649 739 Q659 739 671 744 Q679 750 688 744 Q702 734 709 725 Q718 716 709 707 Q667 654 641 629 L755 635 Q770 636 783 642 Q786 644 792 644 Q797 644 800 643 Q812 638 822 632 Q833 625 826 614 Q824 611 822 598 L809 467 Q807 441 783 434 Q766 430 765 439 Q763 445 763 451 Q707 449 568 441 L556 428 Z" /><glyph glyph-name="uni513F" unicode="&#x513f;" d="M309 451 Q315 575 308 691 Q308 714 323 709 Q338 705 354 697 Q364 691 363 671 Q362 646 361 577 Q360 500 358 449 Q350 268 285 167 Q223 69 74 -2 Q55 -11 50 -6 Q45 -1 62 10 Q191 93 245 186 Q302 284 309 451 ZM542 634 Q542 678 538 746 Q536 767 552 763 Q574 755 586 747 Q598 740 595 721 Q591 685 589 634 Q584 333 589 184 Q590 136 607 115 Q624 95 661 92 Q751 83 837 94 Q878 99 881 124 L886 173 Q889 204 892 223 Q895 240 901 239 Q907 239 907 221 Q909 121 924 106 Q948 82 927 67 Q905 50 850 44 Q753 34 655 43 Q545 53 541 182 Q539 268 541 420 Q543 582 542 634 Z" /><glyph glyph-name="uni5141" unicode="&#x5141;" d="M545 458 Q559 452 565 448 Q575 442 574 426 Q572 409 572 368 Q567 184 570 94 Q573 35 634 30 Q739 22 840 32 Q880 36 883 58 Q891 146 894 166 Q896 182 902 182 Q908 181 908 164 Q910 56 925 42 Q946 23 927 7 Q908 -9 851 -15 Q748 -24 629 -16 Q527 -8 523 92 Q521 148 523 238 L525 370 L522 454 L404 435 L413 430 Q424 423 421 406 L405 305 Q380 171 313 89 Q245 4 108 -56 Q90 -64 86 -58 Q82 -51 100 -41 Q315 89 357 311 Q366 356 368 428 Q319 420 276 410 Q249 403 230 393 Q219 387 212 396 Q202 409 194 432 Q192 439 194 442 Q195 446 201 449 Q238 464 267 505 Q337 603 412 729 Q433 768 444 804 Q449 820 463 812 Q478 802 491 786 Q500 774 490 759 Q389 591 289 461 Q470 488 654 506 Q620 558 575 622 Q565 636 569 640 Q573 643 586 635 Q674 574 740 461 Q762 425 741 404 Q720 385 703 422 Q693 442 669 482 L545 458 Z" /><glyph glyph-name="uni5143" unicode="&#x5143;" d="M320 685 Q302 685 295 699 Q281 722 302 723 Q520 735 570 739 L669 748 Q686 750 695 733 Q706 709 685 706 Q566 695 320 685 ZM378 467 Q288 462 187 458 Q170 457 162 473 Q150 496 164 497 Q466 510 612 522 Q736 531 783 539 Q803 542 815 520 Q832 489 806 489 Q727 488 562 478 Q569 475 576 471 Q588 465 585 449 Q586 460 583 394 Q580 190 582 137 Q583 81 645 76 Q753 68 859 78 Q899 82 902 103 Q910 188 913 206 Q915 221 921 221 Q927 221 927 204 Q929 101 944 88 Q965 69 946 53 Q926 37 869 31 Q760 22 640 31 Q538 38 535 136 Q533 187 535 272 L536 396 Q536 424 534 470 L534 476 L416 469 L422 466 Q433 459 430 442 Q427 430 421 396 Q416 364 412 347 Q381 212 311 128 Q238 41 98 -20 Q78 -28 75 -22 Q71 -15 90 -4 Q314 131 364 354 Q374 401 378 467 Z" /><glyph glyph-name="uni5145" unicode="&#x5145;" d="M493 689 Q471 736 417 808 Q410 818 412 821 Q415 825 425 821 Q485 799 531 725 Q549 697 532 678 Q509 656 493 689 ZM193 375 Q193 383 201 386 Q232 395 259 420 Q333 491 399 569 Q414 589 427 610 L173 596 Q155 596 147 612 Q135 635 150 636 Q513 654 624 661 Q772 671 800 676 Q823 680 836 658 Q854 626 827 626 Q736 627 466 612 L476 598 Q483 586 472 573 Q382 474 297 399 Q470 422 658 438 Q624 483 574 541 Q564 554 567 558 Q570 562 584 554 Q675 504 749 393 Q771 359 753 339 Q735 318 714 353 Q705 369 675 415 L552 394 Q564 392 581 383 Q593 377 589 363 Q587 348 585 313 Q582 151 584 89 Q585 41 642 36 Q748 28 849 38 Q888 42 889 61 Q897 147 900 163 Q902 178 908 178 Q913 177 914 161 Q916 58 930 47 Q951 28 932 12 Q913 -3 859 -9 Q753 -18 637 -9 Q540 -2 537 88 Q536 131 537 207 L538 315 Q538 351 535 382 L535 392 L464 381 Q419 375 398 371 Q393 373 411 364 Q422 356 418 341 Q415 329 410 300 Q405 271 401 256 Q373 141 302 71 Q227 -1 86 -42 Q67 -47 64 -40 Q62 -33 81 -25 Q309 79 353 264 Q364 310 366 366 Q329 360 272 349 Q250 344 227 334 Q215 328 210 337 Q199 353 194 371 L193 375 Z" /><glyph glyph-name="uni5148" unicode="&#x5148;" d="M588 381 Q598 374 596 361 Q597 370 594 312 Q591 150 593 88 Q596 42 649 37 Q748 29 845 39 Q881 41 884 61 Q894 161 893 155 Q896 170 902 169 Q907 169 908 153 Q910 58 923 47 Q944 28 926 14 Q906 -2 855 -6 Q757 -15 644 -7 Q551 0 548 88 Q546 134 547 206 L549 314 Q549 348 546 379 L546 381 L437 376 L442 373 Q453 366 448 351 Q445 343 437 315 L426 280 Q346 62 104 -18 Q84 -24 82 -17 Q79 -11 98 -1 Q316 105 379 291 Q390 320 398 374 L150 361 Q132 361 124 376 Q112 399 126 400 L477 417 L480 566 L311 556 Q268 488 209 439 Q201 432 196 436 Q191 440 198 450 Q293 595 313 656 L323 698 Q326 712 338 707 Q353 701 367 691 Q377 684 371 670 Q346 618 333 595 L481 605 Q483 707 483 741 Q483 775 480 809 Q479 827 492 823 Q511 819 527 809 Q535 805 534 787 Q531 742 531 732 L526 608 L586 613 Q674 621 697 628 Q719 635 733 612 Q753 579 728 579 Q689 578 525 569 Q525 550 523 497 L521 419 L622 425 Q753 432 806 439 Q829 443 842 421 Q860 390 833 390 Q727 390 584 383 L588 381 Z" /><glyph glyph-name="uni5149" unicode="&#x5149;" d="M568 499 Q559 494 555 500 Q551 505 558 513 Q666 627 703 681 Q714 698 719 710 Q726 722 736 715 Q751 705 763 693 Q773 682 763 671 Q643 541 568 499 ZM347 502 Q325 539 235 649 Q226 659 229 663 Q232 667 243 662 Q319 627 381 541 Q403 512 386 491 Q367 469 347 502 ZM610 446 Q740 455 789 463 Q810 467 823 445 Q841 414 815 414 Q725 414 552 403 Q554 403 563 398 Q573 392 572 377 Q570 361 570 325 Q566 182 569 91 Q570 40 629 36 Q743 28 841 37 Q881 41 882 62 L887 119 Q890 156 893 177 Q895 192 901 192 Q907 191 908 175 Q910 61 924 47 Q945 28 927 13 Q905 -5 851 -9 Q746 -18 625 -10 Q525 -2 522 90 Q520 139 521 214 L523 327 Q523 363 520 396 L520 401 L403 394 L412 389 Q423 382 419 366 L402 279 Q373 159 303 87 Q230 11 91 -37 Q72 -43 69 -36 Q66 -30 85 -20 Q308 92 354 287 Q364 331 368 390 L368 392 Q274 386 155 380 Q139 379 130 395 Q117 418 132 418 Q321 427 457 436 Q456 503 458 597 L459 726 Q457 768 455 790 Q453 808 467 804 Q485 800 503 790 Q511 786 510 769 L507 718 Q503 588 502 439 L610 446 Z" /><glyph glyph-name="uni514D" unicode="&#x514d;" d="M458 517 Q339 510 271 503 L272 492 Q277 383 278 342 L355 346 Q404 348 430 350 Q435 364 440 387 Q452 436 458 517 ZM353 663 Q307 597 252 544 L256 542 L478 558 L566 678 Q414 668 358 663 L353 663 ZM689 365 Q689 378 695 531 L498 520 L503 517 Q514 510 511 492 L500 437 Q494 400 489 380 Q485 362 482 353 L689 365 ZM671 570 Q691 571 701 578 Q708 582 714 580 Q716 580 722 578 Q735 575 746 567 Q756 560 750 545 Q744 531 743 515 Q741 491 734 367 Q741 365 747 351 Q753 334 751 330 Q748 325 733 325 Q660 322 470 312 Q388 68 97 -44 Q74 -53 70 -46 Q67 -39 90 -27 Q340 104 417 309 Q371 306 279 302 L279 300 Q279 286 264 278 Q243 268 239 276 Q235 285 235 300 L230 407 Q227 477 224 504 L222 516 Q178 479 137 451 Q126 444 121 449 Q116 454 126 464 Q301 641 364 764 Q370 776 386 815 Q390 830 402 823 Q420 813 429 804 Q439 794 430 782 L383 705 Q448 711 568 719 Q581 719 591 725 Q599 733 611 725 Q622 718 634 704 Q643 694 634 684 Q561 598 521 560 L671 570 ZM945 34 Q965 17 946 1 Q924 -14 866 -20 Q730 -31 584 -20 Q480 -13 477 67 Q475 98 476 148 L477 222 Q477 242 475 274 Q474 289 487 287 Q505 284 520 277 Q531 271 528 258 Q525 243 525 220 Q521 138 524 68 Q525 28 588 24 Q719 15 857 25 Q900 29 903 48 Q911 130 914 144 Q916 159 922 158 Q927 158 928 142 Q931 45 945 34 Z" /><glyph glyph-name="uni515A" unicode="&#x515a;" d="M575 609 Q567 604 563 609 Q559 614 566 621 Q657 730 672 755 Q680 766 685 780 Q690 792 701 785 Q720 773 727 764 Q738 754 727 743 Q635 642 575 609 ZM332 618 Q311 649 238 726 Q220 745 245 740 Q309 722 364 656 Q385 631 370 612 Q351 589 332 618 ZM188 573 Q264 578 453 589 Q452 631 453 689 L454 770 Q452 804 450 820 Q449 835 461 833 Q482 828 497 820 Q504 816 503 801 Q501 779 501 763 L497 592 Q545 595 777 607 Q798 608 812 617 Q818 621 826 619 Q830 618 834 615 Q853 601 861 590 Q875 576 861 568 Q845 557 838 549 Q816 524 764 451 Q750 439 745 442 Q740 446 747 463 Q759 494 795 567 Q419 548 205 533 Q198 532 191 535 Q190 480 157 397 Q139 349 114 375 Q100 389 111 413 Q145 489 170 582 Q174 594 179 595 Q184 595 186 584 L188 573 ZM350 292 Q460 295 548 301 L606 304 Q612 392 616 439 Q373 427 342 425 L350 292 ZM351 253 Q349 241 337 235 Q318 224 315 233 Q311 241 310 254 L304 344 Q301 402 298 425 Q294 446 291 455 Q287 465 289 467 Q290 469 299 468 Q317 466 325 462 Q363 465 600 478 Q615 479 626 486 Q630 488 636 488 Q639 488 643 486 Q657 480 663 475 Q671 468 666 455 L660 428 Q658 410 649 299 Q653 292 653 290 Q658 275 656 270 Q654 266 642 265 Q578 263 548 261 L565 255 Q576 250 573 237 Q570 222 570 200 Q566 118 569 48 Q570 12 621 8 Q737 0 839 9 Q874 11 877 29 Q886 120 887 123 Q889 137 895 137 Q900 137 900 121 Q903 27 916 17 Q936 -1 918 -15 Q898 -31 848 -35 Q736 -44 617 -35 Q526 -30 523 47 Q522 78 523 128 L524 202 Q524 229 521 253 L521 260 Q486 259 414 255 Q420 253 430 247 Q440 240 436 227 Q432 217 426 196 L416 164 Q345 -16 101 -65 Q81 -69 80 -61 Q78 -54 97 -47 Q314 27 369 176 Q380 206 386 250 L387 254 L351 253 Z" /><glyph glyph-name="uni5165" unicode="&#x5165;" d="M440 565 L410 626 Q384 683 344 686 Q330 687 327 706 Q323 727 345 726 Q403 721 443 643 Q582 368 793 197 Q825 171 871 139 Q920 104 940 88 Q956 75 956 72 Q955 69 937 68 Q944 68 897 57 Q881 53 863 67 Q610 267 472 508 Q327 196 91 60 Q72 49 68 55 Q64 61 82 76 Q325 270 439 562 L440 565 Z" /><glyph glyph-name="uni5168" unicode="&#x5168;" d="M511 71 L623 78 Q750 87 799 95 Q821 98 832 76 Q850 45 824 45 Q807 45 178 13 Q161 13 152 29 Q139 52 155 52 Q438 66 467 68 Q465 159 467 236 Q373 230 327 228 Q309 227 301 241 Q293 255 295 259 Q296 263 308 264 L467 275 L467 356 L463 422 L343 416 Q327 415 319 429 Q312 443 313 447 Q314 452 325 453 Q535 466 554 468 Q609 472 639 475 Q656 478 664 460 Q675 437 654 434 Q603 430 501 424 L509 420 Q517 415 516 398 Q514 370 514 349 L513 279 L562 282 L657 291 Q674 292 682 276 Q694 251 673 250 L513 238 L511 71 ZM948 412 Q963 406 964 403 Q966 399 953 394 Q944 390 934 382 Q922 373 916 370 Q902 362 885 371 Q646 492 491 679 Q460 635 416 586 Q267 415 86 315 Q65 304 61 310 Q57 316 75 330 Q261 468 378 611 Q461 712 504 793 Q512 806 524 800 Q540 792 548 784 Q559 774 550 761 L507 701 Q658 543 824 462 Q847 451 885 437 Q934 418 948 412 Z" /><glyph glyph-name="uni516C" unicode="&#x516c;" d="M404 649 Q413 640 406 627 Q280 397 105 255 Q95 247 90 252 Q84 257 94 267 Q279 480 339 601 Q347 615 362 659 Q366 674 378 667 Q396 657 404 649 ZM571 261 Q667 183 734 56 Q753 17 732 -2 Q713 -18 695 20 Q679 56 647 110 Q575 93 458 72 Q350 52 304 40 Q282 34 262 23 Q252 18 245 27 Q233 42 228 61 Q224 71 232 74 Q233 75 234 75 L236 76 Q281 91 309 134 Q371 225 450 368 Q471 411 480 444 Q485 461 498 453 Q513 443 525 428 Q535 417 526 402 Q435 240 331 92 Q476 115 633 134 L597 190 Q573 226 559 249 Q549 265 553 269 Q557 272 571 261 ZM929 353 Q944 341 943 338 Q942 335 924 333 Q915 332 904 327 Q891 322 884 321 Q868 317 853 331 Q646 516 556 687 Q538 721 525 732 Q515 742 516 757 Q519 785 536 772 Q560 753 588 708 Q688 544 818 436 Q844 415 878 390 L929 353 Z" /><glyph glyph-name="uni5171" unicode="&#x5171;" d="M395 200 Q411 186 418 176 Q426 164 415 155 Q248 7 147 -37 Q137 -42 133 -36 Q129 -30 139 -23 Q259 67 352 165 Q360 174 378 197 Q385 209 395 200 ZM583 200 Q692 151 805 32 Q836 -2 820 -27 Q805 -51 776 -17 Q716 54 575 184 Q561 197 564 202 Q567 207 583 200 ZM579 310 L586 524 Q524 520 392 514 Q392 379 395 299 L579 310 ZM674 316 Q844 327 897 334 Q923 339 938 315 Q960 280 930 282 Q801 283 87 240 Q68 239 58 256 Q43 280 60 280 L352 297 Q349 372 347 512 L229 506 Q209 505 200 519 Q192 532 194 537 Q195 541 209 543 L347 551 Q347 591 345 653 Q344 674 340 726 Q339 738 340 740 Q342 742 351 740 L380 729 Q389 724 390 704 Q389 715 392 645 L392 553 L587 565 L592 715 Q593 749 590 794 Q589 813 603 808 Q619 804 638 793 Q647 788 644 769 Q640 735 639 705 Q636 647 633 568 Q675 570 749 576 Q768 577 776 560 Q788 535 766 534 L631 526 Q625 404 623 313 L674 316 Z" /><glyph glyph-name="uni5173" unicode="&#x5173;" d="M374 615 Q355 646 271 751 Q262 761 265 765 Q268 768 279 763 Q349 733 409 652 Q429 625 412 604 Q392 584 374 615 ZM478 366 L621 376 Q768 387 813 394 Q836 398 850 376 Q869 344 842 344 Q750 344 503 329 Q626 145 800 51 Q825 37 869 20 Q925 -2 940 -9 Q955 -16 956 -20 Q956 -24 943 -28 Q934 -31 921 -40 Q907 -49 900 -52 Q886 -58 867 -49 Q602 83 472 327 L470 327 Q439 190 351 104 Q263 18 96 -38 Q73 -46 69 -38 Q66 -31 88 -21 Q362 104 419 324 L125 305 Q106 304 98 319 Q84 343 100 343 L427 363 L430 378 Q440 438 442 533 L442 537 Q379 533 245 527 Q226 526 217 540 Q209 553 211 558 Q212 562 225 563 Q407 575 502 582 Q515 606 564 687 Q599 745 613 777 Q619 789 625 815 Q628 829 640 824 Q657 816 670 807 Q681 798 674 785 Q592 647 529 584 L575 588 Q617 591 701 599 Q720 602 728 585 Q741 559 718 558 Q601 548 480 540 L488 535 Q499 528 496 510 Q493 493 488 446 Q483 400 479 373 L478 366 Z" /><glyph glyph-name="uni5174" unicode="&#x5174;" d="M486 538 Q468 598 400 726 Q393 740 397 744 Q401 747 412 738 Q486 677 528 570 Q543 532 521 517 Q497 500 486 538 ZM316 466 Q290 522 211 635 Q202 647 206 651 Q209 655 221 648 Q297 604 355 503 Q374 469 354 451 Q333 430 316 466 ZM403 276 Q420 265 430 253 Q439 241 429 231 Q271 51 152 -14 Q142 -19 138 -14 Q133 -8 142 0 Q296 142 362 234 Q377 255 386 271 Q392 284 403 276 ZM560 273 Q680 206 794 64 Q824 25 805 1 Q789 -22 763 17 Q702 104 549 259 Q534 274 538 278 Q542 282 560 273 ZM656 420 Q823 435 865 442 Q888 446 902 424 Q923 391 894 391 L117 343 Q98 342 89 357 Q75 381 91 381 Q343 397 567 413 Q689 631 710 692 Q718 715 724 750 Q727 766 739 761 Q760 753 771 745 Q781 738 775 723 Q690 529 598 415 L656 420 Z" /><glyph glyph-name="uni5176" unicode="&#x5176;" d="M409 156 Q420 148 432 133 Q440 121 429 112 Q273 -29 180 -70 Q171 -75 167 -69 Q164 -63 173 -56 Q293 39 370 123 Q382 137 393 153 Q400 164 409 156 ZM574 150 Q679 106 784 0 Q812 -30 798 -55 Q784 -77 756 -46 Q695 24 566 136 Q553 147 555 152 Q558 157 574 150 ZM379 223 L609 236 L609 335 Q480 328 378 324 L379 223 ZM610 611 Q494 604 377 599 L378 498 Q454 501 546 506 Q566 508 610 510 L610 611 ZM378 361 Q454 364 541 369 Q586 371 607 373 L609 373 L609 471 L378 460 L378 361 ZM663 239 Q828 250 880 257 Q904 261 918 239 Q937 207 910 207 Q831 207 98 169 Q79 168 70 184 Q57 207 72 207 L337 221 Q335 300 334 424 Q333 553 332 597 L214 592 Q195 592 186 606 Q178 619 180 623 Q181 627 195 628 L331 635 L331 655 Q331 692 326 737 Q325 750 326 752 Q328 754 337 752 Q355 747 371 738 Q378 733 378 714 Q377 695 377 647 L377 637 Q465 641 610 651 L610 712 Q610 742 606 802 Q605 815 606 818 Q608 820 618 818 Q640 811 653 802 Q662 797 661 776 Q658 716 658 703 L657 654 L783 663 Q802 664 810 649 Q822 624 800 623 L656 614 L653 238 L663 239 Z" /><glyph glyph-name="uni5177" unicode="&#x5177;" d="M404 171 Q420 157 427 146 Q434 135 424 126 Q253 -10 154 -47 Q144 -52 141 -46 Q137 -40 147 -33 Q261 43 361 140 Q372 150 387 169 Q395 179 404 171 ZM787 24 Q820 -6 805 -32 Q791 -57 760 -25 Q686 54 558 152 Q544 163 547 168 Q549 172 566 167 Q671 131 787 24 ZM353 336 L353 245 Q353 239 352 237 L650 253 L650 350 Q618 349 508 343 Q414 338 356 336 L353 336 ZM347 629 L653 646 Q653 679 655 735 Q404 722 345 717 L347 629 ZM353 373 L610 387 Q638 389 648 389 L650 389 L651 478 Q618 477 506 471 Q410 466 351 464 L353 373 ZM652 607 L506 600 Q409 594 351 592 L349 592 L351 502 Q453 506 569 513 L651 518 L652 607 ZM915 252 Q936 219 907 219 Q748 221 106 182 Q87 181 78 197 Q64 221 80 221 L309 234 L309 249 Q303 624 299 700 Q296 733 292 755 Q289 767 291 769 Q292 772 302 770 Q320 765 331 757 Q365 760 637 776 Q652 777 664 783 Q672 789 682 786 L708 772 Q717 764 712 746 Q707 728 705 694 Q701 620 694 256 Q828 264 874 271 Q901 275 915 252 Z" /><glyph glyph-name="uni517B" unicode="&#x517b;" d="M405 683 Q388 712 329 784 Q322 792 325 796 Q327 799 336 796 Q394 778 438 717 Q455 693 440 675 Q421 654 405 683 ZM416 292 Q427 287 424 272 Q426 284 417 181 Q407 86 361 30 Q315 -25 217 -63 Q204 -68 200 -62 Q197 -57 209 -49 Q356 40 370 185 Q374 219 374 290 Q373 307 387 303 Q404 300 416 292 ZM604 299 Q614 294 613 277 Q612 264 612 235 L609 15 Q607 -36 593 -67 Q580 -91 574 -66 Q564 -36 564 12 Q565 86 565 237 Q565 264 563 292 Q562 305 564 307 Q565 308 578 306 Q588 305 604 299 ZM580 676 Q680 685 713 691 Q731 695 742 674 Q757 646 735 646 Q705 645 488 631 Q491 629 495 625 Q504 617 498 601 Q482 554 481 553 L570 559 Q640 563 674 567 Q692 568 700 553 Q711 528 690 527 Q616 521 465 513 Q443 461 427 434 L627 448 Q769 459 813 466 Q836 470 850 449 Q869 419 842 419 Q760 418 592 408 Q706 302 823 259 Q845 251 880 243 L937 228 Q962 222 942 211 Q933 207 923 198 Q911 187 906 184 Q894 177 877 183 Q678 258 560 406 Q552 405 405 395 Q303 231 100 142 Q85 135 82 142 Q78 148 93 157 Q266 261 351 391 L144 376 Q126 375 118 390 Q105 412 120 412 Q253 422 376 430 Q400 475 414 510 L300 504 Q282 503 275 516 Q261 538 282 539 L430 550 L434 562 Q448 609 452 629 Q359 622 255 617 Q240 616 232 631 Q222 653 234 653 Q375 660 528 672 Q596 790 599 798 Q603 808 607 825 Q611 838 623 833 Q640 824 652 816 Q664 807 655 795 Q592 706 557 674 L580 676 Z" /><glyph glyph-name="uni517C" unicode="&#x517c;" d="M531 312 L531 396 L431 390 L430 307 L531 312 ZM432 428 L531 433 L530 517 L433 512 L432 428 ZM423 632 Q433 623 433 604 L433 552 L529 556 L529 568 Q529 600 524 638 L422 633 L423 632 ZM683 442 L688 526 L574 520 L573 436 L683 442 ZM679 320 L682 403 L573 398 L573 314 L679 320 ZM670 564 Q684 565 695 572 Q697 574 699 574 Q705 577 714 574 Q728 568 735 562 Q744 555 739 541 Q734 524 733 508 L728 445 Q832 451 870 457 Q894 461 907 439 Q926 407 899 409 Q815 409 726 405 L721 319 Q724 317 729 306 Q735 291 733 286 Q730 282 716 281 Q678 280 586 276 Q716 167 838 117 Q835 119 947 81 Q961 76 962 72 Q963 69 952 63 Q943 59 933 50 Q922 40 916 37 Q903 29 887 37 Q697 123 573 252 L573 9 Q572 -34 560 -60 Q545 -94 534 -61 Q526 -33 527 4 Q530 145 530 273 L430 268 Q428 107 426 33 Q425 -16 413 -40 Q406 -56 399 -56 Q392 -56 388 -41 Q381 -14 382 22 Q386 152 387 208 Q240 63 101 10 Q86 4 83 10 Q80 16 95 25 Q262 128 375 266 Q294 262 250 261 Q230 260 225 274 Q220 289 222 293 Q224 297 237 298 Q339 302 389 305 L390 388 L144 375 Q126 375 118 390 Q105 412 120 413 L390 426 L390 509 Q311 505 278 504 Q265 503 256 523 Q249 539 250 542 Q251 546 262 546 Q348 548 390 550 L390 567 Q390 601 384 631 L242 625 Q227 625 219 640 Q209 662 222 663 Q343 667 405 670 Q399 673 392 684 Q375 717 323 782 Q317 790 319 794 Q322 797 330 794 Q383 777 425 717 Q442 692 426 676 L420 670 Q482 673 523 676 Q588 790 593 802 Q598 811 602 829 Q605 843 616 837 Q633 830 644 821 Q654 813 647 801 Q592 716 553 677 L598 680 Q696 686 743 693 Q763 696 773 675 Q789 645 764 647 Q708 647 563 640 L566 638 Q576 630 575 610 Q574 592 574 559 L670 564 Z" /><glyph glyph-name="uni5185" unicode="&#x5185;" d="M735 649 Q753 650 768 659 L773 661 Q779 664 785 661 Q798 656 808 648 Q819 640 814 626 Q808 608 808 587 Q807 513 808 308 Q809 108 807 5 Q807 -32 785 -50 Q758 -70 748 -50 Q747 -47 638 -17 Q627 -15 628 -9 Q628 -4 640 -4 Q757 -7 757 6 Q764 274 759 609 L511 596 Q502 508 480 443 L483 442 Q581 406 683 301 Q712 272 697 249 Q681 225 656 257 Q594 329 475 428 Q429 301 295 205 Q280 195 275 199 Q269 204 282 216 Q438 366 463 593 Q380 588 238 576 Q238 556 239 544 Q241 332 237 77 Q237 28 224 2 Q217 -14 209 -14 Q202 -14 197 1 Q189 26 190 63 Q198 361 191 557 Q189 595 183 619 Q178 639 195 633 Q213 628 224 620 L228 617 L467 633 L467 638 Q473 718 469 810 Q468 830 483 826 Q500 822 513 814 Q525 808 522 790 L519 722 Q517 670 514 636 L735 649 Z" /><glyph glyph-name="uni518C" unicode="&#x518c;" d="M739 458 L739 734 L600 725 Q599 698 600 620 Q600 530 599 470 L598 447 L739 458 ZM414 435 Q416 611 416 693 Q363 691 291 685 L291 592 Q291 522 289 465 L288 427 L414 435 ZM751 783 Q757 787 763 784 L786 771 Q796 763 791 750 Q785 736 784 709 Q782 636 782 462 Q860 470 893 474 Q917 478 930 456 Q949 425 922 425 Q869 425 782 420 Q782 123 780 44 Q779 7 759 -8 Q733 -30 724 -8 Q722 -3 646 22 Q636 26 637 30 Q637 35 649 35 Q731 32 733 45 Q737 215 739 418 Q672 413 597 409 Q590 247 554 153 Q519 60 433 -26 Q421 -38 415 -34 Q409 -30 419 -17 Q542 151 552 406 L458 399 L454 106 Q453 72 433 56 Q407 37 398 57 Q397 59 317 86 Q307 89 308 94 Q308 99 320 98 Q406 95 407 108 Q413 285 414 396 L286 388 Q276 246 237 160 Q198 76 110 0 Q97 -11 92 -7 Q86 -3 96 9 Q227 162 242 385 L116 377 Q97 376 88 391 Q75 414 90 415 L244 424 L245 466 Q248 611 241 722 Q240 744 254 739 Q269 736 282 728 L286 725 L400 733 Q414 734 424 742 Q428 744 430 744 Q434 747 440 744 Q452 740 462 731 Q473 724 468 711 Q461 694 461 674 Q458 571 458 438 L554 444 L554 471 Q557 640 549 754 Q548 776 563 772 Q573 769 586 764 L726 773 Q739 774 749 782 L751 783 Z" /><glyph glyph-name="uni518D" unicode="&#x518d;" d="M694 285 L693 399 L516 389 Q516 314 517 273 Q508 272 671 283 L694 285 ZM301 379 Q302 343 302 262 L474 271 Q473 311 473 387 Q365 381 301 379 ZM473 542 L298 530 Q299 518 299 494 Q300 482 300 457 L301 417 L473 426 L473 542 ZM692 555 L518 545 Q517 509 517 428 L693 438 L692 555 ZM704 604 Q710 608 716 605 Q730 598 739 592 Q750 584 745 571 Q739 558 739 535 Q737 426 739 288 Q871 299 894 302 Q918 306 931 284 Q952 252 923 252 Q856 252 739 247 Q741 110 738 6 Q738 -29 717 -45 Q691 -64 682 -45 Q681 -42 598 -16 Q587 -13 588 -8 Q589 -3 600 -4 Q690 -5 690 7 Q693 118 693 245 L302 223 L302 54 Q302 9 290 -18 Q274 -50 263 -19 Q255 3 255 39 Q257 165 257 220 Q223 219 94 212 Q74 211 66 226 Q53 249 68 250 L257 259 Q257 370 253 506 Q252 535 245 565 Q240 583 256 578 Q268 575 279 569 L473 582 L473 637 Q471 683 469 710 Q299 702 216 699 Q196 699 188 713 Q180 726 182 730 Q183 734 197 735 Q418 746 624 759 L775 770 Q793 771 801 756 Q813 731 791 730 Q646 719 511 712 Q520 707 520 687 L518 585 L672 594 Q688 595 701 603 L704 604 Z" /><glyph glyph-name="uni5192" unicode="&#x5192;" d="M671 148 L498 139 Q383 133 311 130 L311 44 L671 63 L671 148 ZM308 289 Q437 295 575 303 Q631 306 673 309 Q673 347 675 397 Q423 384 306 375 L308 289 ZM672 270 L498 261 Q382 255 309 252 Q310 225 310 167 L671 186 L672 270 ZM310 0 Q310 -17 294 -27 Q274 -39 270 -29 Q267 -21 266 3 Q263 290 259 362 Q257 394 253 408 Q248 426 263 422 Q275 421 287 414 Q429 424 656 437 Q672 437 685 444 Q689 448 699 445 Q715 438 723 431 Q735 424 728 412 Q723 402 723 386 Q718 212 720 24 Q721 -15 695 -30 Q678 -38 675 -28 Q671 -11 671 24 L498 15 Q381 8 310 5 L310 0 ZM315 516 Q310 531 311 535 Q313 539 325 540 Q475 547 557 552 L641 557 Q661 558 667 543 Q672 528 670 524 Q668 519 656 519 L502 511 Q398 505 337 503 Q319 503 315 516 ZM354 617 Q337 617 333 630 Q328 645 330 649 Q332 653 343 654 L547 664 Q571 666 622 668 Q642 669 647 654 Q655 631 637 631 Q605 630 500 624 Q410 619 354 617 ZM772 796 Q788 790 796 782 Q805 774 799 760 Q793 748 791 728 Q788 695 787 633 L782 526 Q781 503 765 491 Q745 476 738 493 Q735 506 737 530 Q740 568 742 636 L747 747 Q409 731 239 718 L239 715 Q244 631 245 505 Q245 478 233 461 Q219 442 207 460 Q197 478 198 497 Q198 642 193 722 Q191 742 186 756 Q180 770 195 767 Q214 764 224 759 L227 757 Q455 773 724 786 Q743 787 756 795 Q766 800 772 796 Z" /><glyph glyph-name="uni5197" unicode="&#x5197;" d="M187 525 Q175 496 164 491 Q155 487 142 501 Q128 517 140 542 Q179 624 209 725 Q213 738 218 738 Q222 738 224 726 Q226 714 228 692 Q376 702 735 724 Q755 725 769 733 Q774 736 779 736 Q784 736 791 731 Q809 717 818 703 Q831 687 817 679 Q801 670 794 662 Q774 643 724 575 Q690 550 706 589 Q714 610 749 682 Q450 666 235 650 L226 650 Q219 600 187 525 ZM567 517 Q580 512 590 504 Q600 497 596 483 Q589 466 586 429 Q578 295 581 129 Q582 96 596 82 Q609 70 645 68 Q755 64 831 71 Q863 74 865 96 Q868 126 875 168 Q878 183 884 183 Q890 182 891 166 Q894 94 907 80 Q927 61 912 46 Q891 27 843 24 Q745 16 636 23 Q581 26 559 50 Q536 73 535 127 Q533 284 543 468 Q368 458 362 457 L356 335 Q346 201 289 124 Q234 48 109 -7 Q93 -14 89 -8 Q85 -3 99 7 Q204 72 251 143 Q300 218 310 338 Q314 393 312 495 Q311 514 326 510 Q341 506 354 499 L526 509 Q540 510 551 517 Q559 521 564 518 L567 517 Z" /><glyph glyph-name="uni5199" unicode="&#x5199;" d="M631 191 Q646 162 622 162 L142 135 Q127 134 119 150 Q108 173 121 174 Q364 187 467 196 Q573 204 600 210 Q619 214 631 191 ZM772 378 Q788 370 797 361 Q807 353 801 343 Q795 332 792 315 Q788 293 770 167 Q755 66 744 7 Q737 -31 714 -43 Q684 -59 678 -38 Q677 -34 580 -1 Q569 2 570 7 Q571 12 583 11 Q692 0 693 11 Q719 152 741 328 Q538 319 330 304 Q313 302 317 317 Q316 320 317 326 Q341 465 351 561 Q357 621 357 641 Q357 656 373 653 Q391 648 400 641 Q411 635 408 621 Q405 608 397 551 L392 520 L512 529 Q589 534 629 538 L723 547 Q741 550 749 533 Q760 509 739 506 Q636 497 393 482 L386 482 Q374 395 365 349 Q519 360 723 371 Q740 371 755 379 Q763 384 770 379 L772 378 ZM813 752 Q828 743 843 730 Q858 715 844 706 Q832 698 822 686 Q798 656 761 588 Q728 557 741 599 Q749 629 777 704 Q481 688 265 672 Q257 672 254 673 Q251 620 220 543 Q200 496 175 521 Q162 536 173 560 Q207 633 234 727 Q238 739 243 740 Q248 740 250 729 Q252 717 252 712 Q437 725 761 745 Q779 746 794 753 Q803 758 810 754 L813 752 Z" /><glyph glyph-name="uni51B2" unicode="&#x51b2;" d="M119 669 Q109 679 111 683 Q114 687 126 683 Q205 658 272 576 Q296 548 279 528 Q261 503 239 536 Q210 578 119 669 ZM283 442 Q292 454 298 451 Q304 447 299 434 Q257 331 126 123 Q118 110 105 115 Q83 126 74 134 Q62 145 72 153 Q83 161 97 175 Q113 193 283 442 ZM782 365 Q784 438 790 563 L609 553 L609 355 L782 365 ZM562 352 L562 550 Q501 547 395 539 L395 526 Q400 460 404 342 L562 352 ZM610 594 L769 603 Q785 604 799 611 Q803 613 805 613 Q810 615 817 612 Q833 606 840 600 Q850 593 844 579 Q838 564 837 547 Q833 513 825 366 Q830 365 836 351 Q843 335 840 331 Q838 326 823 325 Q721 320 608 313 Q608 173 607 100 Q607 5 590 -61 Q579 -105 571 -61 Q561 3 561 95 Q562 166 562 311 Q466 305 408 303 L405 303 L405 296 Q405 281 390 273 Q370 261 367 270 Q363 280 362 296 Q348 545 349 539 Q346 562 341 575 Q338 585 340 588 Q341 590 350 589 Q363 588 381 580 L562 591 L561 697 L557 810 Q555 826 557 828 Q559 830 573 827 Q595 821 604 816 Q615 809 614 786 Q612 764 610 697 L610 594 Z" /><glyph glyph-name="uni51B3" unicode="&#x51b3;" d="M118 643 Q108 652 111 656 Q114 660 126 657 Q202 635 265 560 Q288 533 273 512 Q254 489 233 519 Q200 566 118 643 ZM290 402 Q300 414 306 411 Q311 407 306 394 Q265 299 129 92 Q120 78 108 84 Q88 94 77 104 Q65 115 75 123 Q92 135 100 145 Q123 170 290 402 ZM549 508 Q546 431 533 355 L680 368 Q685 451 694 566 Q641 562 551 552 L549 508 ZM703 615 Q710 623 722 619 Q736 614 744 607 Q753 599 748 585 Q744 576 740 553 Q733 496 724 372 Q837 384 864 389 Q885 393 897 372 Q914 342 889 342 Q813 340 559 318 Q662 153 809 66 Q831 52 870 35 Q918 14 932 7 Q946 -1 946 -4 Q947 -8 934 -12 Q924 -15 912 -22 L891 -34 Q876 -39 861 -29 Q636 97 531 316 L525 315 Q472 84 235 -45 Q215 -55 210 -51 Q205 -46 223 -33 Q426 109 475 311 L320 298 Q304 297 295 313 Q284 335 297 336 L484 351 Q496 416 501 510 L503 548 L400 538 Q388 537 378 557 Q371 573 372 578 Q373 582 384 582 Q444 585 504 591 Q506 673 502 793 Q501 816 516 812 Q530 809 547 799 Q557 793 556 771 Q554 740 552 594 L680 606 Q694 607 703 615 Z" /><glyph glyph-name="uni51B5" unicode="&#x51b5;" d="M144 677 Q134 686 137 690 Q139 694 151 692 Q224 677 297 601 Q322 574 306 553 Q289 528 265 558 Q228 606 144 677 ZM316 452 Q326 464 332 460 Q337 456 331 443 Q295 369 143 161 Q133 148 121 155 Q101 166 91 176 Q80 189 90 195 Q109 207 117 215 Q132 230 316 452 ZM436 660 Q443 567 446 467 Q576 473 638 477 Q665 479 689 480 L707 690 Q474 676 435 673 L436 660 ZM448 420 Q450 404 434 396 Q413 384 410 393 Q407 402 404 419 Q388 666 387 672 Q384 696 379 709 Q375 719 377 722 Q378 724 388 723 Q405 722 419 714 Q471 718 559 723 Q652 728 691 731 Q705 731 718 737 Q722 739 728 739 Q730 739 736 737 Q749 731 758 724 Q767 716 761 701 Q755 686 754 669 Q748 624 734 478 Q738 475 741 465 Q750 440 730 440 L625 435 L645 426 Q656 421 653 406 Q654 415 651 357 Q648 193 650 130 Q651 86 697 83 Q780 76 852 84 Q883 86 885 105 Q895 202 894 196 Q896 211 902 211 Q907 210 908 194 Q911 101 923 92 Q943 72 926 58 Q909 42 863 38 Q784 31 691 37 Q606 44 603 129 Q602 175 603 250 L605 359 Q605 394 602 424 L602 434 L501 429 L522 418 Q533 412 529 396 L522 356 Q517 329 513 313 Q488 199 425 130 Q359 57 232 11 Q215 4 212 11 Q209 17 226 26 Q425 137 466 320 Q474 358 478 419 Q478 425 479 428 L448 426 L448 420 Z" /><glyph glyph-name="uni51B7" unicode="&#x51b7;" d="M215 561 Q188 604 103 692 Q94 702 97 706 Q99 710 111 706 Q185 680 248 600 Q270 571 253 553 Q234 531 215 561 ZM288 514 Q296 529 303 525 Q309 522 304 507 Q230 304 103 78 Q95 64 83 69 Q69 74 53 85 Q40 95 50 104 Q67 121 76 133 Q125 205 288 514 ZM746 353 Q750 351 769 334 Q776 324 770 314 Q667 174 578 77 Q607 53 645 15 Q675 -15 661 -39 Q648 -61 620 -31 Q559 38 432 148 Q419 159 421 164 Q424 169 439 162 Q499 137 556 94 L704 305 Q467 279 381 271 Q369 270 359 290 Q352 306 353 310 Q354 314 365 314 Q541 327 704 346 Q717 347 727 353 Q734 358 739 355 Q742 355 746 353 ZM623 388 Q604 368 587 397 Q568 430 498 518 Q491 527 493 531 Q496 535 506 530 Q573 502 621 432 Q640 405 623 388 ZM959 438 Q973 430 973 427 Q974 423 962 419 Q953 416 942 408 Q929 400 923 397 Q908 390 893 400 Q693 528 569 697 L527 627 Q408 435 286 330 Q269 316 264 321 Q259 326 273 342 Q398 491 488 646 Q557 764 577 820 Q582 834 595 829 Q608 825 620 816 Q632 807 624 794 Q613 772 584 721 Q715 573 852 491 Q871 479 904 464 Q948 444 959 438 Z" /><glyph glyph-name="uni51C0" unicode="&#x51c0;" d="M118 667 Q108 676 111 680 Q113 684 126 681 Q203 662 275 586 Q299 559 284 537 Q265 512 243 543 Q209 587 118 667 ZM267 432 Q276 444 282 441 Q288 437 283 424 Q255 345 128 129 Q121 115 108 120 Q88 127 75 139 Q62 150 72 159 Q87 169 96 180 Q103 188 267 432 ZM728 375 L578 367 L577 259 L645 263 Q672 265 722 267 L728 375 ZM731 414 Q735 482 738 515 Q654 511 579 506 Q580 503 580 493 Q579 480 579 448 L578 405 L731 414 ZM559 545 Q637 664 639 668 L474 657 Q426 587 365 532 L559 545 ZM717 555 Q733 556 745 563 Q753 568 759 565 Q762 565 766 563 Q779 559 791 550 Q801 542 794 527 Q786 510 785 493 L777 417 Q858 423 891 429 Q912 432 923 410 Q939 380 914 380 Q854 380 773 377 Q772 352 765 267 Q769 265 773 253 Q779 237 777 233 Q775 229 761 228 Q727 227 671 224 L577 219 L574 1 Q573 -36 552 -54 Q525 -74 516 -53 Q514 -47 418 -20 Q408 -17 409 -12 Q409 -7 421 -7 Q525 -9 527 2 Q529 70 531 216 Q478 213 375 209 Q355 208 350 222 Q345 239 347 243 Q349 247 362 247 L532 256 L532 365 Q504 363 315 354 Q298 354 290 369 Q279 392 293 392 L532 403 L532 471 Q532 493 531 503 Q437 498 381 493 Q368 492 359 510 L354 522 L352 521 Q343 514 339 518 Q334 523 341 533 Q459 704 486 772 Q494 790 500 819 Q503 833 515 828 Q536 818 545 811 Q555 802 548 789 Q527 745 500 700 Q569 704 639 709 Q653 710 664 717 L667 718 Q674 723 683 717 Q695 709 706 696 Q715 686 707 675 Q618 565 602 548 L717 555 Z" /><glyph glyph-name="uni51C6" unicode="&#x51c6;" d="M678 624 Q662 654 599 733 Q584 753 607 746 Q668 725 713 659 Q731 634 714 615 Q694 593 678 624 ZM115 648 Q94 668 122 662 Q196 644 259 573 Q282 548 267 527 Q249 503 227 533 Q199 572 115 648 ZM269 371 Q278 383 283 379 Q289 376 284 363 Q262 306 134 92 Q126 78 114 84 Q92 95 82 104 Q69 115 80 122 Q94 132 104 142 Q133 174 179 242 Q248 343 269 371 ZM431 500 Q433 483 435 448 Q438 278 432 32 Q431 -29 414 -58 Q400 -81 390 -53 Q383 -34 384 15 Q393 222 389 452 Q387 503 382 525 Q333 466 267 403 Q258 395 252 399 Q247 403 254 414 Q448 680 481 748 Q493 771 503 806 Q507 820 519 815 Q534 809 547 798 Q556 790 550 776 Q480 649 405 554 Q409 550 417 540 Q427 521 431 500 ZM745 273 Q806 277 832 280 Q849 281 857 265 Q868 241 847 240 L697 231 L697 108 L782 113 Q886 120 909 124 Q931 128 941 106 Q957 76 932 76 Q837 78 465 56 Q450 55 442 71 Q432 94 445 95 L654 106 Q653 149 653 229 L589 225 Q547 223 525 221 Q508 220 501 233 Q488 255 507 256 L653 267 Q654 307 654 381 L590 377 Q550 375 528 373 Q510 372 503 385 Q490 407 509 408 Q558 412 654 418 L653 462 Q653 485 649 535 Q579 530 496 526 Q482 525 475 541 Q466 563 478 564 Q672 574 745 580 Q828 587 849 591 Q868 595 877 573 Q890 545 868 545 Q812 545 692 537 Q701 532 701 513 L700 422 L835 431 Q852 434 859 417 Q870 393 849 392 L699 383 L698 270 L745 273 Z" /><glyph glyph-name="uni51CF" unicode="&#x51cf;" d="M710 748 Q691 764 715 760 Q777 753 828 703 Q850 681 836 662 Q821 641 800 665 Q781 687 710 748 ZM206 492 Q189 518 108 603 Q100 611 102 615 Q105 619 116 616 Q185 596 239 530 Q259 505 243 485 Q225 464 206 492 ZM246 400 Q255 411 261 408 Q266 405 261 393 Q247 357 118 150 Q111 138 98 143 Q78 153 67 163 Q56 174 66 181 Q78 188 89 199 Q117 227 161 287 Q228 377 246 400 ZM530 188 Q531 232 535 311 Q462 308 421 304 Q422 300 422 293 Q426 238 427 181 L530 188 ZM428 137 Q428 125 415 118 Q397 108 394 115 Q390 123 390 136 Q388 156 385 224 Q383 281 380 303 Q379 317 374 331 Q370 341 372 343 Q373 345 382 344 Q394 342 401 340 L463 344 Q500 346 522 348 Q535 349 544 354 Q550 358 554 355 Q557 355 558 354 Q567 351 576 344 Q584 339 580 326 Q577 316 575 301 L569 188 Q572 187 577 176 Q585 153 569 153 L428 145 L428 137 ZM403 420 Q389 419 382 432 Q372 453 388 454 L447 458 Q485 460 505 462 L554 467 Q570 470 577 453 Q587 430 567 429 Q516 424 403 420 ZM655 602 Q737 608 772 612 Q790 615 798 598 Q810 573 789 572 Q739 567 628 559 Q657 406 703 288 Q751 374 784 476 Q788 492 799 485 Q815 474 823 464 Q830 454 825 442 Q777 322 725 240 Q786 107 875 33 Q898 14 907 33 Q928 75 940 96 Q948 109 952 106 Q957 104 952 89 Q929 16 933 -16 Q938 -53 906 -42 Q878 -34 848 -5 Q759 77 698 201 Q626 104 522 35 Q506 25 502 31 Q497 36 512 50 Q614 144 678 245 Q621 376 586 557 Q471 550 355 545 Q354 529 353 481 Q353 431 351 399 Q344 248 306 160 Q268 74 176 -2 Q163 -12 157 -8 Q151 -4 162 8 Q294 159 305 401 Q308 479 304 581 Q303 602 317 598 Q332 594 346 587 L352 582 L467 589 Q539 593 579 596 L573 635 Q561 710 543 778 Q538 800 553 796 Q574 792 587 785 Q600 780 601 762 Q602 741 614 644 Q618 614 621 599 L655 602 Z" /><glyph glyph-name="uni51E0" unicode="&#x51e0;" d="M924 94 Q945 73 929 56 Q908 35 858 30 Q763 22 658 29 Q600 33 575 62 Q549 92 548 160 Q545 386 558 664 L329 648 Q328 626 327 563 Q327 496 325 451 Q318 272 264 172 Q210 74 80 -2 Q63 -12 58 -7 Q53 -2 68 10 Q178 97 223 188 Q271 287 277 453 Q282 579 275 691 Q275 713 290 708 Q307 705 320 696 Q321 696 323 694 L326 692 L537 707 Q551 707 564 715 Q569 718 573 718 Q578 720 583 716 Q597 710 607 700 Q618 690 612 676 Q604 648 601 600 Q590 423 595 162 Q596 116 613 97 Q629 80 667 78 Q781 74 844 81 Q877 85 879 114 Q883 169 889 217 Q891 235 898 234 Q905 233 905 214 Q908 110 924 94 Z" /><glyph glyph-name="uni51FA" unicode="&#x51fa;" d="M772 609 Q771 602 763 408 Q762 386 737 375 Q721 368 718 381 Q716 389 717 402 Q703 401 627 399 L510 395 Q507 251 507 82 L656 89 Q726 91 749 93 Q754 188 757 268 Q758 289 757 309 Q757 320 759 322 Q762 324 773 320 Q788 316 803 306 Q813 299 809 282 L805 253 Q804 244 793 11 Q792 -14 767 -25 Q750 -32 747 -19 Q745 -8 746 11 L747 48 Q574 45 258 29 Q229 27 211 20 Q187 11 175 50 Q173 58 175 60 Q175 64 178 67 Q194 78 194 95 Q192 220 188 259 Q186 274 183 284 Q179 297 194 297 Q214 295 224 292 Q234 289 235 280 Q243 213 241 68 Q381 76 464 80 L464 394 Q435 392 384 390 L296 386 Q270 384 253 377 Q230 368 219 407 Q216 415 219 418 L222 421 Q236 431 236 448 Q236 552 232 600 Q230 619 228 624 Q224 637 239 636 Q249 636 269 632 Q279 628 280 619 Q287 550 283 425 Q390 431 465 434 Q466 533 466 693 Q466 743 461 801 Q459 816 462 819 Q464 822 475 819 Q493 813 511 801 Q520 795 519 772 Q515 728 514 684 Q514 622 510 436 L718 445 L725 623 Q726 640 725 659 Q724 670 727 672 Q729 674 740 670 Q759 664 769 657 Q779 650 775 634 L772 609 Z" /><glyph glyph-name="uni51FB" unicode="&#x51fb;" d="M477 547 Q404 543 252 537 Q232 536 224 551 Q216 565 217 569 Q219 573 232 574 Q394 582 477 587 Q478 625 478 693 Q478 740 473 800 Q472 815 474 818 Q477 821 487 817 Q509 810 522 801 Q531 794 530 771 Q526 673 526 682 Q526 655 524 589 L753 604 Q772 605 780 589 Q792 563 770 562 L523 549 Q521 469 520 397 Q586 399 668 405 Q829 414 885 422 Q910 426 924 402 Q943 369 915 369 Q822 371 520 357 Q517 214 518 83 L710 91 L716 246 Q717 265 716 286 Q715 303 731 297 Q752 290 762 283 Q771 276 769 259 Q767 248 765 231 Q764 223 756 11 Q755 -13 729 -24 Q712 -31 709 -18 Q707 -8 708 11 L709 48 Q428 38 305 32 Q284 31 263 23 Q240 15 229 53 Q227 61 229 64 Q229 67 232 68 Q244 77 244 93 Q241 217 240 232 Q238 247 235 254 Q231 267 247 267 Q267 265 277 262 Q287 260 288 250 Q295 185 293 71 L391 76 Q448 79 474 81 Q474 269 475 354 L103 336 Q84 335 74 352 Q61 376 77 376 Q262 385 475 394 L477 547 Z" /><glyph glyph-name="uni51FD" unicode="&#x51fd;" d="M258 546 Q248 553 250 557 Q252 561 263 559 Q331 545 400 478 Q422 457 411 436 Q397 413 374 439 Q343 476 258 546 ZM527 431 Q540 427 556 420 L560 425 Q658 523 686 562 Q694 574 701 587 Q708 598 717 591 Q729 583 742 570 Q751 559 741 549 Q635 445 572 412 Q653 374 739 293 Q769 266 756 242 Q744 219 715 249 Q644 322 526 412 Q535 303 519 185 Q513 146 492 130 Q465 108 458 133 Q455 140 363 168 Q348 172 349 179 Q349 185 364 183 Q439 177 454 178 Q470 178 471 187 Q486 290 481 412 Q489 422 278 229 Q269 220 259 227 Q244 238 235 251 Q226 264 238 268 Q252 272 264 280 Q296 299 480 438 L478 460 Q476 474 476 481 Q470 534 423 603 Q405 629 410 634 Q414 638 438 617 Q457 601 474 582 Q595 695 632 733 Q356 709 293 705 Q281 704 272 724 Q264 740 265 744 Q266 748 277 748 Q403 753 644 774 Q659 775 667 781 Q673 786 679 782 Q682 782 688 778 Q696 772 708 756 Q715 744 705 736 Q563 611 490 561 Q513 529 519 486 L525 432 L527 431 ZM778 64 Q527 57 226 43 Q198 41 176 33 Q151 24 139 63 Q137 71 139 73 Q139 74 142 77 Q163 90 162 113 Q157 263 145 366 Q141 394 138 403 Q133 418 149 418 Q169 416 179 413 Q188 411 191 399 Q205 278 209 81 Q409 91 587 99 L782 108 L809 401 Q811 419 811 454 Q811 467 814 469 Q817 471 828 466 Q850 455 858 448 Q867 440 862 419 L856 380 Q847 306 822 15 Q819 -15 793 -27 Q775 -36 774 -19 Q772 -10 774 17 L778 64 Z" /><glyph glyph-name="uni5200" unicode="&#x5200;" d="M461 626 Q297 613 244 610 Q229 609 218 630 Q209 647 210 652 Q211 656 225 656 Q455 667 749 691 Q767 692 779 700 L784 702 Q791 706 798 702 Q814 693 824 683 Q835 674 827 661 Q819 644 816 623 Q806 559 780 357 Q757 172 740 73 Q733 29 708 14 Q680 -3 671 18 Q669 24 541 64 Q530 67 531 72 Q533 77 545 76 Q686 62 689 75 Q728 310 766 649 Q657 642 499 629 L507 624 Q519 617 515 598 Q501 529 491 491 Q444 316 361 208 Q271 91 104 6 Q81 -6 77 1 Q73 7 95 22 Q363 198 441 497 Q456 556 461 624 L461 626 Z" /><glyph glyph-name="uni5206" unicode="&#x5206;" d="M394 679 Q250 449 67 325 Q57 318 52 323 Q47 329 57 338 Q249 522 327 660 Q342 687 352 713 Q357 726 368 720 Q379 714 394 701 Q402 691 394 679 ZM439 379 Q449 372 445 356 L426 279 Q389 158 323 84 Q252 4 121 -50 Q103 -58 100 -51 Q96 -44 114 -34 Q320 86 378 288 Q388 322 394 378 Q320 371 254 366 Q241 365 232 385 Q224 402 225 405 Q226 409 238 409 Q432 421 626 441 Q641 442 651 448 L658 450 Q665 452 669 449 Q683 441 694 431 Q702 423 696 412 Q690 403 687 384 Q680 346 659 206 Q641 84 628 16 Q621 -22 598 -33 Q571 -48 563 -28 Q562 -26 458 9 Q448 12 449 17 Q450 21 462 20 Q579 9 580 20 Q610 169 639 401 L434 382 L439 379 ZM940 406 Q957 396 957 393 Q956 389 937 386 Q927 385 916 379 Q902 372 896 370 Q881 365 863 377 Q633 527 511 728 Q493 758 477 770 Q466 778 466 794 Q466 822 486 810 Q512 795 542 752 Q659 584 817 478 Q847 458 883 438 L940 406 Z" /><glyph glyph-name="uni5212" unicode="&#x5212;" d="M330 710 Q321 717 323 722 Q325 726 336 724 Q400 716 460 659 Q483 636 469 616 Q453 592 431 618 Q404 650 330 710 ZM547 100 Q554 111 558 109 Q562 106 558 92 Q537 22 541 -5 Q544 -39 513 -31 Q484 -22 456 5 Q374 82 322 203 Q212 109 86 56 Q67 48 64 55 Q60 61 80 73 Q211 152 305 243 Q270 338 247 466 Q212 459 110 441 Q95 439 87 454 Q75 475 87 478 L241 504 Q232 568 226 641 Q220 719 208 782 Q204 802 219 800 Q239 795 254 787 Q267 781 266 765 Q265 726 270 647 Q274 583 284 512 Q363 526 441 543 Q478 552 499 558 Q516 565 528 544 Q544 516 524 514 Q474 508 290 473 Q309 360 339 276 Q416 356 481 451 Q490 464 498 455 Q509 442 515 429 Q520 417 512 407 Q430 304 355 234 Q406 110 485 45 Q508 26 517 43 Q551 106 547 100 ZM665 626 Q666 611 665 594 Q663 477 659 310 Q658 279 645 259 Q631 238 620 259 Q610 280 611 304 Q621 470 619 604 Q619 623 614 646 Q608 661 624 657 Q642 654 653 647 Q665 640 665 626 ZM845 808 Q856 800 853 783 Q847 749 847 722 Q845 641 845 390 Q844 149 841 20 Q840 -21 819 -38 Q791 -62 782 -38 Q779 -32 674 -2 Q663 1 664 7 Q665 12 676 12 Q793 9 793 21 Q803 377 800 752 Q798 795 794 814 Q790 831 810 825 Q828 820 845 808 Z" /><glyph glyph-name="uni5217" unicode="&#x5217;" d="M346 668 Q354 659 349 646 Q322 575 299 529 L442 539 Q457 540 467 548 Q469 550 471 550 Q477 553 485 549 Q500 542 511 533 Q521 525 514 510 Q502 488 489 448 Q435 280 348 177 Q254 66 90 -10 Q68 -20 65 -14 Q61 -8 81 4 Q250 109 334 230 Q327 233 318 243 Q285 281 213 343 Q194 361 219 357 Q285 343 346 282 Q354 274 357 265 Q417 363 454 495 Q383 492 284 484 Q278 484 276 485 Q216 377 124 302 Q111 291 107 296 Q102 301 113 315 Q245 480 301 668 L157 660 Q144 659 135 676 Q125 699 138 699 Q323 708 425 717 Q504 724 538 731 Q555 735 566 712 Q578 684 557 683 Q523 682 343 671 L346 668 ZM650 616 Q663 610 664 595 L664 561 Q664 408 658 265 Q657 230 643 211 Q628 189 619 211 Q610 232 611 257 Q620 437 618 571 Q618 591 613 614 Q609 630 624 626 Q639 622 650 616 ZM847 795 Q858 788 855 772 Q851 738 851 712 Q849 633 849 387 Q848 151 845 26 Q844 -14 823 -31 Q796 -53 787 -30 Q785 -25 679 5 Q668 8 669 13 Q670 19 681 18 Q798 16 798 27 Q808 416 805 741 Q803 785 800 801 Q796 817 815 812 Q834 805 847 795 Z" /><glyph glyph-name="uni5219" unicode="&#x5219;" d="M209 494 Q210 385 209 305 Q209 270 196 250 Q182 225 171 249 Q162 272 163 298 Q168 516 162 657 Q162 678 157 705 Q153 720 167 718 Q187 712 194 707 Q270 713 424 721 Q440 722 450 730 Q457 735 465 732 L466 731 Q484 723 492 716 Q501 708 495 691 Q489 676 487 647 Q485 589 487 478 Q488 355 487 291 Q487 259 471 243 Q452 224 445 246 Q442 260 443 294 Q444 354 444 480 Q443 602 445 680 L208 666 L209 494 ZM356 561 Q354 541 352 489 Q351 431 348 397 Q337 242 279 151 Q223 62 95 -7 Q78 -16 73 -11 Q68 -6 84 5 Q193 84 241 169 Q292 258 302 399 Q308 485 304 580 Q303 600 318 596 Q330 594 347 584 Q357 578 356 561 ZM333 219 Q423 181 514 77 Q539 48 524 27 Q508 5 485 36 Q437 100 325 205 Q313 216 316 221 Q319 225 333 219 ZM658 280 Q658 249 645 232 Q631 212 621 231 Q611 250 612 275 Q619 434 617 576 Q617 595 612 618 Q610 632 623 630 Q641 625 652 619 Q663 614 663 599 L658 280 ZM826 789 Q836 781 834 765 Q831 739 829 706 Q827 620 827 380 Q827 139 824 18 Q823 -22 801 -40 Q774 -63 765 -40 Q762 -33 653 -4 Q642 -1 643 5 Q644 10 655 10 Q776 7 776 19 Q786 366 783 734 Q783 762 778 794 Q776 805 779 807 Q782 809 793 805 Q810 800 826 789 Z" /><glyph glyph-name="uni521A" unicode="&#x521a;" d="M405 232 Q377 287 334 352 Q281 268 204 183 Q196 175 190 179 Q185 183 192 194 Q287 340 312 385 Q289 420 213 531 Q200 550 205 554 Q209 558 225 543 Q282 491 334 423 Q364 480 382 527 Q393 556 398 590 Q402 604 413 599 Q427 594 438 585 Q447 579 442 565 Q399 462 358 392 Q397 337 437 269 Q460 228 441 207 Q426 191 405 232 ZM160 691 Q274 697 480 705 Q496 705 509 713 Q510 714 516 716 Q519 717 525 715 Q535 710 547 702 Q557 694 552 681 Q546 668 545 644 Q543 574 541 367 Q539 171 535 69 Q534 32 514 19 Q488 -1 479 19 Q478 22 398 49 Q388 53 389 57 Q389 62 401 61 Q488 58 488 70 Q500 314 500 663 Q312 658 172 650 L173 611 Q175 403 172 91 Q170 37 159 11 Q152 -5 145 -5 Q138 -5 133 10 Q125 38 126 76 Q133 401 128 625 Q127 658 120 691 Q115 711 132 705 Q147 701 159 692 L160 691 ZM699 295 Q699 263 686 244 Q672 223 662 243 Q653 263 654 286 Q660 471 656 585 Q656 603 651 625 Q646 640 661 637 Q681 631 687 628 Q699 622 700 608 Q702 584 702 576 Q702 408 699 295 ZM852 777 Q862 769 860 753 Q855 726 855 695 Q853 619 853 382 Q852 155 849 34 Q848 -6 827 -23 Q800 -45 791 -23 Q788 -16 691 12 Q680 15 681 20 Q682 26 693 25 Q802 23 802 35 Q812 422 808 723 Q808 752 803 782 Q799 799 819 793 Q837 788 852 777 Z" /><glyph glyph-name="uni521B" unicode="&#x521b;" d="M333 611 Q216 449 86 359 Q70 348 65 353 Q60 358 74 372 Q210 507 294 633 Q361 733 386 791 Q393 804 405 800 Q426 788 430 785 Q442 776 433 763 L372 668 Q458 641 558 556 Q588 530 576 507 Q564 483 536 511 Q469 576 362 652 L333 611 ZM454 473 Q461 479 469 475 Q482 470 492 461 Q500 456 496 446 Q491 438 490 425 Q487 403 480 336 Q474 273 469 240 Q465 209 445 200 Q418 185 412 203 Q411 209 351 228 Q341 232 342 236 Q343 240 354 239 Q422 235 423 244 Q435 325 443 423 Q329 419 270 415 L270 379 Q265 199 268 111 Q269 58 322 54 Q407 47 496 55 Q531 59 534 79 Q545 177 543 164 Q546 179 551 179 Q556 178 557 162 Q559 76 572 65 Q592 45 575 31 Q555 15 507 11 Q410 3 317 10 Q227 18 224 110 Q222 162 224 252 L225 380 Q225 420 222 454 Q222 472 235 468 Q254 461 263 456 L266 454 Q406 461 429 463 Q444 463 453 472 L454 473 ZM688 552 Q688 395 686 292 Q686 263 673 244 Q659 224 649 243 Q639 265 640 285 Q646 449 643 560 Q643 581 637 599 Q633 614 647 611 Q665 606 675 601 Q687 596 688 582 L688 552 ZM851 787 Q862 780 859 764 Q854 736 854 705 Q852 627 852 384 Q851 152 848 29 Q847 -10 826 -27 Q800 -49 790 -27 Q787 -19 703 7 Q692 11 693 16 Q694 21 705 20 Q800 18 802 30 Q812 424 808 733 Q808 761 803 793 Q801 809 818 803 Q835 798 851 787 Z" /><glyph glyph-name="uni521D" unicode="&#x521d;" d="M290 774 Q270 791 296 787 Q361 775 418 717 Q440 695 427 674 Q411 652 391 678 Q365 709 290 774 ZM338 312 Q343 166 336 22 Q335 -25 318 -48 Q305 -66 297 -43 Q291 -25 292 10 Q298 154 296 312 Q296 335 293 353 Q198 244 71 165 Q53 154 50 160 Q46 165 61 178 Q188 286 281 407 Q280 414 285 413 Q331 473 376 551 Q192 528 140 523 Q128 522 119 542 Q112 558 113 562 Q114 566 124 566 Q195 571 374 592 Q387 593 395 600 Q399 602 401 602 Q406 606 415 601 Q430 593 440 585 Q452 574 442 561 Q430 545 408 511 Q369 448 320 385 Q330 370 334 352 L335 345 Q358 339 382 328 Q446 428 448 432 Q445 426 457 454 Q461 466 471 460 Q489 450 496 443 Q506 435 498 424 Q443 352 399 320 Q438 300 476 268 Q501 247 491 226 Q479 204 455 228 Q423 258 338 321 L338 312 ZM652 570 Q560 561 529 559 Q516 558 507 578 Q500 594 501 599 Q502 603 513 603 Q664 611 848 629 Q863 630 872 638 Q875 641 879 641 Q884 644 891 640 Q903 634 916 623 Q926 615 919 603 Q913 590 910 568 Q903 509 886 322 Q870 150 858 57 Q852 16 829 3 Q803 -14 794 6 Q793 9 669 46 Q658 49 659 54 Q660 59 672 58 Q808 48 809 59 Q834 243 862 589 L776 581 Q716 575 690 573 L695 570 Q707 564 704 546 L689 434 Q663 269 608 169 Q550 62 432 -26 Q416 -37 411 -32 Q406 -27 420 -14 Q598 156 642 438 Q652 501 652 568 L652 570 Z" /><glyph glyph-name="uni5220" unicode="&#x5220;" d="M487 471 Q493 471 569 478 Q569 567 567 725 L460 719 Q459 690 460 617 L460 469 L487 471 ZM303 459 Q305 625 305 702 L209 696 Q208 671 209 602 Q209 523 208 469 L208 453 L303 459 ZM417 469 Q418 619 411 747 Q410 769 424 765 Q435 762 446 756 Q464 758 553 763 Q566 764 575 771 Q579 773 581 773 Q586 776 590 773 Q599 770 612 761 Q622 754 617 740 Q611 722 611 702 Q609 603 611 482 L643 487 Q664 490 675 469 Q692 440 667 440 L611 439 Q613 188 611 70 Q610 35 591 20 Q565 -1 556 20 Q554 24 480 48 Q470 52 471 56 Q471 61 482 61 Q565 59 565 71 Q569 222 569 437 L459 431 Q455 270 429 182 Q402 94 332 9 Q322 -3 316 1 Q310 5 318 17 Q411 180 416 428 L344 424 Q344 252 340 128 Q339 94 320 80 Q295 60 287 81 Q285 85 221 107 Q211 111 212 115 Q212 120 223 119 Q295 117 295 129 Q299 219 303 421 L207 415 Q202 271 172 188 Q143 107 69 28 Q58 17 53 21 Q47 24 55 37 Q155 186 165 413 L96 409 Q80 408 72 423 Q61 445 75 446 L166 451 L166 470 Q167 609 160 729 Q159 750 173 746 Q191 741 200 735 L290 741 Q303 742 312 749 L318 752 Q322 755 328 752 Q335 749 349 740 Q359 733 354 721 Q348 705 348 686 Q345 587 345 462 L417 466 L417 469 ZM750 577 Q752 457 749 314 Q748 281 736 266 Q723 245 714 266 Q705 284 705 306 Q711 474 708 586 Q707 604 702 624 Q698 638 712 635 L738 626 Q749 621 750 606 L750 577 ZM868 781 Q878 775 875 758 Q872 733 870 701 Q869 628 868 384 Q868 156 865 33 Q864 -6 843 -23 Q817 -44 808 -22 Q805 -14 727 11 Q716 14 717 19 Q718 24 729 24 Q819 22 819 34 Q830 367 826 728 Q826 756 821 786 Q817 802 836 797 Q852 792 868 781 Z" /><glyph glyph-name="uni5224" unicode="&#x5224;" d="M263 540 Q239 577 169 655 Q161 663 164 667 Q166 671 176 667 Q241 646 295 576 Q314 551 299 532 Q280 511 263 540 ZM414 305 Q513 316 546 323 Q566 327 578 306 Q594 276 569 276 Q516 274 365 260 Q326 75 160 -46 Q144 -58 139 -53 Q133 -49 146 -36 Q282 94 317 255 Q172 241 92 234 Q77 233 69 249 Q56 272 70 272 L325 296 Q334 355 337 426 L210 415 Q192 414 184 428 Q171 451 190 452 L339 467 L339 479 Q342 660 334 783 Q333 807 349 802 Q366 798 379 790 Q390 784 389 761 Q388 730 388 645 Q388 543 386 478 L386 471 L498 483 Q516 486 524 469 Q537 443 515 442 L384 430 Q381 358 372 301 L414 305 ZM579 713 Q589 704 580 693 Q491 581 429 539 Q421 534 417 539 Q412 543 418 551 Q513 679 524 699 Q532 714 536 726 Q540 738 551 733 Q571 721 579 713 ZM687 275 Q687 245 675 228 Q661 208 651 227 Q640 247 641 271 Q649 445 646 555 Q646 575 641 595 Q637 610 651 607 Q671 602 681 596 Q692 591 692 577 L687 275 ZM869 777 Q880 771 877 753 Q873 719 873 693 Q871 615 871 372 Q870 139 867 15 Q866 -26 844 -44 Q817 -66 807 -43 Q804 -36 701 -7 Q690 -4 691 2 Q692 7 704 7 Q817 4 819 16 Q828 374 825 722 Q825 751 820 783 Q818 794 821 796 Q824 798 836 794 Q850 790 869 777 Z" /><glyph glyph-name="uni5229" unicode="&#x5229;" d="M427 518 L545 521 Q564 521 570 507 Q580 485 561 484 L384 470 L382 390 Q451 372 521 305 Q546 281 533 260 Q518 236 495 264 Q456 308 382 367 Q380 223 376 69 Q376 19 362 -9 Q355 -25 347 -25 Q339 -25 334 -9 Q327 19 328 58 Q335 240 337 405 Q197 200 63 107 Q48 96 44 102 Q40 107 53 122 Q218 295 312 465 L142 451 Q122 449 111 467 Q100 486 102 490 Q103 493 122 495 Q198 498 338 510 L337 601 Q337 629 332 661 Q279 640 210 626 Q195 623 193 629 Q192 635 206 642 Q341 700 392 730 Q440 757 473 789 Q483 797 492 789 Q501 783 513 766 Q522 753 507 746 Q497 741 467 723 Q439 707 415 696 L366 674 L373 669 Q384 660 385 639 L384 514 L427 518 ZM676 295 Q675 264 663 247 Q647 227 637 247 Q628 266 629 290 Q636 443 634 579 Q634 597 629 620 Q625 635 639 632 Q659 626 668 621 Q680 615 680 601 L676 295 ZM853 782 Q864 774 861 757 Q856 730 856 699 Q854 621 854 382 Q853 152 850 29 Q850 -11 828 -29 Q800 -53 790 -29 Q787 -22 679 8 Q668 11 669 16 Q669 22 681 21 Q802 18 802 30 Q812 425 808 727 Q808 763 803 787 Q801 798 804 800 Q807 802 819 798 Q832 794 853 782 Z" /><glyph glyph-name="uni522B" unicode="&#x522b;" d="M465 539 Q474 644 481 709 Q314 699 249 693 Q250 689 250 679 Q257 606 260 528 Q295 529 422 537 L465 539 ZM231 731 Q315 738 467 748 Q481 749 492 756 Q495 758 502 758 L505 757 Q507 757 508 756 Q522 750 529 744 Q537 736 532 723 Q529 715 525 694 Q520 661 508 534 Q510 531 511 525 Q517 510 515 505 Q513 501 501 500 L369 494 L377 489 Q389 482 385 465 L372 384 Q427 388 489 395 Q502 396 512 402 L515 404 Q516 405 517 405 Q523 408 530 404 Q545 397 555 388 Q565 381 559 370 Q552 360 551 345 Q546 310 533 203 Q521 104 513 51 Q506 14 485 4 Q457 -12 450 8 Q449 12 354 41 Q343 45 344 49 Q345 54 357 53 Q461 45 464 55 Q484 178 502 355 Q401 346 364 342 Q334 210 270 127 Q203 40 76 -26 Q58 -35 54 -29 Q50 -24 66 -12 Q264 125 315 337 Q237 329 159 322 Q145 322 137 341 Q130 357 131 361 Q131 365 142 365 L324 379 Q333 437 334 488 L334 492 L262 489 L262 483 Q262 469 248 461 Q229 451 225 459 Q221 468 220 482 L204 690 Q203 702 197 722 Q191 737 205 736 Q222 734 228 731 L231 731 ZM694 572 Q694 459 691 286 Q690 253 677 233 Q664 212 653 233 Q644 254 645 278 Q651 461 648 582 Q648 601 643 623 Q639 639 653 635 Q674 629 681 625 Q693 620 694 604 L694 572 ZM860 785 Q870 777 868 761 Q865 734 863 703 Q862 631 861 388 Q861 162 858 38 Q857 -2 836 -20 Q808 -43 799 -19 Q797 -14 687 17 Q676 20 677 25 Q678 30 689 30 Q810 27 810 39 Q820 377 817 731 Q817 760 812 790 Q810 801 813 803 Q816 805 827 801 Q844 796 860 785 Z" /><glyph glyph-name="uni522E" unicode="&#x522e;" d="M220 261 Q226 198 231 101 Q333 106 395 110 L442 113 Q447 207 454 292 Q282 282 218 276 L220 261 ZM408 501 Q501 508 542 515 Q561 519 572 497 Q587 468 563 468 Q514 468 365 459 Q364 438 364 396 L363 328 L437 333 Q451 334 463 340 Q472 345 476 341 Q479 341 481 340 Q493 335 501 328 Q510 321 505 308 Q502 301 498 278 Q490 207 484 106 L487 98 Q492 83 490 78 Q488 74 476 73 Q441 72 357 67 Q276 62 232 60 L233 44 Q233 29 219 21 Q200 10 196 18 Q192 27 191 43 Q189 63 182 164 Q177 241 173 272 Q172 288 165 307 Q161 317 163 319 Q164 321 174 321 Q191 319 198 316 L320 325 Q320 416 321 456 Q143 445 82 442 Q67 441 59 457 Q48 478 62 480 L321 495 Q322 532 322 595 Q322 614 318 654 Q250 634 188 626 Q172 624 171 630 Q169 637 184 642 Q332 694 384 719 Q433 741 469 771 Q479 779 488 771 Q499 761 508 747 Q517 733 501 727 Q489 723 459 708 Q429 693 406 684 Q368 670 349 664 Q352 663 357 660 Q362 658 364 656 Q372 652 371 635 Q368 614 368 587 L366 498 L408 501 ZM689 297 Q689 268 676 251 Q663 232 652 251 Q642 270 643 293 Q650 459 649 577 Q649 596 644 618 Q639 632 654 629 Q676 622 683 618 Q694 613 695 599 L689 297 ZM856 795 Q867 788 864 771 Q860 737 860 712 Q858 634 858 392 Q857 159 854 35 Q853 -6 832 -23 Q805 -45 795 -23 Q792 -17 686 13 Q675 16 676 22 Q677 27 688 27 Q805 24 807 36 Q816 392 813 740 Q813 768 808 800 Q806 811 809 813 Q812 815 824 811 Q843 805 856 795 Z" /><glyph glyph-name="uni5230" unicode="&#x5230;" d="M481 314 Q498 317 506 300 Q518 277 497 274 L362 262 Q362 225 360 129 Q455 156 544 184 Q560 188 563 181 Q566 174 552 168 Q420 106 122 12 Q106 7 97 16 Q86 27 77 47 Q70 62 84 63 Q104 63 123 67 Q228 92 317 117 Q317 215 318 258 L188 248 Q171 247 163 260 Q151 281 169 283 Q269 293 318 297 L318 367 Q318 385 314 425 L314 429 Q239 413 195 399 Q175 393 159 382 Q149 376 142 384 Q132 395 125 415 Q124 418 124 422 Q121 430 129 433 Q165 445 185 475 Q222 525 283 632 Q293 651 300 672 L159 663 Q145 663 138 678 Q128 701 140 701 Q289 709 415 720 Q501 728 524 734 Q541 739 550 716 Q564 688 542 688 Q493 687 347 675 L349 672 Q357 661 348 648 Q293 554 216 447 Q331 471 462 492 Q443 529 403 598 Q396 611 400 614 Q403 617 414 609 Q485 554 530 455 Q544 422 524 406 Q504 391 491 425 Q484 448 473 470 Q411 450 340 435 L359 426 Q367 421 366 405 Q364 379 364 360 L363 301 L481 314 ZM671 562 Q673 420 668 284 Q668 251 655 232 Q641 212 631 232 Q622 252 623 275 Q629 429 626 571 Q626 592 620 611 Q616 626 631 623 Q651 617 657 614 Q669 608 670 593 Q671 582 671 562 ZM847 770 Q858 763 855 747 Q852 720 850 689 Q848 606 848 375 Q848 143 845 26 Q844 -13 823 -32 Q796 -54 786 -31 Q784 -25 668 5 Q657 7 658 13 Q659 18 671 18 Q798 15 798 27 Q807 377 804 717 Q804 753 799 775 Q797 786 800 788 Q803 790 815 786 Q834 780 847 770 Z" /><glyph glyph-name="uni5236" unicode="&#x5236;" d="M563 495 Q583 496 591 480 Q603 454 580 453 L390 441 L389 349 L487 355 Q501 356 514 362 Q519 366 528 364 Q542 359 552 353 Q561 348 557 336 Q553 328 553 316 L553 240 Q553 187 552 157 Q551 128 532 116 Q505 98 496 117 Q495 121 436 137 Q425 140 426 145 Q427 150 438 150 Q503 149 503 159 Q507 219 505 314 L389 307 Q389 223 391 37 Q391 -10 378 -41 Q364 -75 353 -42 Q341 -6 342 37 Q344 125 346 305 Q285 301 226 296 Q226 152 225 116 Q224 91 212 76 Q197 58 187 76 Q178 91 179 110 Q184 233 181 305 Q180 320 175 335 Q171 349 185 346 Q203 342 213 338 L215 337 L347 346 L348 439 L98 423 Q78 422 69 436 Q61 449 63 454 Q64 458 77 460 L348 480 L348 579 L218 572 Q187 522 149 485 Q142 478 137 481 Q131 485 136 495 Q206 632 217 669 Q219 677 224 706 Q225 720 238 716 Q256 709 268 701 Q279 694 273 681 Q257 644 240 612 Q272 615 348 619 L348 718 Q348 761 341 803 Q336 824 354 819 Q374 811 389 798 Q399 789 398 767 Q397 756 395 707 L393 622 L477 629 Q504 630 518 632 Q536 633 544 617 Q556 591 533 590 L392 582 L390 483 L563 495 ZM680 243 Q667 224 656 242 Q645 262 646 285 Q652 454 651 560 Q649 588 645 600 Q641 615 655 612 Q679 605 687 601 Q697 595 697 582 L696 553 Q692 409 692 287 Q692 260 680 243 ZM846 786 Q856 779 853 762 Q849 728 849 704 Q847 627 847 388 Q846 159 843 37 Q842 -3 821 -21 Q794 -44 785 -20 Q782 -14 681 15 Q670 18 671 23 Q671 29 683 28 Q796 26 796 38 Q806 375 803 732 Q801 774 798 791 Q794 808 813 802 Q830 797 846 786 Z" /><glyph glyph-name="uni5237" unicode="&#x5237;" d="M247 573 L488 587 Q495 665 501 711 Q312 701 255 697 L247 573 ZM243 534 Q215 264 58 109 Q46 97 40 101 Q34 105 44 118 Q178 294 202 580 Q207 640 205 730 Q205 750 219 746 Q234 742 247 735 Q338 741 489 749 Q504 750 514 756 Q517 758 524 758 L527 757 Q528 757 529 756 Q543 750 550 744 Q560 737 553 724 Q547 711 546 698 L530 587 Q535 585 539 573 Q544 558 542 553 Q540 549 528 548 Q488 547 391 541 Q297 536 243 534 ZM419 401 L504 407 Q517 407 530 414 Q533 416 539 416 L544 415 Q562 407 567 404 Q577 399 572 388 Q568 379 568 366 Q567 340 567 275 Q567 207 566 175 Q565 145 547 134 Q519 117 512 135 Q510 141 466 154 Q456 158 456 162 Q456 167 467 167 Q518 166 519 176 Q523 250 521 368 L418 361 Q415 195 416 22 Q416 -16 404 -40 Q390 -65 379 -40 Q367 -11 368 18 Q374 207 374 359 Q344 356 280 352 L280 348 Q283 208 282 154 Q281 126 269 113 Q255 93 246 112 Q237 126 237 146 Q240 277 236 356 Q234 374 229 387 Q223 401 238 398 Q255 395 263 390 L374 398 L373 454 Q373 487 366 511 Q362 529 378 525 Q396 521 411 510 Q421 504 421 486 Q420 471 420 445 L419 401 ZM712 552 Q711 478 711 277 Q711 249 698 230 Q685 209 675 229 Q664 248 665 272 Q670 456 666 560 Q666 582 660 601 Q656 616 671 612 Q688 609 700 602 Q711 597 712 582 L712 552 ZM878 781 Q888 775 885 758 Q881 724 881 699 Q879 622 879 383 Q878 153 875 31 Q874 -9 853 -26 Q826 -49 817 -26 Q815 -21 706 10 Q696 13 697 18 Q697 23 709 23 Q828 20 828 32 Q838 370 835 727 Q835 756 830 786 Q826 803 845 797 Q862 792 878 781 Z" /><glyph glyph-name="uni5239" unicode="&#x5239;" d="M176 467 Q166 461 161 466 Q157 471 167 480 Q267 573 321 628 Q257 674 194 715 Q175 727 178 732 Q180 738 200 730 Q277 702 348 658 Q395 708 431 756 Q447 777 459 799 Q466 811 475 804 Q490 795 499 784 Q507 775 498 764 Q431 683 384 635 Q424 608 489 560 Q527 532 517 504 Q508 482 472 511 Q405 565 353 604 Q272 528 176 467 ZM229 287 Q236 297 241 296 Q245 294 243 283 Q230 204 149 122 Q114 85 101 122 Q95 139 114 157 Q158 198 229 287 ZM539 411 Q558 414 566 396 Q579 370 556 369 L373 358 Q373 159 370 63 Q370 27 349 10 Q322 -9 313 10 Q311 16 229 42 Q218 45 219 50 Q220 55 231 54 Q324 52 324 64 Q329 217 329 356 L98 345 Q79 344 70 359 Q62 372 64 377 Q65 381 78 382 Q220 390 329 397 L329 475 Q329 498 325 517 Q323 532 340 527 Q361 521 371 514 Q382 509 379 494 Q375 470 375 453 L374 399 L539 411 ZM434 300 Q505 279 566 207 Q587 181 572 161 Q554 138 534 168 Q508 205 427 286 Q419 295 421 299 Q423 303 434 300 ZM683 296 Q683 267 671 251 Q658 232 647 250 Q636 270 637 294 Q643 473 642 590 Q640 619 636 633 Q630 648 646 644 Q661 641 678 632 Q688 626 688 613 Q687 601 687 582 Q683 428 683 296 ZM852 796 Q863 789 860 773 Q856 739 856 714 Q854 635 854 393 Q853 160 850 36 Q849 -5 828 -22 Q801 -44 791 -22 Q788 -15 679 14 Q668 17 669 23 Q670 28 682 28 Q803 25 803 37 Q813 434 809 742 Q809 778 804 802 Q802 818 820 813 Q839 806 852 796 Z" /><glyph glyph-name="uni523B" unicode="&#x523b;" d="M359 675 Q337 716 281 784 Q274 793 277 796 Q279 800 289 796 Q348 778 394 710 Q411 684 395 666 Q375 646 359 675 ZM415 188 Q490 154 551 76 Q573 49 558 28 Q541 7 520 37 Q490 83 401 172 Q277 36 91 -24 Q70 -31 67 -24 Q64 -17 83 -8 Q273 85 376 209 Q429 274 477 362 Q484 376 497 368 Q509 361 521 351 Q531 340 520 328 Q511 316 474 263 Q444 220 415 188 ZM368 404 Q337 396 280 385 Q229 376 206 369 Q192 366 177 356 Q167 351 160 360 Q150 374 145 391 Q144 394 144 399 Q146 404 150 405 Q184 416 200 437 Q242 490 284 557 Q295 578 302 598 L133 588 Q119 587 112 602 Q102 624 114 625 Q279 633 420 644 Q515 652 539 658 Q557 661 567 640 Q580 612 558 612 Q520 611 333 600 Q336 598 344 587 Q352 576 343 564 Q296 493 233 415 Q314 426 387 433 Q428 495 450 549 Q455 561 468 556 Q482 550 493 541 Q503 532 495 519 Q486 506 451 451 Q424 407 397 372 Q284 228 116 161 Q97 154 94 160 Q90 166 107 176 Q274 276 361 395 L368 404 ZM683 583 Q683 564 682 552 Q680 471 678 276 Q678 246 665 229 Q653 209 641 228 Q631 249 632 272 Q638 452 637 561 Q637 583 631 602 Q627 616 642 614 Q664 607 672 603 Q683 596 683 583 ZM842 791 Q851 785 850 767 Q845 740 845 709 Q843 631 843 388 Q842 155 839 32 Q839 -6 817 -25 Q791 -47 782 -24 Q779 -18 688 10 Q677 14 678 19 Q679 24 690 23 Q793 21 793 33 Q803 428 799 737 Q799 774 794 796 Q792 813 810 807 Q826 802 842 791 Z" /><glyph glyph-name="uni524D" unicode="&#x524d;" d="M421 234 Q422 267 422 332 L240 322 L240 223 L421 234 ZM240 360 L422 371 Q422 436 421 468 Q384 465 325 462 L238 456 Q239 444 239 421 L240 360 ZM466 504 Q476 498 472 485 Q466 472 466 455 Q465 400 465 248 Q465 101 463 26 Q462 -6 443 -20 Q417 -39 409 -19 Q409 -18 336 5 Q326 9 327 13 Q327 18 338 17 Q415 15 417 27 Q419 81 421 195 L240 186 Q240 83 239 27 Q239 -13 226 -36 Q212 -65 202 -37 Q193 -13 194 16 Q200 227 195 432 Q193 462 188 485 Q183 501 199 497 Q207 495 210 493 Q212 494 217 494 L404 507 Q419 508 428 514 Q432 516 434 516 Q438 519 444 516 Q453 513 466 504 ZM607 466 Q616 462 616 449 L615 436 Q615 428 614 423 Q613 389 613 320 L613 196 Q613 174 602 159 Q589 143 578 159 Q566 174 568 196 Q572 308 570 430 Q568 452 566 465 Q565 478 576 476 Q595 473 607 466 ZM779 571 Q789 565 786 550 Q785 544 782 503 Q781 443 780 268 Q779 97 777 9 Q776 -29 756 -45 Q729 -66 721 -45 Q718 -38 635 -12 Q625 -9 626 -4 Q626 1 637 0 Q731 -2 731 10 Q740 269 737 526 Q737 554 733 575 Q731 590 748 585 Q763 580 779 571 ZM660 651 Q829 664 869 670 Q894 674 907 653 Q927 621 899 621 Q818 620 116 577 Q97 576 88 592 Q75 614 90 615 Q384 632 411 634 Q403 640 398 649 Q376 691 321 762 Q314 771 317 774 Q319 778 329 774 Q389 751 433 684 Q452 657 435 640 L430 636 L553 644 Q625 779 628 786 Q633 797 637 816 Q640 830 652 825 Q667 819 681 809 Q692 802 685 789 Q623 687 584 646 L660 651 Z" /></font>
</defs>
</svg>
